<svg xmlns="http://www.w3.org/2000/svg" width="120" height="120" viewBox="0 0 120 120"><path d="M12 0h96c6.628 0 12 5.373 12 12v96c0 6.628-5.372 12-12 12h-96c-6.627 0-12-5.372-12-12v-96c0-6.627 5.373-12 12-12z" fill-rule="evenodd" clip-rule="evenodd" fill="#7F8DE1"/><path d="M26 22.03c-4.418 0-6 1.582-6 6v63.94c0 4.418 1.582 6 6 6h68c4.418 0 6-1.582 6-6v-64.801s-.223-5.112-4.333-5.112c-4.111.001-69.667-.027-69.667-.027z" fill-rule="evenodd" clip-rule="evenodd" fill="#535EA7"/><path d="M42.021 28.009h46c4.418 0 6 1.582 6 6v22.905c0 4.42-3.582 8.002-8 8.002h-44c-4.418 0-8-3.582-8-8.002v-20.905c0-4.418 3.582-8 8-8z" fill-rule="evenodd" clip-rule="evenodd" fill="#F7F8FF"/><path d="M26 22.015c-4.418 0-6 1.582-6 6v63.972c0 4.418 1.582 6 6 6h68c4.418 0 6-1.582 6-6v-50.832c0-2.667-.223-5.112-4.333-5.112h-38.111s-6.222-4-7-6c-.778-2-3.111-8.029-6.667-8.029l-17.889.001z" fill-rule="evenodd" clip-rule="evenodd" fill="#C0C9FE"/></svg>
