<svg xmlns="http://www.w3.org/2000/svg" width="120" height="120" viewBox="0 0 120 120"><path d="M120 108c0 6.625-5.373 12-12 12h-96c-6.627 0-12-5.375-12-12v-96.001c0-6.627 5.373-11.999 12-11.999h96c6.627 0 12 5.373 12 12v96z" fill-rule="evenodd" clip-rule="evenodd" fill="#50CC7A"/><g fill-rule="evenodd" clip-rule="evenodd" fill="#F1FCF5"><path d="M29.049 87.001c0 3.143.549 7.988 3.692 7.988h54.5c3.145 0 3.693-4.846 3.693-7.988h-61.885zM69.848 25.01h-20.037c-.85 0-1.967.63-1.967 1.806v17.278c0 .741.82 1.307 1.779 1.691 5.045 2.016 4.365 11.317 4.365 11.317v9.122c0 .998.797 1.808 1.779 1.808h8.236c.984 0 1.781-.81 1.781-1.808v-9.122s-.793-9.301 4.25-11.317c.961-.384 1.781-.95 1.781-1.691v-17.278c.001-1.176-1.118-1.806-1.967-1.806zM90.186 71.049h-60.512c-3.143 0-5.691 2.548-5.691 5.691l-.114 8.3h72.008v-8.3c0-3.143-2.549-5.691-5.691-5.691z"/></g></svg>