<svg xmlns="http://www.w3.org/2000/svg" width="120" height="120" viewBox="0 0 120 120"><path d="M.001 11.878c0-6.56 5.317-11.878 11.878-11.878h48.111v60.014h-59.99l.001-48.136z" fill-rule="evenodd" clip-rule="evenodd" fill="#3C97DD"/><path d="M108.111 0c6.561 0 11.878 5.318 11.878 11.878v48.136h-59.989v-59.999l48.111-.015z" fill-rule="evenodd" clip-rule="evenodd" fill="#3CB364"/><path d="M.008 108.073c0 6.56 5.425 11.983 11.984 11.983h48.012v-60.042h-60.018l.022 48.059z" fill-rule="evenodd" clip-rule="evenodd" fill="#8A75CD"/><path d="M108.116 120.077c6.561 0 11.878-5.371 11.878-11.932v-48.151h-60v60.072l48.122.011z" fill-rule="evenodd" clip-rule="evenodd" fill="#4DB1CA"/><g><g fill="#fff"><path d="M42.998 17.372h-26.009v5.991h26.009v-5.991zM23.036 27.379h-6.047v15.973h6.047v-15.973zM26.985 43.352h16.015v-15.973h-16.015v15.973z"/></g><path d="M103.304 17.026s-1.619 1.735-9.89.417c-7.533-1.203-10.652.254-13.356 2.957-2.703 2.704-5.661 11.069-.046 16.684.971.877-3.327 4.93-3.327 4.93l1.171 1.693 4.929-3.943s2.998 2.865 7.256 2.865c5.916 0 12.617-2.542 13.032-11.414.261-5.588-1.202-9.567.231-14.189zm-4.226 5.078c-.007.007-2.647 2.443-7.002 6.798-3.874 3.875-8.396 7.9-8.399 7.902-.069.062-.157.094-.246.094-.084 0-.17-.029-.238-.088-.141-.119-.172-.324-.074-.479.012-.013 3.979-6.322 7.191-9.304 3.338-3.086 8.341-5.519 8.355-5.528.165-.08.364-.027.468.124.102.152.079.357-.055.481zM33.805 80.581c3.341-.904 6.38 2.964 6.38 2.964l2.815-.037s-3.64-7.748-8.519-7.748h-6.416c-.443 0-.864.821-1.237.769-1.044-.147-1.718-.491-1.878-.58-.567-.372-1.525-.331-2.333-.331h-.3c-1.234 0-1.475-.1-1.475 1.332v3.904c0 1.432.24 1.331 1.475 1.331h.3c.91 0 2.013.053 2.529-.493.479-.328 1.55-.926 2.638-.604 1.354.511 1.4 1.749 1.52 2.346v6.104c-.614.319-1.03.81-1.03 1.476v11.524000000000001c0 2.556 6.113 2.556 6.113 0v-11.524000000000001c0-.666-.418-1.156-1.031-1.477v-7.369c.066-.772.165-1.511.449-1.587z" fill="#fff"/><g fill="#fff"><path d="M82.681 94.726l-4.082 6.71 6.705-4.082-.516-2.115-2.107-.513zM85.303 82.72l-6.704-4.081 4.082 6.705 2.107-.513.515-2.111zM94.688 97.352l6.704 4.08-4.083-6.706-2.107.513-.514 2.113zM97.31 85.345l4.087-6.706-6.713 4.082.512 2.11 2.114.514zM109.441 90.034l-15.645-3.804-3.798-15.646-3.81 15.646-15.639 3.804 15.639 3.806 3.811 15.645 3.805-15.645 15.637-3.806zm-17.547.013c0 1.047-.851 1.897-1.898 1.897-1.049 0-1.899-.851-1.899-1.897 0-1.05.851-1.899 1.899-1.899 1.047-.001 1.898.849 1.898 1.899z"/></g></g></svg>