<svg xmlns="http://www.w3.org/2000/svg" width="120" height="120" viewBox="0 0 120 120"><path d="M120 108c0 6.627-5.373 12-12 12h-96c-6.627 0-12-5.373-12-12v-96c0-6.627 5.373-12 12-12h96c6.627 0 12 5.373 12 12v96z" fill-rule="evenodd" clip-rule="evenodd" fill="#62B7ED"/><path d="M59.873 26.001c18.783 0 34.009 15.222 34.009 33.999s-15.226 33.999-34.009 33.999-34.009-15.222-34.009-33.999 15.226-33.999 34.009-33.999z" fill-rule="evenodd" clip-rule="evenodd" fill="#EAF6FD"/><g fill-rule="evenodd" clip-rule="evenodd" fill="#3A9BD6"><path d="M70.816 46.945c3.359 0 6.082 2.708 6.082 6.048s-2.723 6.048-6.082 6.048-6.082-2.708-6.082-6.048 2.723-6.048 6.082-6.048zM48.922 46.945c3.359 0 6.082 2.708 6.082 6.048s-2.723 6.048-6.082 6.048-6.082-2.708-6.082-6.048 2.723-6.048 6.082-6.048zM46.489 67.507s6.386 2.42 13.38 2.42l13.38-2.42c2.116-.755 3.269.417 3.649 1.211.38.793.783 3.701-2.434 4.837 0 0-7.589 2.42-14.596 2.42-6.981 0-14.596-2.42-14.596-2.42-3.442-1.662-2.956-3.946-2.433-4.837.533-.908 1.572-1.891 3.65-1.211z"/></g></svg>