<svg xmlns="http://www.w3.org/2000/svg" width="120" height="120" viewBox="0 0 120 120"><path d="M12 0h96c6.628 0 12 5.373 12 12v96.001c0 6.627-5.372 11.999-12 11.999h-96c-6.628 0-12-5.372-12-11.999v-96.001c0-6.627 5.373-12 12-12z" fill-rule="evenodd" clip-rule="evenodd" fill="#F2CF5B"/><path d="M83.5 43.513c0-12.979-10.521-23.501-23.5-23.501s-23.5 10.522-23.5 23.501c0 12.979 8.227 8.436 8.227 0 0-8.437 6.84-15.275 15.275-15.275s15.275 6.839 15.275 15.275 8.223 12.979 8.223 0z" fill-rule="evenodd" clip-rule="evenodd" fill="#DB9D0C"/><g fill-rule="evenodd" clip-rule="evenodd" fill="#FEFBF0"><path d="M34.005 37.154h51.985v63.018h-51.985v-63.018zM25.868 100.179c-4.328 0-5.836-1.379-5.836-5.71l-.042-51.725c0-4.332 1.508-5.577 5.836-5.577h5.206v62.839l-5.164.173zM94.131 100.179c4.328 0 5.836-1.379 5.836-5.71l.043-51.725c0-4.332-1.509-5.577-5.836-5.577h-5.206v62.839l5.163.173z"/></g><path d="M49.217 53.182h21.562c4.98 0 8.208 3.221 8.208 8.299l-.004 10.003c0 4.988-4.066 8.317-8.204 8.317h-8.146c-.999 0-7.088 8.363-8.432 8.363-1.03 0-1.824.068-1.824-1.747v-6.616h-3.617c-4.137 0-7.753-3.506-7.753-8.317l.001-9.566c.001-4.724 3.416-8.736 8.209-8.736z" fill-rule="evenodd" clip-rule="evenodd" fill="#E8C13E"/></svg>