<svg xmlns="http://www.w3.org/2000/svg" width="120" height="120" viewBox="0 0 120 120"><path d="M120 108.088c0 6.639-5.373 12.021-12 12.021h-96c-6.627 0-12-5.383-12-12.021v-96.175c0-6.64 5.373-12.022 12-12.022h96c6.627 0 12 5.382 12 12.021v96.176z" fill-rule="evenodd" clip-rule="evenodd" fill="#F67594"/><g fill="#FFF6F9"><path d="M58.022 38.3l31.495-18.312 10.485 18.195s-4.669 2.685-14.028 8.099c-9.358 5.413-6.532 14.427-5.997 15.926 4.269 11.953-.457 25.622-11.821 32.195-12.787 7.397-29.14 3.008-36.523-9.805s-3.085-29.342 9.703-36.739l3.171-1.835 13.515-7.724z" fill-rule="evenodd" clip-rule="evenodd"/><path d="M24.501 83.202c-4.309 2.487-5.785 7.995-3.297 12.305s7.996 5.784 12.305 3.297c4.31-2.487 5.785-7.995 3.297-12.305-2.487-4.309-7.995-5.785-12.305-3.297zm6.501 11.251c-1.908 1.104-4.346.449-5.448-1.465-1.102-1.913-.448-4.357 1.459-5.463 1.909-1.104 4.347-.449 5.448 1.464 1.103 1.913.45 4.359-1.459 5.464z"/></g><path d="M54.197 57.009c8.03 0 14.539 6.509 14.539 14.539s-6.509 14.539-14.539 14.539c-8.029 0-14.539-6.509-14.539-14.539s6.51-14.539 14.539-14.539z" fill-rule="evenodd" clip-rule="evenodd" fill="#DF5072"/><path d="M54.207 60.826c5.904 0 10.69 4.787 10.69 10.691s-4.786 10.69-10.69 10.69-10.691-4.786-10.691-10.69 4.787-10.691 10.691-10.691z" fill-rule="evenodd" clip-rule="evenodd" fill="#FED6E0"/></svg>