<svg xmlns="http://www.w3.org/2000/svg" width="120" height="120" viewBox="0 0 120 120"><path d="M12 0h96c6.628 0 12 5.373 12 12v96c0 6.628-5.372 11.999-12 11.999h-96c-6.627 0-12-5.371-12-11.999v-96c0-6.626 5.373-12 12-12z" fill-rule="evenodd" clip-rule="evenodd" fill="#9895EE"/><path d="M24 22h72c2.209 0 4 1.791 4 4v68c0 2.21-1.791 4-4 4h-72c-2.209 0-4-1.79-4-4v-68c0-2.208 1.791-4 4-4z" fill-rule="evenodd" clip-rule="evenodd" fill="#706EC1"/><path d="M33 32.001h54c1.657 0 3 1.343 3 2.999v50c0 1.657-1.343 3-3 3h-54c-1.656 0-3-1.343-3-3v-50c0-1.656 1.344-2.999 3-2.999z" fill-rule="evenodd" clip-rule="evenodd" fill="#F2F2FF"/><path d="M69.595 56.166h-8.738l1.885-14.488c.086-.672-.343-1.261-.942-1.429s-1.199 0-1.542.588l-11.053 20.367c-.257.421-.257.925 0 1.345s.686.672 1.199.672h8.738l-1.885 13.066c-.085.672.343 1.26.942 1.429.6.251 1.2 0 1.542-.589l11.052-18.944c.258-.42.258-.924 0-1.345-.256-.419-.685-.672-1.198-.672z" fill="#8A87E7"/></svg>