<svg xmlns="http://www.w3.org/2000/svg" width="120" height="120" viewBox="0 0 120 120"><path d="M12 0h96c6.627 0 12 5.373 12 12v96c0 6.627-5.373 12-12 12h-96c-6.627 0-12-5.373-12-12v-96c0-6.627 5.373-12 12-12z" fill-rule="evenodd" clip-rule="evenodd" fill="#6EC06E"/><path d="M28 20c-3.487 0-6 2.513-6 6v68c0 3.487 2.513 6 6 6h64c3.487 0 6-2.513 6-6v-48l-26-26h-44z" fill-rule="evenodd" clip-rule="evenodd" fill="#EDFEED"/><path d="M72 20.003l-.012-.003.012 19.003c0 3.919 3.023 7 7 7h19l-26-26z" fill-rule="evenodd" clip-rule="evenodd" fill="#C4EDC4"/><path d="M34.75 18.75h24v74l-12-6-12 6v-74z" fill-rule="evenodd" clip-rule="evenodd" fill="#A7DFA7"/><path d="M62.561 64.051c-.062-.334-.275-.619-.58-.77l-2.636-1.32.993-2.773c.115-.318.073-.673-.111-.957-.186-.284-.494-.465-.832-.49l-2.941-.211-.145-2.941c-.016-.337-.189-.649-.469-.841-.28-.191-.634-.24-.955-.134l-2.799.93-1.261-2.662c-.146-.306-.425-.527-.756-.598-.332-.071-.677.02-.935.241l-2.229 1.926-2.185-1.977c-.252-.228-.594-.325-.929-.263-.333.062-.618.278-.771.581l-1.32 2.633-2.777-.991c-.317-.113-.672-.072-.957.112-.283.185-.465.492-.489.831l-.212 2.938-2.945.146c-.335.011-.65.189-.842.469-.191.279-.241.633-.135.954l.93 2.796-2.664 1.26c-.307.145-.527.424-.598.756-.069.331.02.676.241.933l1.929 2.228-1.98 2.182c-.229.252-.324.595-.262.927.062.334.276.618.58.77l2.637 1.321-.994 2.773c-.113.318-.072.672.113.956.185.283.492.465.83.489l2.939.212.146 2.941c.017.339.191.649.47.841.28.19.634.242.956.134l2.797-.928 1.262 2.661c.145.307.424.527.756.596.332.07.678-.019.934-.24l2.229-1.928 2.186 1.979c.225.203.523.303.822.277l.105-.016c.334-.062.619-.275.771-.579l1.32-2.635 2.777.991c.318.115.672.073.957-.111.283-.185.464-.492.49-.83l.211-2.938 2.946-.146.041-.003h.009c.596-.053 1.038-.576.986-1.174-.012-.135-.048-.26-.104-.375l-.887-2.668 2.665-1.262c.307-.144.527-.423.598-.754s-.02-.676-.24-.934l-1.93-2.227 1.981-2.183c.229-.249.327-.593.263-.925z" fill="#509E50"/><path d="M45.979 58.143c4.896-.426 9.21 3.192 9.635 8.084.426 4.89-3.197 9.2-8.093 9.627-4.896.426-9.209-3.193-9.635-8.084s3.197-9.202 8.093-9.627z" fill-rule="evenodd" clip-rule="evenodd" fill="#C4EDC4"/></svg>