<svg xmlns="http://www.w3.org/2000/svg" width="120" height="120" viewBox="0 0 120 120"><path d="M120 108c0 6.627-5.373 12-12 12h-96c-6.627 0-12-5.373-12-12v-96c0-6.628 5.373-12 12-12h96c6.627 0 12 5.372 12 12v96z" fill-rule="evenodd" clip-rule="evenodd" fill="#8199AF"/><path d="M94.55 38.028l-12.288 11.602-10.2-1.137-1.205-9.63 12.289-11.602c-3.428-1.313-7.056-1.592-10.883-.834-3.829.759-7.136 2.453-9.92 5.081-2.784 2.629-4.564 5.738-5.34 9.327-.777 3.59-.496 7.027.843 10.312l-31.645 29.876c-1.554 1.566-2.329 3.361-2.329 5.383s.775 3.817 2.329 5.384c1.606 1.467 3.52 2.199 5.743 2.199 2.221 0 4.108-.732 5.662-2.199l31.645-29.876c3.479 1.265 7.12 1.529 10.922.796 3.802-.732 7.095-2.413 9.879-5.043 2.783-2.627 4.578-5.749 5.381-9.364.803-3.614.508-7.039-.883-10.275z" fill="#E8EEF4"/></svg>