<svg xmlns="http://www.w3.org/2000/svg" width="120" height="120" viewBox="0 0 120 120"><path d="M120 108.001c0 6.627-5.372 11.999-12 11.999h-96c-6.627 0-12-5.372-12-11.999v-96.001c0-6.626 5.373-12 12-12h96c6.628 0 12 5.373 12 12v96.001z" fill-rule="evenodd" clip-rule="evenodd" fill="#8199AF"/><path d="M27 53.928c0 4.15 1.056 8.033 3.168 11.65 2.11 3.617 4.983 6.768 8.617 9.449v18.974h7.072v-7.287c0-.707.221-1.29.662-1.745.442-.455 1.007-.684 1.694-.684s1.253.229 1.694.684c.442.455.663 1.038.663 1.745v7.287h7.071v-7.287c0-.707.222-1.29.663-1.745.442-.455 1.006-.684 1.694-.684s1.252.229 1.694.684c.441.455.663 1.038.663 1.745v7.287h7.071v-7.287c0-.707.221-1.29.663-1.745.441-.455 1.006-.684 1.693-.684s1.253.229 1.694.684c.442.455.663 1.038.663 1.745v7.287h7.071v-18.974c3.634-2.682 6.507-5.832 8.618-9.449s3.172-7.5 3.172-11.65c0-7.842-3.217-14.458-9.649-19.846-6.434-5.389-14.217-8.082-23.351-8.082s-16.918 2.694-23.351 8.083c-6.433 5.387-9.649 12.003-9.649 19.845zm14.143 1.215c0-2.023.688-3.744 2.062-5.161 1.375-1.416 3.045-2.125 5.009-2.125s3.634.709 5.009 2.125c1.375 1.417 2.062 3.137 2.062 5.161 0 2.024-.688 3.745-2.062 5.161-1.375 1.417-3.045 2.125-5.009 2.125s-3.634-.708-5.009-2.125c-1.375-1.416-2.062-3.137-2.062-5.161zm23.571 0c0-2.023.688-3.744 2.062-5.161 1.375-1.416 3.045-2.125 5.009-2.125s3.634.709 5.01 2.125c1.374 1.417 2.062 3.137 2.062 5.161 0 2.024-.688 3.745-2.062 5.161-1.376 1.417-3.046 2.125-5.01 2.125s-3.634-.708-5.009-2.125c-1.375-1.416-2.062-3.137-2.062-5.161z" fill="#E8EEF4"/></svg>