<svg xmlns="http://www.w3.org/2000/svg" width="120" height="120" viewBox="0 0 120 120"><path d="M12 0h96c6.627 0 12 5.373 12 12v96c0 6.628-5.373 11.999-12 11.999h-96c-6.627 0-12-5.371-12-11.999v-96c0-6.627 5.373-12 12-12z" fill-rule="evenodd" clip-rule="evenodd" fill="#6CA1E9"/><path d="M33.998 20.002h62c2.209 0 4 1.792 4 4v62c0 2.209-1.791 4-4 4h-62c-2.209 0-4-1.791-4-4v-62c0-2.209 1.791-4 4-4z" fill-rule="evenodd" clip-rule="evenodd" fill="#ABCFFF"/><path d="M24.002 30h62c2.209 0 4 1.792 4 4v62c0 2.209-1.791 4-4 4h-62c-2.209 0-4-1.791-4-4v-62c0-2.208 1.791-4 4-4z" fill-rule="evenodd" clip-rule="evenodd" fill="#ECF4FF"/><g fill-rule="evenodd" clip-rule="evenodd" fill="#6694D0"><path d="M32.019 45.015h46.018v7.991h-46.018v-7.991zM32.019 61.015h46.018v7.991h-46.018v-7.991zM32.019 77.029h46.018v8.022h-46.018v-8.022z"/></g></svg>