<svg xmlns="http://www.w3.org/2000/svg" width="120" height="120" viewBox="0 0 120 120"><path d="M12 0h96c6.627 0 12 5.373 12 12v96c0 6.628-5.373 12.001-12 12.001h-96c-6.627 0-12-5.373-12-12.001v-96c0-6.627 5.373-12 12-12z" fill-rule="evenodd" clip-rule="evenodd" fill="#EB7092"/><path d="M20 25c0-2.992 2.007-5 4-5h71c2.962 0 5 2.039 5 5v70c0 2.963-2.038 5-5 5h-71c-1.993 0-4-2.006-4-5v-70z" fill-rule="evenodd" clip-rule="evenodd" fill="#F9F5F6"/><path d="M20 25c0-2.992 2.007-5 4-5h71c2.962 0 5 2.039 5 5v20h-80v-20z" fill-rule="evenodd" clip-rule="evenodd" fill="#A63957"/><g fill-rule="evenodd" clip-rule="evenodd" fill="#C2C9CF"><path d="M52 74.833h16v13h-16v-13zM31 74.833h16v13h-16v-13zM73 55.833h16v13h-16v-13zM52 55.833h16v13h-16v-13zM31 55.833h16v13h-16v-13z"/></g><path d="M73 74.833h16v13h-16v-13z" fill-rule="evenodd" clip-rule="evenodd" fill="#E89DB2"/><g fill-rule="evenodd" clip-rule="evenodd" fill="#F9F5F6"><path d="M74.228 14h4.562c1.231 0 2.229.997 2.229 2.229v16.529c0 1.231-.998 2.229-2.229 2.229h-4.562c-1.231 0-2.229-.998-2.229-2.229v-16.529c-.001-1.231.997-2.229 2.229-2.229zM41.21 14.021h4.583c1.23 0 2.229.998 2.229 2.229v16.509c0 1.231-.998 2.229-2.229 2.229h-4.583c-1.231 0-2.229-.998-2.229-2.229v-16.509c0-1.231.998-2.229 2.229-2.229z"/></g></svg>