<svg xmlns="http://www.w3.org/2000/svg" width="120" height="120" viewBox="0 0 120 120"><path d="M120 108c0 6.628-5.373 12-12 12h-96c-6.627 0-12-5.372-12-12v-96c0-6.627 5.373-12 12-12h96c6.627 0 12 5.373 12 12v96z" fill-rule="evenodd" clip-rule="evenodd" fill="#86C86F"/><path d="M33.161 35.483h7.5169999999999995c.431 0 .776-.351.778-.778 0-.003-.092-6.44-.092-8.23v-.023c0-1.469.309-2.752.846-3.826l.257-.482-.085.048-14.597 14.473-.055.085.772-.379c1.273-.574 2.814-.888 4.659-.888zm58.45-1.576c-.596-3.193-2.496-4.768-4.213-5.387-1.852-.669-5.609-1.362-10.328-1.919-3.797-.448-8.26-.412-10.955-.328-.324-2.216-1.877-4.24-3.617-4.942-4.633-1.864-11.792-1.414-13.63-.898-1.461.407-3.078 1.244-3.979 2.535-.604.861-.992 1.963-.996 3.505 0 .873.024 2.928.047 4.753.021 1.831.046 3.469.046 3.48-.001 1.631-1.322 2.958-2.96 2.959h-7.514c-1.602 0-2.827.271-3.762.694-.937.425-2.225.999-2.729 1.678-1.003 1.348-1.178 3.009-1.174 4.706 0 0 .015 1.386.35 4.069.277 2.076 3.154 16.579 5.292 20.991.829 1.715 1.381 2.43 3.01 3.186 3.629 1.554 11.919 3.283 15.805 3.778 3.878.496 6.313 1.539 7.763-1.503.006-.008.291-.757.683-1.855 1.26-3.816 1.436-7.202 1.436-9.653 0-.249.365-.261.365 0 0 1.73-.33 7.853 4.295 9.495 1.826.646 5.613 1.225 9.461 1.676 3.48.398 6.004 1.769 6.004 10.696 0 5.431-1.141 6.177-7.104 6.177-4.834 0-6.676.123-6.676-3.717 0-3.104 3.068-2.778 5.344-2.778 1.018 0 .279-.757.279-2.672 0-1.904 1.191-3.006.064-3.033-7.867-.216-12.496-.009-12.496 9.83 0 8.934 3.418 10.591 14.584 10.591 8.756 0 11.842-.286 15.457-11.502.715-2.215 2.945-8.974 3.992-20.318.663-7.176-1.124-28.828-2.144-34.294zm-15.261 23.932c-1.082-.037-2.123.031-3.092.188.273-2.206 1.182-4.912 4.406-4.798 3.57.123 4.07 3.497 4.082 5.78-1.504-.67-3.367-1.097-5.396-1.17z" fill="#F4FFF0"/></svg>