<svg xmlns="http://www.w3.org/2000/svg" width="120" height="120" viewBox="0 0 120 120"><path d="M12 0h96c6.627 0 12 5.372 12 12v96c0 6.628-5.373 12-12 12h-96c-6.627 0-12-5.372-12-12v-96c0-6.628 5.373-12 12-12z" fill-rule="evenodd" clip-rule="evenodd" fill="#BAAC93"/><path d="M28 20c-3.487 0-6 2.513-6 6v68.001c0 3.487 2.513 5.999 6 5.999h64c3.487 0 6-2.512 6-5.999v-48.001l-26-26h-44z" fill-rule="evenodd" clip-rule="evenodd" fill="#FDF9F3"/><g fill-rule="evenodd" clip-rule="evenodd" fill="#D0C1A6"><path d="M35.985 36.496h24v8.98h-24v-8.98zM35.995 55.468h48.019v8.991h-48.019v-8.991zM35.995 74.482h48.019v9.021h-48.019v-9.021z"/></g><path d="M72 20.003l-.012-.003.012 19.003c0 3.92 3.023 7 7 7h19l-26-26z" fill-rule="evenodd" clip-rule="evenodd" fill="#EDE0C9"/></svg>