<svg xmlns="http://www.w3.org/2000/svg" width="120" height="120" viewBox="0 0 120 120"><path d="M120 108c0 6.627-5.373 12-12 12h-96c-6.627 0-12-5.373-12-12v-96c0-6.627 5.373-12 12-12h96c6.627 0 12 5.373 12 12v96z" fill-rule="evenodd" clip-rule="evenodd" fill="#779EF2"/><g fill-rule="evenodd" clip-rule="evenodd" fill="#4F75C5"><path d="M50 81.428c0-1.714.742-4.348 3.467-6.856 5.298-4.88 13.887-10.315 10.533-14.573-2.6-3.301-1-5.148-1-10.285 0-5.977 4.39-13.714 13-13.714 8.64 0 13 7.738 13 13.714 0 5.066-3.4 8.651-6.066 12-3.357 4.217 10.429 7.752 15.6 12.857 2.666 2.631 3.467 5.195 3.467 6.856-.001 2.412-2.601 2.573-2.601 2.573h-46.8s-2.6-.107-2.6-2.572zM70 81.428c0-1.714-.742-4.348-3.467-6.856-5.298-4.88-13.887-10.315-10.533-14.573 2.6-3.301 1-5.148 1-10.285 0-5.977-4.39-13.714-13-13.714-8.64 0-13 7.738-13 13.714 0 5.066 3.401 8.651 6.067 12 3.356 4.217-10.429 7.752-15.6 12.857-2.666 2.631-3.467 5.196-3.467 6.857 0 2.411 2.6 2.572 2.6 2.572h46.8s2.6-.107 2.6-2.572z"/></g><path d="M89.999 85c0-2-.856-5.072-4-8-6.113-5.691-21.869-10.031-18-15 3-3.851 7-8.007 7-14 0-6.972-5.064-16-15-16-9.969 0-15 9.028-15 16 0 5.911 3.924 10.094 7 14 3.873 4.919-12.034 9.045-18 15-3.076 3.07-4 6.062-4 8 0 2.812 3 3 3 3h54s3-.125 3-3z" fill-rule="evenodd" clip-rule="evenodd" fill="#DFE9FE"/></svg>