<svg xmlns="http://www.w3.org/2000/svg" width="120" height="120" viewBox="0 0 120 120"><path d="M12 0h96c6.628 0 12 5.373 12 12v96c0 6.627-5.372 12-12 12h-96c-6.627 0-12-5.373-12-12v-96c0-6.627 5.373-12 12-12z" fill-rule="evenodd" clip-rule="evenodd" fill="#F2CF5B"/><g fill="#FEFBF0"><path d="M68.641 33.95h27v8h-27v-8zM68.641 46.95h27v8h-27v-8z" fill-rule="evenodd" clip-rule="evenodd"/><path d="M55.722 73.298c-.888.615-2.019.561-2.826-.135-2.734-2.352-5.319-5.164-7.627-8.348-2.32-3.117-4.109-6.422-5.46-9.792-.404-.976-.081-2.037.737-2.664l7.657-5.246c.565-.392 1.015-.942 1.13-1.62.081-.475 0-.837-.139-1.28l-5.889-16.49c-.288-.816-.9-1.409-1.8-1.563-3.795-.3-8.225.198-11.05 2.155-10.01 6.936-7.903 26.824 4.318 43.77 8.193 11.306 19.05 19.923 28.394 21.521 4.568.781 8.813.112 12.123-2.182 2.895-1.945 5.119-6.65 6.029-10.33.149-.881-.208-1.71-.9-2.246l-14.075-10.218s-.692-.537-1.107-.609c-.762-.129-1.442.104-1.949.574l-7.566 4.703z"/></g></svg>