<svg xmlns="http://www.w3.org/2000/svg" width="120" height="120" viewBox="0 0 120 120"><path d="M12 0h96c6.627 0 12 5.373 12 12v96c0 6.627-5.373 11.999-12 11.999h-96c-6.627 0-12-5.372-12-11.999v-96c0-6.627 5.373-12 12-12z" fill-rule="evenodd" clip-rule="evenodd" fill="#FCB95B"/><path d="M85.75 80.61s-.338 5.5-4.479 5.559c-4.984.07-37.644 0-40.917 0-4.09 0-4.415-2.808-5.23-5.559 0 0-4.946-19.615-6.9-23.125-.185-.333-.479.071-1.091.071-2.625 0-4.753-2.127-4.753-4.753 0-2.625 2.128-4.753 4.753-4.753s4.753 2.128 4.753 4.753c0 .811.032 1.364-.325 2.032-.149.279.271.439.577.608 2.023 1.12 4.026 2.421 5.148 2.421 6.865 0 14.949-3.208 20.348-14.531.171-.358.359-.546.127-.67-1.375-.733-2.203-2.412-2.203-4.111 0-2.625 2.128-4.752 4.753-4.752s4.752 2.128 4.752 4.752c0 1.82-1.023 3.401-2.525 4.2-.152.081.033.458.217.846 5.23 11.058 13.451 14.292 20.312 14.292 1.287 0 2.439-.349 4.66-1.346.643-.289.775-.736.723-.807-.598-.795-.336-1.862-.336-2.935 0-2.625 2.129-4.753 4.754-4.753s4.752 2.128 4.752 4.753c0 2.626-2.127 4.753-4.752 4.753-.482 0-.498.114-.936-.019-.088-.026.258-1.103-.15.186-1.694 5.32-6.032 22.888-6.032 22.888z" fill="#FDF6EC"/></svg>