<svg xmlns="http://www.w3.org/2000/svg" width="120" height="120" viewBox="0 0 120 120"><path d="M120 108c0 6.627-5.372 12-12 12h-96c-6.627 0-12-5.373-12-12v-96c0-6.627 5.373-12 12-12h96c6.628 0 12 5.373 12 12v96z" fill-rule="evenodd" clip-rule="evenodd" fill="#34BECD"/><path d="M100 81.196c0-1.786-.771-4.528-3.6-7.143-5.502-5.082-19.683-8.957-16.2-13.393 2.7-3.438 6.3-7.149 6.3-12.5 0-6.225-4.559-14.286-13.5-14.286-8.972 0-13.5 8.06-13.5 14.286 0 5.277 3.532 9.013 6.3 12.5 3.486 4.392-10.83 8.075-16.2 13.393-2.769 2.741-3.6 5.413-3.6 7.143 0 2.512 2.7 2.679 2.7 2.679h48.6s2.7-.111 2.7-2.679z" fill-rule="evenodd" clip-rule="evenodd" fill="#04919B"/><path d="M80 85c0-2-.856-5.072-4-8-6.113-5.691-21.869-10.031-18-15 3-3.851 7-8.007 7-14 0-6.972-5.065-16-15-16-9.969 0-15 9.028-15 16 0 5.911 3.924 10.094 7 14 3.873 4.919-12.033 9.045-18 15-3.076 3.07-4 6.062-4 8 0 2.812 3 3 3 3h54s3-.125 3-3z" fill-rule="evenodd" clip-rule="evenodd" fill="#E3F9FA"/></svg>