<svg xmlns="http://www.w3.org/2000/svg" width="120" height="120" viewBox="0 0 120 120"><path d="M120 108c0 6.627-5.372 12-12 12h-96c-6.627 0-12-5.373-12-12v-96c0-6.628 5.373-12 12-12h96c6.628 0 12 5.372 12 12v96z" fill-rule="evenodd" clip-rule="evenodd" fill="#D7D1D1"/><path d="M60 18c23.196 0 42 18.805 42 42s-18.805 42-42 42c-23.196 0-42-18.805-42-42s18.803-42 42-42z" fill-rule="evenodd" clip-rule="evenodd" fill="#F8F8F8"/><path d="M60 30.501c16.016 0 29 12.983 29 28.999 0 16.018-12.984 29.001-29 29.001s-29-12.983-29-29.001c0-16.016 12.984-28.999 29-28.999z" fill-rule="evenodd" clip-rule="evenodd" fill="#3C343E"/><path d="M59.999 42.501c9.389 0 17 7.611 17 16.999 0 9.389-7.611 17.001-17 17.001s-17-7.612-17-17.001c0-9.388 7.611-16.999 17-16.999z" clip-rule="evenodd" stroke="#373039" stroke-width="2" stroke-miterlimit="10" fill="none"/><path d="M59.999 53.381c3.38 0 6.12 2.741 6.12 6.12 0 3.38-2.74 6.121-6.12 6.121s-6.12-2.74-6.12-6.121c0-3.379 2.74-6.12 6.12-6.12z" fill-rule="evenodd" clip-rule="evenodd" fill="#28212A"/><path d="M60 33.584c10.77 0 19.5 5.629 19.5 12.572s-8.23 8.429-19 8.429-20-1.485-20-8.429c0-6.943 8.73-12.572 19.5-12.572z" fill-rule="evenodd" clip-rule="evenodd" fill="#fff" opacity=".2"/><path d="M101 10h4c2.762 0 5 2.238 5 5v4c0 2.762-2.238 4.999-5 4.999h-4c-2.762 0-5-2.237-5-4.999v-4c0-2.762 2.238-5 5-5z" fill-rule="evenodd" clip-rule="evenodd" fill="#8D888C"/></svg>