<svg xmlns="http://www.w3.org/2000/svg" width="120" height="120" viewBox="0 0 120 120"><path d="M120 108c0 6.628-5.372 12-12 12h-96c-6.627 0-12-5.372-12-12v-96c0-6.628 5.373-12 12-12h96c6.628 0 12 5.372 12 12v96z" fill-rule="evenodd" clip-rule="evenodd" fill="#65CAE4"/><path d="M38.001 21.995h44c10.922 0 18 7.374 18 19.001l-.007 18.956c0 11.423-8.919 19.043-17.993 19.043h-17c-2.192 0-13.052 19-16 19-2.26 0-4 .156-4-4v-15h-8c-9.074 0-17.002-8.027-17.002-19.043l.002-17.957c0-10.813 7.488-20 18-20z" fill-rule="evenodd" clip-rule="evenodd" fill="#F2FCFF"/></svg>