<svg xmlns="http://www.w3.org/2000/svg" width="120" height="120" viewBox="0 0 120 120"><path d="M12 0h96c6.627 0 12 5.373 12 12v96c0 6.628-5.373 11.999-12 11.999h-96c-6.627 0-12-5.371-12-11.999v-96c0-6.627 5.373-12 12-12z" fill-rule="evenodd" clip-rule="evenodd" fill="#F2CF5B"/><path d="M60 19.906c22.143 0 40.094 17.951 40.094 40.094 0 22.144-17.951 40.095-40.094 40.095s-40.094-17.951-40.094-40.095c0-22.143 17.951-40.094 40.094-40.094z" fill-rule="evenodd" clip-rule="evenodd" fill="#FEFBF0"/><path d="M57.707 66.842c-1.118 0-2.05-.853-2.05-1.946.187-6.027 6.768-8.645 9.688-12.236.621-.729.807-1.582.807-2.496 0-1.217-.434-1.946-1.365-2.86-.932-.852-2.235-1.399-3.851-1.399-2.608 0-4.72 2.069-5.216 3.896-.187.912-.994 1.461-1.926 1.461h-4.16c-1.117 0-1.987-.732-1.987-1.827l.062-.487s.125-.305.125-.364c1.366-4.261 5.713-9.191 12.793-9.191 3.912 0 7.017 1.034 9.313 3.165 2.36 2.191 3.665 4.991 3.665 7.853 0 1.644-.561 3.164-1.43 4.565-.806 1.46-2.731 3.347-5.464 5.781-1.242 1.035-2.608 2.374-2.981 4.018 0 1.096-.869 2.069-1.986 2.069h-4.037zm1.862 14.182c-2.422 0-4.533-2.069-4.533-4.443 0-2.375 2.111-4.443 4.533-4.443s4.533 2.068 4.533 4.443c.001 2.374-2.111 4.443-4.533 4.443z" fill="#DB9D0C"/></svg>