<svg xmlns="http://www.w3.org/2000/svg" width="120" height="120" viewBox="0 0 120 120"><path d="M12 0h96c6.628 0 12 5.372 12 12v96c0 6.627-5.372 12-12 12h-96c-6.627 0-12-5.373-12-12v-96c0-6.628 5.373-12 12-12z" fill-rule="evenodd" clip-rule="evenodd" fill="#88C651"/><path d="M79.629 19.976h-39.977l-15.792 26.734v47.317c0 3.484 2.511 5.996 5.998 5.996h60.031c3.486 0 5.998-2.512 5.998-5.996v-48.066l-16.258-25.985zm-19.992 20.68c-2.758 0-4.996-2.238-4.996-4.998s2.237-4.998 4.996-4.998c2.762 0 5 2.238 5 4.998s-2.239 4.998-5 4.998z" fill-rule="evenodd" clip-rule="evenodd" fill="#F5FFED"/><path d="M59.478 24.837c-5.944 0-10.763 4.819-10.763 10.764s4.819 10.763 10.763 10.763c5.945 0 10.764-4.818 10.764-10.763s-4.819-10.764-10.764-10.764zm.158 15.798c-2.758 0-4.996-2.238-4.996-4.998s2.237-4.998 4.996-4.998c2.762 0 5 2.238 5 4.998s-2.239 4.998-5 4.998z" fill-rule="evenodd" clip-rule="evenodd" fill="#D2EABD"/><path d="M37.008 55.006h45.984c2.209 0 4 1.791 4 4v28.002c0 2.21-1.791 4-4 4h-45.984c-2.209 0-4-1.79-4-4v-28.002c0-2.209 1.791-4 4-4z" fill-rule="evenodd" clip-rule="evenodd" fill="#C6EBA7"/><g fill-rule="evenodd" clip-rule="evenodd" fill="#87C550"><path d="M42.008 76.008h36v6.001h-36v-6.001zM42.008 64.009h36v6h-36v-6z"/></g></svg>