<svg xmlns="http://www.w3.org/2000/svg" width="120" height="120" viewBox="0 0 120 120"><path d="M120 108c0 6.627-5.372 12-12 12h-96c-6.627 0-12-5.373-12-12v-96c0-6.627 5.373-12 12-12h96c6.628 0 12 5.373 12 12v96z" fill-rule="evenodd" clip-rule="evenodd" fill="#59BCAB"/><path d="M23.873 24h72c2.209 0 4 1.791 4 4v64c0 2.209-1.791 3.999-4 3.999h-72c-2.209 0-4-1.79-4-3.999v-64c0-2.208 1.791-4 4-4z" fill-rule="evenodd" clip-rule="evenodd" fill="#EFFEFB"/><g fill-rule="evenodd" clip-rule="evenodd" fill="#37B19C"><path d="M47.371 40h39v8h-39v-8zM47.371 56h39v8h-39v-8zM47.371 72h39v8h-39v-8z"/></g><g fill-rule="evenodd" clip-rule="evenodd" fill="#2CA994"><path d="M37.367 39.996c2.204 0 3.99 1.793 3.99 4.004 0 2.212-1.786 4.005-3.99 4.005s-3.991-1.793-3.991-4.005c0-2.211 1.787-4.004 3.991-4.004zM37.367 55.996c2.204 0 3.99 1.793 3.99 4.005 0 2.211-1.786 4.004-3.99 4.004s-3.991-1.793-3.991-4.004c0-2.212 1.787-4.005 3.991-4.005zM37.367 71.996c2.204 0 3.99 1.793 3.99 4.005 0 2.211-1.786 4.004-3.99 4.004s-3.991-1.793-3.991-4.004c0-2.212 1.787-4.005 3.991-4.005z"/></g></svg>