<?xml version="1.0" standalone="no"?>
<!DOCTYPE svg PUBLIC "-//W3C//DTD SVG 1.1//EN" "http://www.w3.org/Graphics/SVG/1.1/DTD/svg11.dtd" >
<svg xmlns="http://www.w3.org/2000/svg">
<metadata></metadata>
<defs>
<font id="proxima_nova_softmedium" horiz-adv-x="1173" >
<font-face units-per-em="2048" ascent="1587" descent="-461" />
<missing-glyph horiz-adv-x="526" />
<glyph unicode="&#xfb01;" horiz-adv-x="1081" d="M18 909q0 33 22 56.5t56 23.5h99v70q0 153 81.5 240t217.5 87q151 0 151 -79q0 -32 -17 -54t-48 -22q-6 0 -24.5 4t-31.5 4q-70 0 -108.5 -46.5t-38.5 -133.5v-70h135q32 0 55 -23t23 -55q0 -34 -22.5 -58t-55.5 -24h-135v-751q0 -37 -26.5 -63.5t-63.5 -26.5 q-39 0 -65.5 25.5t-26.5 64.5v751h-99q-32 0 -55 23t-23 57zM725 1237q0 49 34.5 84t82.5 35q47 0 81.5 -35t34.5 -84q0 -47 -34.5 -82t-81.5 -35t-82 35t-35 82zM752 78v835q0 36 27.5 62t66.5 26q35 0 61.5 -26.5t26.5 -61.5v-835q0 -37 -27 -63.5t-65 -26.5 q-37 0 -63.5 26.5t-26.5 63.5z" />
<glyph unicode="&#xfb02;" horiz-adv-x="1081" d="M18 909q0 33 22 56.5t56 23.5h99v70q0 153 81.5 240t217.5 87q151 0 151 -79q0 -32 -17 -54t-48 -22q-6 0 -24.5 4t-31.5 4q-70 0 -108.5 -46.5t-38.5 -133.5v-70h135q32 0 55 -23t23 -55q0 -34 -22.5 -58t-55.5 -24h-135v-751q0 -37 -26.5 -63.5t-63.5 -26.5 q-39 0 -65.5 25.5t-26.5 64.5v751h-99q-32 0 -55 23t-23 57zM752 78v1212q0 36 27.5 62t66.5 26q35 0 61.5 -26.5t26.5 -61.5v-1212q0 -37 -27 -63.5t-65 -26.5q-37 0 -63.5 26.5t-26.5 63.5z" />
<glyph horiz-adv-x="0" />
<glyph horiz-adv-x="682" />
<glyph horiz-adv-x="0" />
<glyph horiz-adv-x="0" />
<glyph unicode="&#xd;" horiz-adv-x="0" />
<glyph unicode=" "  horiz-adv-x="526" />
<glyph unicode="&#x09;" horiz-adv-x="526" />
<glyph unicode="&#xa0;" horiz-adv-x="526" />
<glyph unicode="!" horiz-adv-x="485" d="M117 106q0 51 37 89t88 38q52 0 89.5 -38t37.5 -89t-37.5 -88.5t-89.5 -37.5q-51 0 -88 37.5t-37 88.5zM133 1270q-2 44 31 76t80 32q45 0 76.5 -31.5t31.5 -76.5q0 -14 -13.5 -390.5t-16.5 -416.5q-2 -33 -24.5 -54.5t-55.5 -21.5q-32 0 -55.5 22t-24.5 54 q-1 24 -8 225.5t-14 389t-7 192.5z" />
<glyph unicode="&#x22;" horiz-adv-x="737" d="M104 1280q0 43 31.5 74.5t75.5 31.5t75 -31.5t31 -74.5q0 -40 -57 -428q-3 -18 -17 -29.5t-34 -11.5q-17 0 -30.5 12t-16.5 29q-58 395 -58 428zM422 1280q0 43 31 74.5t75 31.5t74.5 -31.5t30.5 -74.5q0 -28 -58 -430q-2 -16 -16 -27.5t-35 -11.5q-15 0 -29.5 12 t-15.5 27q-57 395 -57 430z" />
<glyph unicode="#" horiz-adv-x="1224" d="M59 430q0 23 17.5 40t42.5 17h178l127 390h-141q-25 0 -42.5 18t-17.5 45q0 25 17.5 42t42.5 17h184l111 334q6 20 24 32.5t41 12.5q29 0 48.5 -19t19.5 -46q0 -15 -2 -21l-97 -293h215l111 334q7 20 25.5 32.5t40.5 12.5q30 0 48.5 -19t18.5 -46q0 -15 -2 -21l-100 -293 h141q25 0 42 -18t17 -45q0 -25 -17 -42t-42 -17h-180l-131 -390h147q25 0 42.5 -17.5t17.5 -43.5t-17.5 -43.5t-42.5 -17.5h-190l-109 -332q-7 -22 -25 -34.5t-40 -12.5q-30 0 -50 19.5t-20 45.5q0 7 4 23l100 291h-219l-110 -332q-7 -21 -25.5 -34t-40.5 -13 q-30 0 -49.5 20t-19.5 47q0 9 4 21l98 291h-135q-25 0 -42.5 18t-17.5 47zM440 487h215l129 390h-217z" />
<glyph unicode="$" horiz-adv-x="1226" d="M102 211q0 39 27.5 69.5t65.5 30.5q30 0 57 -20q131 -110 301 -133v452q-54 15 -91 26t-86 30.5t-81.5 39t-68 49t-56 63t-34 79.5t-13.5 100q0 158 119 266t311 121v132q0 29 21 49t53 20q29 0 49 -20t20 -49v-136q232 -24 357 -143q24 -24 24 -61q0 -40 -29 -68.5 t-69 -28.5q-26 0 -47 15q-119 85 -236 102v-401q52 -14 91 -26.5t87 -32.5t83 -41.5t70 -52.5t57 -67t35.5 -84t13.5 -104q0 -77 -25 -144.5t-76 -124t-137 -93t-199 -45.5v-127q0 -29 -20 -49.5t-49 -20.5q-32 0 -53 20t-21 50v124q-130 9 -242.5 55t-183.5 118 q-25 25 -25 61zM332 1012q0 -69 56.5 -109t164.5 -72v373q-100 -8 -160.5 -60.5t-60.5 -131.5zM696 158q116 14 173 74.5t57 134.5q0 42 -17 75t-50.5 57t-71 40t-91.5 32v-413z" />
<glyph unicode="%" horiz-adv-x="1511" d="M61 1044q0 147 92.5 244.5t239.5 97.5q149 0 242.5 -97.5t93.5 -244.5q0 -144 -93.5 -238.5t-242.5 -94.5q-148 0 -240 94.5t-92 238.5zM201 1044q0 -93 54 -154t138 -61q86 0 141.5 61t55.5 154q0 98 -55.5 160t-141.5 62q-85 0 -138.5 -62t-53.5 -160zM297 37 q0 12 10 29l823 1290q13 22 44 22q21 0 36 -16t15 -37q0 -16 -6 -25l-826 -1292q-18 -22 -41 -22q-22 0 -38.5 15t-16.5 36zM784 311q0 147 92.5 243.5t239.5 96.5q148 0 242 -97t94 -243q0 -144 -94 -240t-242 -96q-147 0 -239.5 95.5t-92.5 240.5zM922 311 q0 -94 54 -155.5t140 -61.5t141.5 61.5t55.5 155.5q0 97 -55.5 159t-141.5 62t-140 -62t-54 -159z" />
<glyph unicode="&#x26;" horiz-adv-x="1314" d="M68 360q0 76 23.5 139t68 111.5t93 83t114.5 68.5q-101 178 -101 305q0 136 102.5 227.5t254.5 91.5q141 0 231 -73t90 -201q0 -43 -11 -81.5t-26.5 -68.5t-44.5 -59.5t-53.5 -49.5t-65.5 -45t-69 -39.5t-74 -37.5q19 -26 37 -50.5t37.5 -48.5t33 -41t34.5 -41.5 t30 -35.5t33 -37t29.5 -32t32 -35t30.5 -33q65 98 117 235q9 23 30 36.5t46 13.5q34 0 57.5 -24.5t23.5 -55.5q0 -19 -10 -39q-65 -150 -157 -281q20 -23 64.5 -64t66.5 -69.5t22 -54.5q0 -34 -24.5 -60t-61.5 -26q-16 0 -35 9t-43.5 31t-36.5 33t-40 41l-29 31 q-168 -158 -387 -158q-123 0 -219 42t-154.5 130.5t-58.5 212.5zM262 375q0 -115 75.5 -183.5t182.5 -68.5q140 0 262 119q-145 155 -206.5 227.5t-133.5 175.5q-86 -53 -133 -116.5t-47 -153.5zM453 1063q0 -94 75 -221q60 30 98.5 53t77.5 55.5t57.5 70.5t18.5 83 q0 67 -42 105t-107 38q-75 0 -126.5 -52t-51.5 -132z" />
<glyph unicode="'" horiz-adv-x="421" d="M104 1280q0 43 31.5 74.5t75.5 31.5t75 -31.5t31 -74.5q0 -40 -57 -428q-3 -18 -17 -29.5t-34 -11.5q-17 0 -30.5 12t-16.5 29q-58 395 -58 428z" />
<glyph unicode="(" horiz-adv-x="534" d="M88 498q0 229 69 454t195 406q19 28 58 28q32 0 53.5 -22t21.5 -53q0 -16 -6 -31q-95 -190 -143.5 -376.5t-48.5 -405.5q0 -217 48 -402.5t142 -374.5q8 -20 8 -32q0 -29 -22.5 -53.5t-54.5 -24.5q-38 0 -58 29q-124 181 -193 405.5t-69 452.5z" />
<glyph unicode=")" horiz-adv-x="534" d="M49 -311q0 12 8 32q95 188 143 373.5t48 403.5q0 219 -48.5 405t-144.5 377q-6 12 -6 31q0 28 21 51.5t53 23.5q37 0 59 -28q126 -182 195 -406t69 -454t-68.5 -454t-193.5 -404q-20 -29 -57 -29q-33 0 -55.5 24t-22.5 54z" />
<glyph unicode="*" horiz-adv-x="702" d="M72 954q0 29 24 41l174 90l-174 89q-24 12 -24 43q0 21 14 35t35 14q13 0 22 -6l166 -107l-8 197q0 21 14.5 35t38.5 14q19 0 33.5 -14.5t13.5 -34.5l-10 -197l166 104q13 9 25 9q17 0 33 -14.5t16 -37.5q0 -28 -25 -40l-174 -89l172 -90q25 -9 25 -41q0 -22 -13.5 -36.5 t-35.5 -14.5q-17 0 -25 8l-164 105l10 -195q1 -20 -14 -34.5t-37 -14.5q-21 0 -35 14t-14 35l8 195l-166 -105q-8 -8 -22 -8q-18 0 -33.5 14.5t-15.5 36.5z" />
<glyph unicode="+" horiz-adv-x="1024" d="M47 692q0 25 17 42.5t42 17.5h340v366q0 27 20 45.5t50 18.5q26 0 45 -19t19 -45v-366h340q24 0 40.5 -17.5t16.5 -42.5q0 -27 -16 -44t-41 -17h-340v-379q0 -28 -19.5 -47t-48.5 -19q-28 0 -47 19t-19 47v379h-340q-25 0 -42 17t-17 44z" />
<glyph unicode="," horiz-adv-x="485" d="M117 109q0 51 35 87.5t86 36.5q60 0 102.5 -46.5t42.5 -123.5q0 -84 -42 -166t-110 -141q-17 -14 -34 -14q-21 0 -39.5 15t-18.5 38q0 21 17 41q39 33 66.5 77t33.5 83q-8 -4 -31 -4q-48 0 -78 32.5t-30 84.5z" />
<glyph unicode="-" horiz-adv-x="614" d="M49 498q0 32 23 54.5t55 22.5h360q32 0 55 -22.5t23 -54.5q0 -35 -22.5 -58.5t-55.5 -23.5h-360q-33 0 -55.5 23.5t-22.5 58.5z" />
<glyph unicode="." horiz-adv-x="485" d="M117 106q0 51 37 89t88 38q52 0 89.5 -38t37.5 -89q0 -52 -37 -89t-90 -37q-51 0 -88 37t-37 89z" />
<glyph unicode="/" horiz-adv-x="624" d="M18 4q0 6 5 21l452 1357q17 45 64 45q27 0 46 -20t19 -45q0 -15 -2 -21l-455 -1357q-12 -45 -61 -45q-29 0 -48.5 19t-19.5 46z" />
<glyph unicode="0" horiz-adv-x="1257" d="M94 682q0 104 19 203t61 190.5t102.5 160t151.5 109.5t201 41q109 0 199.5 -41t151.5 -109.5t103 -160t61 -190.5t19 -203t-19 -203.5t-61 -191.5t-103 -161t-151.5 -110t-199.5 -41q-110 0 -201 41.5t-151.5 110t-102.5 160.5t-61 191.5t-19 203.5zM301 682 q0 -105 17.5 -195.5t54.5 -166.5t102.5 -120t153.5 -44q87 0 152.5 44t102.5 120t54.5 166.5t17.5 195.5q0 83 -10.5 157t-35 142t-61.5 117.5t-93.5 78.5t-126.5 29q-88 0 -153.5 -43.5t-102.5 -119.5t-54.5 -166t-17.5 -195z" />
<glyph unicode="1" horiz-adv-x="733" d="M61 981q0 33 25 61l297 301q29 33 82 33q47 0 82 -33t35 -79v-1176q0 -41 -30 -70.5t-73 -29.5q-41 0 -70.5 29.5t-29.5 70.5v1012l-174 -180q-25 -25 -58 -25t-59.5 25t-26.5 61z" />
<glyph unicode="2" horiz-adv-x="1210" d="M90 98q0 49 39 80q198 151 321.5 254t222 203.5t141 181.5t42.5 158q0 112 -79 171.5t-189 59.5q-188 0 -318 -114q-23 -23 -57 -23q-36 0 -64 26.5t-28 63.5q0 32 20 55q73 81 194 126.5t251 45.5q93 0 177.5 -26.5t151.5 -76.5t106.5 -129.5t39.5 -178.5 q0 -78 -31 -158t-82.5 -152.5t-135.5 -157t-171.5 -158.5t-210.5 -169h563q36 0 62 -26t26 -62q0 -39 -25.5 -65.5t-62.5 -26.5h-809q-38 0 -66 28t-28 70z" />
<glyph unicode="3" horiz-adv-x="1157" d="M74 207q0 36 27 64t63 28q32 0 55 -20q142 -123 330 -123q141 0 222 62.5t81 170.5q0 219 -324 219q-33 -2 -57 0t-49.5 10.5t-39 29t-13.5 52.5q0 37 25 62.5t63 25.5q82 -1 143.5 7t116 29t83.5 63t29 104q0 102 -83 158.5t-209 56.5q-173 0 -306 -112q-22 -19 -51 -19 q-33 0 -60.5 25t-27.5 61q0 38 27 62q178 163 436 163q212 0 344.5 -98t132.5 -268q0 -68 -27 -125t-71.5 -95t-94.5 -61.5t-104 -33.5q51 -5 104.5 -28t102.5 -62.5t80 -103t31 -140.5q0 -174 -135.5 -285t-362.5 -111q-144 0 -268.5 50.5t-192.5 130.5q-20 20 -20 51z" />
<glyph unicode="4" horiz-adv-x="1163" d="M49 440q0 31 21 66l522 792q25 37 65 58.5t84 21.5q69 5 121.5 -39t52.5 -110v-721h113q35 0 60.5 -26.5t25.5 -63.5t-25.5 -62.5t-60.5 -25.5h-113v-242q0 -42 -30 -71t-74 -29q-41 0 -69.5 29.5t-28.5 70.5v242h-561q-41 0 -72 31t-31 79zM262 508h451v674z" />
<glyph unicode="5" horiz-adv-x="1218" d="M150 201q0 35 26.5 64.5t63.5 29.5q33 0 59 -23q131 -116 319 -116q133 0 216.5 76t83.5 192q0 122 -81 196t-214 74q-154 0 -269 -90q-45 -29 -82 -29q-43 0 -73.5 29.5t-30.5 71.5v557q0 55 39.5 94t95.5 39h653q37 0 62.5 -26.5t25.5 -65.5q0 -36 -26 -62t-62 -26 h-585v-436q53 53 136 86.5t179 33.5q86 0 164 -29.5t138 -84t96 -139t36 -185.5q0 -209 -140 -333t-362 -124q-145 0 -262.5 44t-187.5 126q-18 24 -18 56z" />
<glyph unicode="6" horiz-adv-x="1220" d="M94 680q0 116 22.5 220.5t69.5 193.5t114.5 154t162.5 101.5t209 36.5q234 0 350 -131q18 -21 18 -51q0 -38 -27 -64t-63 -26q-31 0 -53 16q-92 76 -225 76q-89 0 -161.5 -41.5t-118 -111t-69.5 -157.5t-24 -185q0 -31 2 -47q49 79 153.5 140.5t223.5 61.5 q194 0 322 -114.5t128 -323.5q0 -92 -34.5 -174.5t-96.5 -144.5t-155 -98t-203 -36q-114 0 -206.5 37.5t-154.5 102.5t-104 155t-61 192.5t-19 217.5zM303 508q6 -65 27 -123.5t58 -112t99 -85t142 -31.5q71 0 129 24t93 63t54 84.5t19 92.5q0 133 -84 202.5t-215 69.5 q-92 0 -179 -50.5t-143 -133.5z" />
<glyph unicode="7" horiz-adv-x="1071" d="M47 1278q0 37 25.5 62.5t62.5 25.5h797q36 0 66 -28t30 -70q0 -17 -8 -37l-528 -1184q-12 -27 -37.5 -43t-55.5 -16q-44 0 -74 30t-30 70q0 19 10 39l477 1059h-647q-37 0 -62.5 27t-25.5 65z" />
<glyph unicode="8" horiz-adv-x="1204" d="M96 348q0 126 91 220t227 137q-130 39 -212.5 120.5t-82.5 204.5q0 73 28 133t75 100.5t109.5 69t130.5 41t140 12.5q91 0 175 -21t154.5 -62.5t113 -112t42.5 -160.5q0 -123 -83 -204.5t-213 -120.5q136 -43 226.5 -137t90.5 -220q0 -115 -70 -201.5t-183.5 -129 t-252.5 -42.5t-252.5 42.5t-183.5 128.5t-70 202zM301 371q0 -97 87.5 -157t213.5 -60q124 0 212.5 60t88.5 157q0 46 -23.5 86t-58 66t-77.5 46.5t-78 30.5t-64 14q-29 -4 -64 -14t-78 -30.5t-77.5 -46.5t-58 -66t-23.5 -86zM324 1001q0 -42 21.5 -77.5t52 -58t71.5 -40 t72 -26t61 -13.5q40 7 80.5 20t89 37t79 65t30.5 93q0 96 -79 151.5t-200 55.5q-122 0 -200 -55.5t-78 -151.5z" />
<glyph unicode="9" horiz-adv-x="1220" d="M90 936q0 190 135.5 321.5t356.5 131.5q114 0 205.5 -37.5t153.5 -102.5t104 -155t60.5 -192.5t18.5 -217.5q0 -116 -22.5 -220.5t-69 -194t-114 -154t-162.5 -101.5t-209 -37q-230 0 -350 129q-21 24 -21 54q0 37 28 63.5t64 26.5q30 0 54 -17q91 -75 225 -75 q90 0 162.5 41.5t117.5 111t69 157.5t24 185q0 31 -2 47q-49 -79 -153.5 -140.5t-223.5 -61.5q-93 0 -174 28t-143.5 81.5t-98 138t-35.5 190.5zM295 944q0 -133 84 -202.5t215 -69.5q93 0 178.5 50t142.5 134q-6 64 -26 123t-56.5 112t-99.5 85t-143 32q-71 0 -129 -24 t-93 -63t-54 -84.5t-19 -92.5z" />
<glyph unicode=":" horiz-adv-x="483" d="M117 106q0 51 37 89t88 38q52 0 89.5 -38t37.5 -89q0 -52 -37 -89t-90 -37q-51 0 -88 37t-37 89zM117 877q0 52 37 89.5t88 37.5q52 0 89.5 -37t37.5 -90t-37.5 -90t-89.5 -37q-51 0 -88 37.5t-37 89.5z" />
<glyph unicode=";" horiz-adv-x="485" d="M117 111q0 51 35 88t86 37q60 0 102.5 -46t42.5 -124q0 -84 -42 -166.5t-110 -141.5q-15 -12 -34 -12q-21 0 -39.5 14.5t-18.5 36.5q0 24 17 41q39 35 66.5 78.5t33.5 83.5q-8 -4 -31 -4q-47 0 -77.5 32t-30.5 83zM117 877q0 52 37 89.5t88 37.5q52 0 89.5 -37t37.5 -90 q0 -51 -37.5 -89t-89.5 -38q-51 0 -88 38t-37 89z" />
<glyph unicode="&#x3c;" horiz-adv-x="1024" d="M47 688q0 25 14 47.5t37 32.5l785 381q10 4 28 4q25 0 45.5 -18.5t20.5 -47.5q0 -41 -37 -57l-735 -346l735 -344q17 -6 27 -22t10 -35q0 -29 -21 -47.5t-45 -18.5q-14 0 -26 6l-787 379q-23 11 -37 34t-14 52z" />
<glyph unicode="=" horiz-adv-x="1024" d="M47 489q0 25 16.5 41.5t40.5 16.5h816q25 0 41 -16.5t16 -41.5q0 -28 -16 -45.5t-41 -17.5h-816q-24 0 -40.5 18t-16.5 45zM47 883q0 23 18 41t41 18h814q23 0 40 -18t17 -41q0 -27 -16.5 -45.5t-40.5 -18.5h-814q-24 0 -41.5 18.5t-17.5 45.5z" />
<glyph unicode="&#x3e;" horiz-adv-x="1024" d="M45 1087q0 28 20.5 47t47.5 19q18 0 26 -4l787 -381q23 -10 37 -32.5t14 -47.5q0 -29 -14 -52t-37 -34l-789 -379q-12 -6 -26 -6q-23 0 -43.5 19t-20.5 47q0 45 35 57l735 344l-733 346q-39 16 -39 57z" />
<glyph unicode="?" horiz-adv-x="942" d="M57 1169q0 32 19 54q66 78 173.5 120.5t227.5 42.5q186 0 297 -90.5t111 -228.5q0 -62 -21 -114.5t-54.5 -89.5t-74.5 -69t-81.5 -60t-74 -55.5t-54.5 -62t-21 -73.5q0 -15 10 -41t10 -41q0 -31 -22.5 -54.5t-57.5 -23.5q-54 0 -86 59.5t-32 116.5q0 52 19.5 96.5t50 76 t68 60t75 55t68 53.5t50 61.5t19.5 74.5q0 74 -56 122t-163 48q-147 0 -254 -102q-26 -23 -60 -23t-60 26t-26 62zM334 106q0 51 37.5 89t89.5 38q51 0 89 -38t38 -89q0 -52 -38 -89t-89 -37q-53 0 -90 37t-37 89z" />
<glyph unicode="@" horiz-adv-x="1603" d="M72 500q0 215 114 402t301.5 296t397.5 109q143 0 264.5 -51t204.5 -138t129.5 -204.5t46.5 -249.5q0 -118 -33 -214t-86.5 -154.5t-118 -90t-131.5 -31.5q-84 0 -133.5 48.5t-54.5 119.5q-58 -74 -143.5 -121t-176.5 -47q-143 0 -228 92.5t-85 243.5q0 103 40.5 199 t106.5 164t152.5 108.5t175.5 40.5q93 0 161 -43t101 -111l15 74q6 27 28 44.5t49 17.5q35 0 58.5 -22.5t23.5 -53.5q0 -3 -1 -9t-1 -8l-96 -460q-4 -24 -4 -45q0 -49 25 -76t65 -27q26 0 53 11t56 38.5t52 67.5t37.5 103.5t14.5 140.5q0 251 -159 411t-416 160 q-144 0 -280 -61t-235 -160.5t-159 -234t-60 -275.5q0 -162 75.5 -294.5t210 -208t300.5 -75.5q192 0 361 105q8 4 16 4q12 0 23.5 -10.5t11.5 -24.5q0 -18 -13 -25q-188 -118 -407 -118q-183 0 -332 85t-233 232t-84 326zM510 522q0 -96 53.5 -155.5t145.5 -59.5 q164 0 284 170l58 273q-21 53 -72.5 96t-126.5 43q-142 0 -242 -112.5t-100 -254.5z" />
<glyph unicode="A" horiz-adv-x="1361" d="M57 96q0 18 6 39l453 1135q19 49 63.5 78.5t98.5 29.5h7q50 0 93 -28q46 -30 66 -80l452 -1135q9 -21 9 -39q0 -41 -31 -74.5t-78 -33.5q-33 0 -59.5 17.5t-38.5 47.5l-90 232h-654l-90 -232q-12 -30 -38.5 -47.5t-59.5 -17.5q-46 0 -77.5 32.5t-31.5 75.5zM412 463h538 l-270 696z" />
<glyph unicode="B" horiz-adv-x="1306" d="M154 133v1100q0 55 39 94t94 39h504q179 0 283 -97.5t104 -250.5q0 -123 -69.5 -207.5t-170.5 -105.5q110 -17 188 -115t78 -221q0 -165 -105.5 -267t-291.5 -102h-520q-55 0 -94 39t-39 94zM356 178h406q110 0 171.5 57.5t61.5 157.5q0 91 -61.5 153t-171.5 62h-406 v-430zM356 786h398q100 0 157.5 56t57.5 145q0 88 -57.5 144.5t-157.5 56.5h-398v-402z" />
<glyph unicode="C" horiz-adv-x="1390" d="M94 682q0 154 55.5 287t151 224.5t226 143.5t278.5 52q287 0 467 -203q24 -27 24 -66q0 -38 -28 -66t-68 -28q-47 0 -70 33q-60 69 -147.5 109t-177.5 40q-216 0 -358 -148.5t-142 -377.5q0 -228 142 -377t358 -149q91 0 176.5 38.5t148.5 108.5q26 33 72 33 q39 0 66.5 -28.5t27.5 -65.5q0 -40 -24 -64q-187 -203 -467 -203q-148 0 -278.5 52t-226 143.5t-151 224.5t-55.5 287z" />
<glyph unicode="D" horiz-adv-x="1443" d="M154 133v1100q0 55 39 94t94 39h352q157 0 289.5 -52t224 -142.5t142.5 -217t51 -272.5q0 -147 -51 -273t-142.5 -216.5t-224 -141.5t-289.5 -51h-352q-55 0 -94 39t-39 94zM356 180h283q153 0 268.5 68.5t173.5 181.5t58 252q0 143 -56.5 255.5t-171.5 180.5t-272 68 h-283v-1006z" />
<glyph unicode="E" d="M154 133v1100q0 55 39 94t94 39h704q37 0 62.5 -26.5t25.5 -65.5q0 -36 -26 -62t-62 -26h-635v-400h621q37 0 62.5 -26.5t25.5 -65.5q0 -36 -26 -62t-62 -26h-621v-426h635q36 0 62 -26t26 -62q0 -39 -25.5 -65.5t-62.5 -26.5h-704q-55 0 -94 39t-39 94z" />
<glyph unicode="F" horiz-adv-x="1138" d="M154 88v1145q0 55 39 94t94 39h704q37 0 62.5 -26.5t25.5 -65.5q0 -36 -26 -62t-62 -26h-635v-400h621q37 0 62.5 -26.5t25.5 -65.5q0 -36 -26 -62t-62 -26h-621v-518q0 -41 -29.5 -70.5t-72.5 -29.5q-41 0 -70.5 29.5t-29.5 70.5z" />
<glyph unicode="G" horiz-adv-x="1464" d="M94 682q0 156 56 289.5t152 224.5t226 142t277 51q285 0 473 -191q25 -22 25 -65q0 -38 -27.5 -66.5t-65.5 -28.5q-39 0 -67 31q-63 65 -153 102t-185 37q-216 0 -358 -148.5t-142 -377.5q0 -228 142 -378t358 -150q104 0 196 41t150 96v248h-365q-37 0 -62.5 26 t-25.5 64q0 37 25.5 62.5t62.5 25.5h433q56 0 95.5 -39t39.5 -94v-260q0 -105 -86 -187.5t-210 -123t-253 -40.5q-146 0 -276.5 51.5t-226.5 142.5t-152 225t-56 290z" />
<glyph unicode="H" horiz-adv-x="1468" d="M154 88v1192q0 40 30 69t74 29q40 0 69 -29t29 -69v-487h756v487q0 40 31 69t76 29q40 0 69 -29t29 -69v-1192q0 -41 -30 -70.5t-73 -29.5t-72.5 29.5t-29.5 70.5v524h-756v-524q0 -41 -29.5 -70.5t-72.5 -29.5q-41 0 -70.5 29.5t-29.5 70.5z" />
<glyph unicode="I" horiz-adv-x="507" d="M154 88v1192q0 40 30 69t74 29q40 0 69 -29t29 -69v-1192q0 -41 -29.5 -70.5t-72.5 -29.5q-41 0 -70.5 29.5t-29.5 70.5z" />
<glyph unicode="J" horiz-adv-x="978" d="M39 147q0 37 27 65t63 28q27 0 43 -13q93 -71 193 -71q118 0 188 73.5t70 194.5v856q0 40 30 69t74 29q40 0 69 -29t29 -69v-858q0 -220 -123 -333.5t-323 -113.5q-209 0 -318 117q-22 19 -22 55z" />
<glyph unicode="K" horiz-adv-x="1249" d="M154 88v1192q0 40 30 69t74 29q40 0 69 -29t29 -69v-594l551 657q26 33 72 33q40 0 70 -27.5t30 -66.5q0 -35 -22 -57l-441 -506l490 -578q22 -25 22 -57q0 -37 -28.5 -67.5t-69.5 -30.5q-46 0 -76 37l-469 573l-129 -147v-361q0 -41 -29.5 -70.5t-72.5 -29.5 q-41 0 -70.5 29.5t-29.5 70.5z" />
<glyph unicode="L" horiz-adv-x="1050" d="M154 133v1147q0 40 30 69t74 29q40 0 69 -29t29 -69v-1100h543q36 0 62 -26t26 -62q0 -39 -25.5 -65.5t-62.5 -26.5h-612q-55 0 -94 39t-39 94z" />
<glyph unicode="M" horiz-adv-x="1681" d="M154 88v1141q0 59 43 102t104 43h13q54 0 96 -22q48 -26 69 -78l361 -881l362 881q19 45 60.5 72.5t91.5 27.5h10q66 0 114 -38q52 -41 52 -107v-1141q0 -41 -30 -70.5t-73 -29.5t-72.5 29.5t-29.5 70.5v991l-434 -1059q-14 -32 -53 -32q-15 0 -29.5 9.5t-20.5 22.5 l-432 1059v-991q0 -41 -29.5 -70.5t-72.5 -29.5q-41 0 -70.5 29.5t-29.5 70.5z" />
<glyph unicode="N" horiz-adv-x="1462" d="M154 88v1165q0 51 37.5 88t93.5 37q69 0 108 -55l713 -969v926q0 40 30 69t74 29q40 0 69.5 -29t29.5 -69v-1176q0 -46 -35.5 -81t-87.5 -35q-65 0 -101 51l-729 997v-948q0 -41 -29.5 -70.5t-72.5 -29.5q-41 0 -70.5 29.5t-29.5 70.5z" />
<glyph unicode="O" horiz-adv-x="1566" d="M94 682q0 201 86 362t243.5 253t358.5 92q150 0 278.5 -53.5t218 -147.5t140.5 -224.5t51 -281.5t-51 -281.5t-140.5 -224.5t-218 -147.5t-278.5 -53.5q-201 0 -358.5 92t-243.5 253t-86 362zM305 682q0 -230 130.5 -378t346.5 -148q215 0 347.5 148.5t132.5 377.5 q0 230 -132 378t-348 148q-144 0 -253 -68.5t-166.5 -187.5t-57.5 -270z" />
<glyph unicode="P" horiz-adv-x="1222" d="M154 88v1145q0 55 39 94t94 39h440q203 0 319.5 -121t116.5 -299q0 -177 -118 -298.5t-318 -121.5h-371v-438q0 -41 -29.5 -70.5t-72.5 -29.5q-41 0 -70.5 29.5t-29.5 70.5zM356 707h344q112 0 183 66.5t71 172.5q0 107 -70.5 173.5t-183.5 66.5h-344v-479z" />
<glyph unicode="Q" horiz-adv-x="1566" d="M94 682q0 201 86 362t243.5 253t358.5 92q150 0 278.5 -53.5t218 -147.5t140.5 -224.5t51 -281.5q0 -149 -48.5 -276.5t-137.5 -221.5l70 -75q20 -23 20 -58q0 -38 -26.5 -66t-65.5 -28q-43 0 -68 31l-75 80q-158 -93 -357 -93q-201 0 -358.5 92t-243.5 253t-86 362z M305 682q0 -230 130.5 -378t346.5 -148q125 0 230 57l-131 143q-23 23 -23 58t27 64.5t65 29.5q40 0 68 -31l133 -145q111 146 111 350q0 230 -132 378t-348 148q-144 0 -253 -68.5t-166.5 -187.5t-57.5 -270z" />
<glyph unicode="R" horiz-adv-x="1263" d="M154 88v1145q0 55 39 94t94 39h440q195 0 315.5 -115t120.5 -305q0 -88 -28 -161.5t-76 -121.5t-108 -77.5t-128 -38.5l264 -410q15 -27 15 -51q0 -38 -29 -68t-72 -30q-54 0 -81 47l-308 491h-256v-438q0 -41 -29.5 -70.5t-72.5 -29.5q-41 0 -70.5 29.5t-29.5 70.5z M356 705h344q113 0 183.5 67t70.5 174t-70.5 173.5t-183.5 66.5h-344v-481z" />
<glyph unicode="S" horiz-adv-x="1208" d="M92 211q0 40 27 70t67 30q34 0 58 -18q163 -139 370 -139q79 0 139.5 19.5t93.5 51.5t49.5 68t16.5 74q0 52 -27.5 90.5t-74 63t-106.5 44t-126.5 36.5t-133 36.5t-126.5 49t-106.5 69t-74 101t-27.5 140.5q0 169 135.5 279t347.5 110q130 0 250.5 -39t195.5 -108 q27 -24 27 -63q0 -38 -29 -66.5t-67 -28.5q-31 0 -56 19q-146 108 -337 108q-116 0 -187.5 -54t-71.5 -142q0 -45 27.5 -79t74 -55.5t106.5 -39.5t126.5 -35.5t133.5 -38t127 -52t106.5 -73t74 -106t27.5 -146.5q0 -83 -29.5 -155t-89.5 -130.5t-162 -92.5t-235 -34 q-149 0 -278.5 46.5t-210.5 125.5q-25 28 -25 64z" />
<glyph unicode="T" d="M49 1278q0 37 25.5 62.5t62.5 25.5h899q37 0 62.5 -26.5t25.5 -65.5q0 -36 -26 -62t-62 -26h-348v-1098q0 -41 -29.5 -70.5t-72.5 -29.5q-41 0 -71 29.5t-30 70.5v1098h-348q-37 0 -62.5 27t-25.5 65z" />
<glyph unicode="U" horiz-adv-x="1452" d="M154 535v745q0 40 30 69t74 29q40 0 69 -29t29 -69v-739q0 -180 96 -282.5t275 -102.5q178 0 273.5 102.5t95.5 282.5v739q0 41 29.5 69.5t74.5 28.5q41 0 69.5 -29t28.5 -69v-743q0 -262 -146 -412t-425 -150q-280 0 -426.5 150.5t-146.5 409.5z" />
<glyph unicode="V" horiz-adv-x="1361" d="M55 1272q0 39 32 72.5t79 33.5q32 0 59 -18t39 -49l416 -1090l418 1090q10 31 37 49t61 18q46 0 77.5 -32t31.5 -74q0 -18 -7 -39l-452 -1137q-20 -49 -64 -78.5t-96 -29.5h-10q-53 0 -97 29.5t-63 78.5l-453 1137q-8 16 -8 39z" />
<glyph unicode="W" horiz-adv-x="1826" d="M51 1278q0 42 29.5 73t77.5 31q36 0 66.5 -23t39.5 -59l268 -1032l283 1035q7 34 35 54.5t65 20.5q34 0 62 -21t37 -54l280 -1035l269 1032q7 35 37 57.5t67 22.5q47 0 78 -30t31 -72q0 -13 -4 -29l-332 -1161q-12 -44 -49.5 -72t-83.5 -28h-4q-45 0 -81.5 28.5 t-47.5 71.5l-261 969l-262 -969q-12 -44 -48.5 -72t-82.5 -28h-4q-47 0 -82.5 27.5t-46.5 70.5l-332 1163q-4 20 -4 29z" />
<glyph unicode="X" horiz-adv-x="1343" d="M102 84q0 28 19 57l418 559l-387 527q-19 25 -19 53q0 37 28 67.5t70 30.5q47 0 80 -41l361 -497l360 497q24 41 78 41q39 0 69.5 -29t30.5 -69q0 -28 -18 -55l-387 -523l418 -561q16 -21 16 -55q0 -40 -28 -70t-70 -30q-48 0 -76 39l-393 534l-396 -534q-25 -39 -75 -39 q-41 0 -70 28t-29 70z" />
<glyph unicode="Y" horiz-adv-x="1292" d="M86 1282q0 37 27 66.5t69 29.5q55 0 84 -43l381 -581l379 579q12 20 34 31.5t46 11.5q41 0 69.5 -28.5t28.5 -65.5q0 -29 -14 -51l-442 -658v-485q0 -42 -29.5 -71t-73.5 -29q-41 0 -69.5 29.5t-28.5 70.5v485l-445 660q-16 22 -16 49z" />
<glyph unicode="Z" horiz-adv-x="1202" d="M82 1278q0 36 26 62t62 26h827q41 0 73 -32.5t32 -80.5q0 -36 -23 -69l-723 -1004h674q36 0 62 -26t26 -62q0 -39 -25.5 -65.5t-62.5 -26.5h-840q-41 0 -73.5 32.5t-32.5 80.5q0 39 22 67l723 1006h-659q-36 0 -62 27t-26 65z" />
<glyph unicode="[" horiz-adv-x="518" d="M86 -256v1511q0 56 39 95t94 39h215q25 0 43.5 -19.5t18.5 -46.5q0 -26 -18.5 -44.5t-43.5 -18.5h-211v-1520h211q25 0 43.5 -19t18.5 -45q0 -27 -18.5 -46t-43.5 -19h-215q-55 0 -94 38.5t-39 94.5z" />
<glyph unicode="\" horiz-adv-x="624" d="M18 1360q0 26 20 46.5t48 20.5q21 0 38 -12.5t23 -32.5l455 -1357q2 -6 2 -21q0 -25 -18.5 -45t-46.5 -20q-21 0 -39 12t-25 33l-452 1357q-5 15 -5 19z" />
<glyph unicode="]" horiz-adv-x="518" d="M23 -324q0 26 18.5 45t44.5 19h209v1520h-209q-27 0 -45 19t-18 48q0 25 18.5 43.5t44.5 18.5h213q55 0 94 -39t39 -95v-1511q0 -56 -39 -94.5t-94 -38.5h-213q-26 0 -44.5 18.5t-18.5 46.5z" />
<glyph unicode="^" horiz-adv-x="888" d="M72 733q0 14 6 29l280 561q27 55 91 55q26 0 50 -15t36 -40l278 -561q6 -12 6 -29q0 -24 -19 -44.5t-48 -20.5q-41 0 -56 34l-252 533l-249 -533q-15 -34 -56 -34q-28 0 -47.5 19.5t-19.5 45.5z" />
<glyph unicode="_" horiz-adv-x="1155" d="M-18 -145q0 26 18.5 44.5t44.5 18.5h1067q25 0 43.5 -18.5t18.5 -44.5q0 -27 -18.5 -46.5t-43.5 -19.5h-1067q-26 0 -44.5 19t-18.5 47z" />
<glyph unicode="`" horiz-adv-x="477" d="M84 1386q0 22 18.5 40t42.5 18t41 -17l224 -219q12 -15 12 -32q0 -20 -14 -35t-35 -15q-15 0 -31 13l-240 207q-18 15 -18 40z" />
<glyph unicode="a" horiz-adv-x="1087" d="M90 303q0 80 30.5 144t80.5 102t109.5 58t123.5 20q210 0 326 -131v166q0 92 -67.5 145t-174.5 53q-136 0 -248 -86q-22 -16 -45 -16q-29 0 -52 20t-23 51q0 27 18 48q67 67 169 102t208 35q83 0 152.5 -19t125.5 -58t87.5 -107.5t31.5 -159.5v-592q0 -37 -27 -63.5 t-65 -26.5h-6q-31 0 -57.5 24.5t-26.5 65.5v33q-124 -136 -326 -136q-63 0 -123 21.5t-110 61t-80.5 103.5t-30.5 142zM274 299q0 -86 65 -140.5t165 -54.5q79 0 147.5 29t108.5 84v168q-40 56 -108.5 85.5t-147.5 29.5q-100 0 -165 -56t-65 -145z" />
<glyph unicode="b" horiz-adv-x="1183" d="M147 78v1212q0 36 28 62t67 26q35 0 61.5 -26.5t26.5 -61.5v-444q61 80 144.5 124t180.5 44q194 0 317.5 -142.5t123.5 -377.5q0 -239 -122.5 -379t-318.5 -140q-97 0 -182.5 45t-142.5 121v-63q0 -37 -27 -63.5t-65 -26.5q-37 0 -64 26.5t-27 63.5zM330 281 q37 -61 114.5 -102.5t159.5 -41.5q139 0 220 99.5t81 257.5t-81 258t-220 100q-81 0 -158.5 -42.5t-115.5 -104.5v-424z" />
<glyph unicode="c" horiz-adv-x="1015" d="M88 496q0 223 140.5 370.5t361.5 147.5q216 0 330 -131q14 -17 14 -43q0 -34 -25 -58t-59 -24q-32 0 -57 22q-81 72 -193 72q-146 0 -235 -99.5t-89 -256.5t89 -258t235 -101q110 0 193 74q24 18 57 18q34 0 60 -22.5t26 -56.5q0 -32 -25 -54q-124 -121 -321 -121 q-221 0 -361.5 148t-140.5 373z" />
<glyph unicode="d" horiz-adv-x="1183" d="M88 494q0 236 122.5 378t317.5 142q96 0 181 -44t145 -124v444q0 36 27.5 62t66.5 26q35 0 61.5 -26.5t26.5 -61.5v-1212q0 -37 -27 -63.5t-65 -26.5q-37 0 -63.5 26.5t-26.5 63.5v63q-59 -76 -144 -121t-182 -45q-195 0 -317.5 140t-122.5 379zM276 494 q0 -158 81.5 -257.5t217.5 -99.5q85 0 162.5 41.5t116.5 104.5v422q-40 62 -117.5 104.5t-161.5 42.5q-136 0 -217.5 -100t-81.5 -258z" />
<glyph unicode="e" horiz-adv-x="1146" d="M88 496q0 142 63 260.5t176.5 188t254.5 69.5q176 0 296 -100.5t164 -270.5q19 -78 19 -115t-28 -64.5t-66 -27.5h-688q11 -133 101.5 -223t235.5 -90q135 0 246 82q20 10 41 11q27 0 50.5 -21.5t23.5 -53.5q0 -39 -41 -72.5t-102 -53t-123.5 -30t-112.5 -10.5 q-223 0 -366.5 144.5t-143.5 376.5zM279 565h606q-2 52 -20.5 103.5t-53.5 96.5t-95.5 73t-135.5 28q-71 0 -128.5 -27.5t-93.5 -72t-56 -96.5t-23 -105z" />
<glyph unicode="f" horiz-adv-x="604" d="M18 911q0 32 23 55t55 23h99v70q0 153 81 240t218 87q77 0 141.5 -26t64.5 -74q0 -32 -20.5 -52t-48.5 -20q-15 0 -49.5 12.5t-57.5 12.5q-71 0 -109 -46.5t-38 -133.5v-70h135q33 0 55.5 -23.5t22.5 -58.5q0 -32 -23 -55t-55 -23h-135v-751q0 -37 -27 -63.5t-65 -26.5 q-37 0 -63.5 26.5t-26.5 63.5v751h-99q-33 0 -55.5 23.5t-22.5 58.5z" />
<glyph unicode="g" horiz-adv-x="1181" d="M88 502q0 236 121.5 374t316.5 138q97 0 181 -44t145 -124v67q0 36 27.5 62t66.5 26q35 0 61.5 -26.5t26.5 -61.5v-874q0 -99 -28 -176t-73.5 -126t-110 -80.5t-132 -44.5t-143.5 -13q-250 0 -375 120q-20 20 -20 52t23 54.5t54 22.5q27 0 47 -14q104 -86 271 -86 q61 0 113.5 15.5t96.5 47.5t69.5 89t25.5 133v131q-58 -78 -143 -125t-183 -47q-195 0 -316.5 136.5t-121.5 373.5zM276 502q0 -154 81.5 -251t217.5 -97q82 0 159.5 43.5t117.5 105.5v402q-39 62 -117 104.5t-160 42.5q-137 0 -218 -96.5t-81 -253.5z" />
<glyph unicode="h" horiz-adv-x="1146" d="M147 78v1212q0 36 28 62t67 26q35 0 61.5 -26.5t26.5 -61.5v-440q57 68 151 116t201 48q317 0 317 -314v-622q0 -37 -27 -63.5t-65 -26.5q-37 0 -63.5 26.5t-26.5 63.5v561q0 116 -55 164.5t-158 48.5q-82 0 -156 -42t-118 -103v-629q0 -37 -27 -63.5t-65 -26.5 q-37 0 -64 26.5t-27 63.5z" />
<glyph unicode="i" horiz-adv-x="477" d="M121 1237q0 49 34.5 84t82.5 35q49 0 82.5 -34.5t33.5 -84.5q0 -48 -33.5 -82.5t-82.5 -34.5q-47 0 -82 35t-35 82zM147 78v835q0 36 28 62t67 26q35 0 61.5 -26.5t26.5 -61.5v-835q0 -37 -27 -63.5t-65 -26.5q-37 0 -64 26.5t-27 63.5z" />
<glyph unicode="j" horiz-adv-x="477" d="M-197 -297q0 30 23 52t53 22q14 0 50.5 -14.5t64.5 -14.5q70 0 111.5 43.5t41.5 130.5v991q0 36 28 62t67 26q35 0 61.5 -26.5t26.5 -61.5v-991q0 -153 -80 -238t-230 -85q-91 0 -154 26t-63 78zM121 1237q0 49 34.5 84t82.5 35q49 0 82.5 -34.5t33.5 -84.5 q0 -47 -34.5 -82t-81.5 -35t-82 35t-35 82z" />
<glyph unicode="k" horiz-adv-x="1064" d="M147 78v1212q0 36 28 62t67 26q35 0 61.5 -26.5t26.5 -61.5v-805l467 492q27 27 59 27q34 0 60 -26t26 -60q0 -31 -22 -56l-308 -321l326 -410q18 -21 18 -53q0 -35 -25.5 -63.5t-64.5 -28.5q-47 0 -71 37l-314 405l-151 -154v-196q0 -37 -27 -63.5t-65 -26.5 q-37 0 -64 26.5t-27 63.5z" />
<glyph unicode="l" horiz-adv-x="477" d="M147 78v1212q0 36 28 62t67 26q35 0 61.5 -26.5t26.5 -61.5v-1212q0 -37 -27 -63.5t-65 -26.5q-37 0 -64 26.5t-27 63.5z" />
<glyph unicode="m" horiz-adv-x="1679" d="M147 78v835q0 36 28 62t67 26q35 0 61.5 -26.5t26.5 -61.5v-63q38 56 128.5 110t190.5 54q109 0 176.5 -50t92.5 -133q47 74 139 128.5t194 54.5q138 0 209.5 -75t71.5 -224v-637q0 -37 -27 -63.5t-65 -26.5q-37 0 -63.5 26.5t-26.5 63.5v581q0 91 -42 142t-130 51 q-71 0 -140.5 -42.5t-107.5 -100.5v-631q0 -37 -27 -63.5t-65 -26.5q-37 0 -63.5 26.5t-26.5 63.5v581q0 193 -175 193q-68 0 -136 -43t-107 -102v-629q0 -37 -27 -63.5t-65 -26.5q-37 0 -64 26.5t-27 63.5z" />
<glyph unicode="n" horiz-adv-x="1144" d="M147 78v835q0 36 28 62t67 26q35 0 61.5 -26.5t26.5 -61.5v-63q57 68 150.5 116t199.5 48q157 0 237 -80.5t80 -237.5v-618q0 -37 -27 -63.5t-65 -26.5q-37 0 -63.5 26.5t-26.5 63.5v557q0 117 -54.5 167t-156.5 50q-83 0 -157 -42t-117 -103v-629q0 -37 -27 -63.5 t-65 -26.5q-37 0 -64 26.5t-27 63.5z" />
<glyph unicode="o" d="M88 496q0 143 59.5 260t174.5 187.5t264 70.5q150 0 265 -70.5t174.5 -187.5t59.5 -260t-59.5 -261t-174.5 -189t-265 -71q-149 0 -264 71t-174.5 189t-59.5 261zM276 496q0 -149 84 -254t226 -105q143 0 226 104.5t83 254.5q0 149 -83 252.5t-226 103.5 q-142 0 -226 -104t-84 -252z" />
<glyph unicode="p" horiz-adv-x="1177" d="M147 -301v1214q0 36 28 62t67 26q35 0 61.5 -26.5t26.5 -61.5v-65q56 76 141 121t184 45q197 0 319 -139.5t122 -378.5q0 -238 -122.5 -379.5t-318.5 -141.5q-202 0 -325 168v-444q0 -36 -27 -62t-65 -26q-37 0 -64 26.5t-27 61.5zM330 285q38 -62 115.5 -105t158.5 -43 q137 0 218 100.5t81 258.5t-81 257t-218 99q-82 0 -159 -42t-115 -103v-422z" />
<glyph unicode="q" horiz-adv-x="1177" d="M82 496q0 239 121.5 378.5t318.5 139.5q99 0 184.5 -45t139.5 -121v65q0 36 27.5 62t66.5 26q37 0 63.5 -26.5t26.5 -61.5v-1214q0 -36 -27.5 -62t-66.5 -26q-37 0 -63.5 26.5t-26.5 61.5v444q-60 -82 -143.5 -125t-180.5 -43q-196 0 -318 141t-122 380zM272 496 q0 -158 81.5 -258.5t217.5 -100.5q83 0 161 43t114 105v422q-36 61 -114 103t-161 42q-136 0 -217.5 -99.5t-81.5 -256.5z" />
<glyph unicode="r" horiz-adv-x="692" d="M147 78v835q0 36 28 62t67 26q35 0 61.5 -26.5t26.5 -61.5v-77q122 168 256 168q35 0 58.5 -23.5t23.5 -58.5q0 -39 -27 -66.5t-66 -30.5q-162 -14 -245 -137v-610q0 -37 -27 -63.5t-65 -26.5h-2q-37 2 -63 28t-26 62z" />
<glyph unicode="s" horiz-adv-x="958" d="M74 154q0 32 23.5 53.5t56.5 21.5q27 0 47 -14q131 -94 278 -94q103 0 159 42t56 111q0 44 -33.5 73.5t-86.5 46.5t-117.5 31t-129 34t-117.5 49.5t-86.5 84t-33.5 130.5q0 123 101 207t276 84q106 0 196 -31t148 -88q18 -18 18 -45q0 -30 -21.5 -51t-49.5 -21 q-25 0 -43 15q-105 75 -246 75q-92 0 -147.5 -39t-55.5 -100q0 -40 33.5 -66.5t87 -42t118 -29t129 -35t118 -52.5t87 -88.5t33.5 -136.5q0 -132 -105.5 -218t-295.5 -86q-108 0 -209.5 32.5t-165.5 96.5q-22 19 -22 50z" />
<glyph unicode="t" horiz-adv-x="626" d="M6 911q0 32 23 55t57 23h96v195q0 36 27.5 62t66.5 26q37 0 64 -26.5t27 -61.5v-195h135q33 0 55.5 -23.5t22.5 -58.5q0 -32 -23 -55t-55 -23h-135v-569q0 -57 26 -90t70 -33q12 0 34.5 5t32.5 5q34 0 56 -21.5t22 -53.5q0 -48 -51.5 -72.5t-136.5 -24.5 q-117 0 -177.5 62.5t-60.5 179.5v612h-96q-34 0 -57 23.5t-23 58.5z" />
<glyph unicode="u" horiz-adv-x="1144" d="M147 289v624q0 36 28 62t67 26q35 0 61.5 -26.5t26.5 -61.5v-561q0 -117 54.5 -166t156.5 -49q82 0 156 40.5t118 101.5v634q0 36 27.5 62t66.5 26q35 0 61.5 -26.5t26.5 -61.5v-835q0 -37 -27 -63.5t-65 -26.5q-37 0 -63.5 26.5t-26.5 63.5v57q-61 -69 -153 -114.5 t-199 -45.5q-316 0 -316 314z" />
<glyph unicode="v" horiz-adv-x="1015" d="M39 911q0 35 26 62.5t66 27.5q62 0 84 -57l293 -733l291 733q10 26 33.5 41.5t50.5 15.5q40 0 67 -27t27 -63q0 -17 -6 -32l-332 -805q-17 -39 -53 -62.5t-78 -23.5h-4q-41 0 -75.5 24t-49.5 62l-334 805q-6 15 -6 32z" />
<glyph unicode="w" horiz-adv-x="1521" d="M45 913q0 34 25.5 61t62.5 27q30 0 55.5 -17t34.5 -44l211 -707l230 699q11 31 37.5 50t62.5 19q32 0 57.5 -19t36.5 -50l232 -699l210 707q7 27 31.5 44t54.5 17q39 0 65 -26t26 -62q0 -8 -4 -24l-259 -817q-11 -37 -42.5 -60.5t-71.5 -23.5h-2q-39 0 -71 23.5t-44 60.5 l-221 690l-223 -690q-10 -37 -42.5 -60.5t-72.5 -23.5h-4q-38 0 -69.5 23.5t-43.5 60.5l-258 817q-4 16 -4 24z" />
<glyph unicode="x" horiz-adv-x="1005" d="M88 70q0 30 16 49l285 389l-264 362q-16 22 -16 45q0 31 25 58.5t61 27.5q43 0 67 -34l240 -336l239 334q22 36 68 36q35 0 60.5 -25t25.5 -58q0 -31 -16 -50l-265 -360l289 -389q15 -26 15 -49q0 -31 -24.5 -57.5t-62.5 -26.5q-44 0 -65 34l-264 367l-264 -367 q-24 -34 -66 -34q-33 0 -58.5 25.5t-25.5 58.5z" />
<glyph unicode="y" horiz-adv-x="1015" d="M39 911q0 35 26 62.5t66 27.5q27 0 50.5 -15t33.5 -42l293 -733l291 733q10 26 34 41.5t52 15.5q39 0 65.5 -27t26.5 -63q0 -18 -6 -30l-443 -1071q-89 -211 -305 -211q-131 0 -131 82q0 35 24 58t58 23h47q89 0 133 95l58 131l-367 893q-6 15 -6 30z" />
<glyph unicode="z" horiz-adv-x="970" d="M88 911q0 32 23 55t55 23h622q32 0 57 -26t25 -64q0 -33 -18 -57l-514 -684h467q31 0 53.5 -22.5t22.5 -53.5q0 -35 -22.5 -58.5t-53.5 -23.5h-629q-36 0 -61 26.5t-25 65.5q0 32 21 60l507 677h-452q-33 0 -55.5 23.5t-22.5 58.5z" />
<glyph unicode="{" horiz-adv-x="548" d="M-4 502q0 40 55 63q64 22 64 131v402q0 130 82 210.5t192 80.5h70q30 0 48.5 -19t18.5 -47q0 -27 -18.5 -45t-48.5 -18h-70q-56 0 -94.5 -45t-38.5 -115v-418q0 -142 -94 -182q94 -40 94 -183v-415q0 -70 38.5 -116t94.5 -46h70q30 0 48.5 -18.5t18.5 -45.5 q0 -28 -18.5 -46.5t-48.5 -18.5h-70q-110 0 -192 80.5t-82 208.5v403q0 109 -64 131q-55 23 -55 68z" />
<glyph unicode="|" horiz-adv-x="434" d="M154 10v1348q0 25 19 43t48 18q25 0 43.5 -18t18.5 -43v-1348q0 -26 -19 -44.5t-47 -18.5q-26 0 -44.5 18.5t-18.5 44.5z" />
<glyph unicode="}" horiz-adv-x="548" d="M23 -324q0 27 18.5 45.5t48.5 18.5h70q55 0 94 46.5t39 115.5v415q0 143 94 183q-94 40 -94 182v418q0 69 -39 114.5t-94 45.5h-70q-30 0 -48.5 18.5t-18.5 48.5q0 26 18.5 44t48.5 18h70q110 0 191 -80.5t81 -210.5v-402q0 -108 64 -131q28 -11 41.5 -25.5t13.5 -39.5 q0 -44 -55 -66q-64 -23 -64 -131v-403q0 -128 -81.5 -208.5t-190.5 -80.5h-70q-30 0 -48.5 18.5t-18.5 46.5z" />
<glyph unicode="~" horiz-adv-x="1034" d="M61 938q9 72 21.5 131t35 115.5t52.5 95t74.5 61.5t99.5 23q61 0 105.5 -28.5t67 -71t42 -92t33 -92t38 -71t58.5 -28.5q118 0 152 322q1 24 19.5 39.5t45.5 15.5q30 0 48 -21t18 -51q-10 -92 -28 -162t-49.5 -133t-83.5 -97t-122 -34q-52 0 -92 21t-63.5 54.5t-41.5 74 t-31.5 81.5t-28 74.5t-36 54.5t-51.5 21q-60 0 -95 -83t-56 -234q-3 -26 -21.5 -41t-44.5 -15q-32 0 -49 19.5t-17 50.5z" />
<glyph unicode="&#xa1;" horiz-adv-x="485" d="M115 885q0 50 37.5 87.5t89.5 37.5t89.5 -37.5t37.5 -87.5q-2 -53 -38.5 -90t-88.5 -37t-89.5 37t-37.5 90zM135 -281q0 10 27 807q2 33 24.5 54.5t57.5 21.5q32 0 54 -22t24 -54q3 -38 16.5 -416t13.5 -391q0 -44 -32 -76t-76 -32q-46 0 -78 32t-31 76z" />
<glyph unicode="&#xa2;" horiz-adv-x="1015" d="M88 496q0 202 116 343t306 169v92q0 28 20.5 46.5t51.5 18.5q28 0 47.5 -18.5t19.5 -46.5v-90q176 -15 271 -127q14 -20 14 -43q0 -34 -25.5 -58t-58.5 -24q-29 0 -47 18q-69 58 -154 70v-703q78 8 154 72q17 14 47 14q33 0 59.5 -21.5t26.5 -55.5q0 -30 -16 -46 q-97 -111 -271 -126v-127q0 -28 -19.5 -47t-47.5 -19q-31 0 -51.5 19t-20.5 47v129q-190 26 -306 168.5t-116 345.5zM276 496q0 -131 62.5 -224t171.5 -122v688q-108 -28 -171 -120t-63 -222z" />
<glyph unicode="&#xa3;" horiz-adv-x="1079" d="M29 614q0 25 18 43.5t43 18.5h148q-33 39 -52 64.5t-43 65t-35.5 82t-11.5 89.5q0 115 65.5 209.5t173 147t230.5 52.5q126 0 232 -47t159 -129q13 -20 13 -41q0 -38 -26.5 -63t-65.5 -25t-68 29q-57 52 -108 80.5t-113 28.5q-114 0 -193.5 -67t-79.5 -177q0 -39 8.5 -74 t26.5 -66.5t33 -53.5t41.5 -55t38.5 -50h256q25 0 43 -19t18 -47q0 -25 -18 -43t-43 -18h-197q13 -50 13 -74q0 -157 -150 -260q52 18 104 18q65 0 151.5 -39.5t141.5 -39.5q37 0 92.5 19.5t73.5 19.5q36 0 66 -25.5t30 -63.5q0 -42 -42.5 -72.5t-102 -44.5t-125.5 -14 q-61 0 -113.5 14.5t-84 32t-76.5 32t-94 14.5q-77 0 -185 -54q-18 -6 -37 -6q-33 0 -55.5 22.5t-22.5 55.5q0 52 44 76q97 54 150.5 124.5t53.5 145.5q0 61 -30 119h-234q-25 0 -43 19t-18 46z" />
<glyph unicode="&#xa4;" horiz-adv-x="1239" d="M82 1141q0 30 22.5 54t55.5 24q35 0 55 -23l109 -109q129 89 294 89q169 0 295 -89l107 109q21 21 53 21q31 0 55.5 -22.5t24.5 -55.5q0 -31 -23 -54l-106 -106q94 -131 94 -297q0 -163 -92 -299l104 -102q23 -23 23 -52q0 -30 -23.5 -54.5t-56.5 -24.5q-31 0 -53 22 l-105 102q-128 -88 -297 -88q-168 0 -299 90l-102 -104q-20 -20 -53 -20q-30 0 -55 22t-25 53q0 32 22 54l105 104q-90 133 -90 297q0 169 92 297l-109 106q-22 25 -22 56zM307 682q0 -138 83.5 -235t227.5 -97q146 0 230 97t84 235q0 136 -84 232t-230 96 q-144 0 -227.5 -96t-83.5 -232z" />
<glyph unicode="&#xa5;" horiz-adv-x="1292" d="M35 309q0 24 17.5 42t41.5 18h453v204h-455q-25 0 -41 17t-16 45q0 25 16 42t41 17h371l-361 539q-16 19 -16 49q0 36 27 66t69 30q55 0 84 -43l381 -581l379 579q12 20 34 31.5t46 11.5q41 0 69.5 -28.5t28.5 -65.5q0 -29 -14 -51l-361 -537h373q25 0 42.5 -18t17.5 -45 q0 -25 -17.5 -41.5t-42.5 -16.5h-454v-204h454q24 0 42 -19t18 -45q0 -24 -18 -41.5t-42 -17.5h-454v-158q0 -41 -29 -70.5t-70 -29.5q-43 0 -72.5 28t-29.5 72v158h-453q-25 0 -42 18t-17 45z" />
<glyph unicode="&#xa6;" horiz-adv-x="434" d="M154 18v531q0 25 19 43t48 18q25 0 43.5 -18t18.5 -43v-531q0 -26 -19 -44.5t-47 -18.5q-26 0 -44.5 18.5t-18.5 44.5zM154 819v531q0 25 19 43t48 18q25 0 43.5 -18t18.5 -43v-531q0 -26 -19 -44.5t-47 -18.5q-26 0 -44.5 18.5t-18.5 44.5z" />
<glyph unicode="&#xa7;" horiz-adv-x="966" d="M80 12q0 29 20.5 50.5t49.5 21.5q25 0 40 -12q131 -107 281 -107q101 0 162 43t61 119q0 48 -33.5 81t-86.5 51t-117.5 33.5t-129 36t-117.5 49.5t-86.5 83t-33.5 129q0 100 64.5 166t160.5 94q-225 73 -225 254q0 121 102.5 201.5t274.5 80.5q86 0 169 -21.5t137 -58.5 t54 -79q0 -29 -18.5 -49.5t-46.5 -20.5q-19 0 -37 12q-51 40 -118.5 62t-133.5 22q-93 0 -150 -40.5t-57 -108.5q0 -43 33.5 -72t87 -45t118 -30t129 -34.5t118 -50.5t87 -86.5t33.5 -134.5q0 -178 -184 -262q184 -73 184 -250q0 -142 -110.5 -223.5t-290.5 -81.5 q-117 0 -213.5 35.5t-157.5 93.5q-20 17 -20 49zM266 612q0 -24 9 -44t20 -34.5t36 -28.5t41 -21.5t52.5 -18t53 -15t59.5 -14.5q78 34 116.5 78t38.5 109q0 40 -17.5 70.5t-51.5 50.5t-66.5 32.5t-79.5 24.5q-116 -29 -163.5 -76t-47.5 -113z" />
<glyph unicode="&#xa8;" horiz-adv-x="569" d="M-35 1241q0 43 31.5 75t75.5 32t75 -32t31 -75q0 -44 -31 -76t-75 -32t-75.5 32t-31.5 76zM389 1241q0 43 33 75t76 32t74.5 -32t31.5 -75q0 -44 -31.5 -76t-74.5 -32t-76 32t-33 76z" />
<glyph unicode="&#xa9;" horiz-adv-x="1593" d="M90 684q0 192 95 355t258 257.5t354 94.5q144 0 275 -56t225 -150.5t150 -225.5t56 -275q0 -143 -56 -274t-150 -226t-225 -151t-275 -56q-191 0 -354 95t-258 258t-95 354zM156 684q0 -130 51 -248.5t137 -204.5t204.5 -137t248.5 -51t248.5 51t204.5 137t137 204.5 t51 248.5t-51 248.5t-137 204.5t-204.5 137t-248.5 51t-248.5 -51t-204.5 -137t-137 -204.5t-51 -248.5zM377 686q0 186 123.5 310t302.5 124q173 0 280 -116q11 -8 11 -23t-11 -28t-26 -13q-16 0 -25 12q-44 47 -104.5 72t-124.5 25q-142 0 -244 -102t-102 -261 q0 -156 102.5 -261.5t243.5 -105.5q62 0 123.5 27t103.5 72q9 12 27 12q14 0 26.5 -12t12.5 -27q0 -18 -11 -26q-115 -115 -282 -115q-178 0 -302 125t-124 311z" />
<glyph unicode="&#xaa;" horiz-adv-x="778" d="M78 864q0 99 68 154t161 55q136 0 215 -82v105q0 57 -44 92t-111 35q-90 0 -164 -62q-17 -10 -33 -10q-20 0 -36.5 15t-16.5 36q0 19 14 33q45 45 115 68.5t141 23.5q119 0 195.5 -56t76.5 -179v-369q0 -29 -19 -48.5t-48 -19.5q-28 -2 -49 16.5t-21 45.5v20 q-79 -86 -215 -86q-92 0 -160.5 57t-68.5 156zM215 864q0 -57 41 -91t104 -34q50 0 94 19.5t68 54.5v102q-25 33 -68.5 52.5t-93.5 19.5q-62 0 -103.5 -34t-41.5 -89z" />
<glyph unicode="&#xab;" horiz-adv-x="948" d="M113 496q0 58 39 100l231 256q17 20 45 20q26 0 47 -18.5t21 -46.5q0 -23 -15 -41l-243 -268l243 -273q15 -23 15 -41q0 -26 -19.5 -47.5t-46.5 -21.5q-31 0 -47 22l-233 260q-37 40 -37 99zM434 498q0 60 37 100l229 254q20 20 48 20q26 0 46.5 -19t20.5 -46 q0 -24 -14 -41l-242 -268l242 -273q16 -19 16 -41q0 -26 -19.5 -47.5t-47.5 -21.5q-29 0 -48 22l-231 260q-37 40 -37 101z" />
<glyph unicode="&#xac;" horiz-adv-x="1038" d="M47 883q0 23 18 41t41 18h725q56 0 95 -39t39 -94v-332q0 -27 -18.5 -45t-45.5 -18q-26 0 -44.5 18.5t-18.5 44.5v342h-732q-24 0 -41.5 18.5t-17.5 45.5z" />
<glyph unicode="&#xad;" horiz-adv-x="614" d="M57 496q0 33 22.5 56t55.5 23h344q32 0 55 -22.5t23 -54.5q0 -34 -22.5 -58t-55.5 -24h-344q-32 0 -55 23t-23 57z" />
<glyph unicode="&#xae;" horiz-adv-x="1011" d="M72 952q0 181 127 307.5t307 126.5q119 0 219 -57.5t157.5 -157.5t57.5 -219q0 -180 -126.5 -307t-307.5 -127q-180 0 -307 127t-127 307zM131 952q0 -154 110 -264t265 -110q154 0 263.5 110t109.5 264q0 155 -109.5 264t-263.5 109q-155 0 -265 -109t-110 -264z M340 721v422q0 23 17 40t42 17h144q65 0 112 -42t47 -109q0 -72 -46 -110t-81 -38l103 -153q8 -8 8 -19q0 -13 -12 -25t-25 -12q-18 0 -28 17l-125 190h-88v-178q0 -13 -10 -22t-27 -9q-12 0 -21.5 9.5t-9.5 21.5zM408 961h135q34 0 62 25.5t28 62.5q0 39 -28 65.5t-62 26.5 h-135v-180z" />
<glyph unicode="&#xaf;" horiz-adv-x="743" d="M0 1225q0 22 15.5 37.5t37.5 15.5h637q22 0 37.5 -15.5t15.5 -37.5q0 -26 -15.5 -43t-37.5 -17h-637q-22 0 -37.5 17t-15.5 43z" />
<glyph unicode="&#xb0;" horiz-adv-x="606" d="M45 1128q0 106 75 182t181 76q107 0 182.5 -76t75.5 -182q0 -107 -75.5 -181.5t-182.5 -74.5q-106 0 -181 74.5t-75 181.5zM158 1128q0 -60 41.5 -102.5t101.5 -42.5q62 0 106 42.5t44 102.5t-44.5 104t-105.5 44q-60 0 -101.5 -44t-41.5 -104z" />
<glyph unicode="&#xb1;" horiz-adv-x="1024" d="M47 61q0 25 17 42.5t40 17.5h816q24 0 40.5 -17.5t16.5 -42.5q0 -26 -16 -43.5t-41 -17.5h-816q-24 0 -40.5 17.5t-16.5 43.5zM47 727q0 25 17 42t40 17h342v367q0 27 20 45.5t50 18.5q26 0 45 -19t19 -45v-367h340q25 0 41 -17t16 -42q0 -27 -16 -44t-41 -17h-340v-381 q0 -28 -19.5 -47t-48.5 -19q-28 0 -47 19t-19 47v381h-342q-24 0 -40.5 17t-16.5 44z" />
<glyph unicode="&#xb2;" horiz-adv-x="798" d="M88 920q0 40 37 63q236 168 336 270t100 185q0 69 -47 104t-117 35q-109 0 -196 -70q-21 -14 -37 -14q-24 0 -42 16t-18 43q0 24 17 41q49 49 126 75t154 26q129 0 216.5 -64t87.5 -182q0 -58 -26.5 -114.5t-82.5 -116t-122.5 -114t-164.5 -124.5h357q22 0 38.5 -16.5 t16.5 -38.5q0 -26 -16.5 -44t-38.5 -18h-525q-22 0 -37.5 16.5t-15.5 41.5z" />
<glyph unicode="&#xb3;" horiz-adv-x="798" d="M90 989q0 25 18 44.5t44 19.5q18 0 34 -13q87 -75 205 -75q85 0 132.5 34.5t47.5 94.5q0 131 -204 131h-31q-22 0 -39.5 14t-17.5 41t17 42t40 15h29q192 0 192 121q0 56 -49.5 87.5t-124.5 31.5q-111 0 -190 -70q-12 -10 -35 -10q-22 0 -39 16t-17 39q0 22 15 37 q102 105 278 105q138 0 220.5 -60t82.5 -161q0 -79 -54.5 -128t-127.5 -61q32 -2 65 -15.5t63 -37t49.5 -61.5t19.5 -83q0 -107 -86.5 -173t-231.5 -66q-65 0 -135.5 18.5t-120 52t-49.5 70.5z" />
<glyph unicode="&#xb4;" horiz-adv-x="477" d="M55 1176q0 19 13 32l221 219q17 17 43 17q23 0 42 -17t19 -41q0 -22 -18 -40l-242 -207q-13 -13 -29 -13q-19 0 -34 14.5t-15 35.5z" />
<glyph unicode="&#xb5;" d="M147 -301v1214q0 36 28 62t67 26q35 0 61.5 -26.5t26.5 -61.5v-561q0 -217 213 -217q81 0 154.5 41.5t117.5 102.5v634q0 36 27.5 62t66.5 26q35 0 61.5 -26.5t26.5 -61.5v-663q0 -43 15 -68t36.5 -34t43 -17t36.5 -25.5t15 -48.5q0 -34 -21.5 -58t-62.5 -24 q-195 0 -236 177q-54 -78 -134.5 -127.5t-170.5 -49.5q-137 0 -188 88v-364q0 -36 -27 -62t-65 -26q-37 0 -64 26.5t-27 61.5z" />
<glyph unicode="&#xb6;" horiz-adv-x="919" d="M55 1014q0 146 103.5 249t249.5 103h282q40 0 69 -28t29 -68v-1440q0 -19 -15 -33t-38 -14q-20 0 -34.5 14t-14.5 33v1434h-176v-1434q0 -19 -15 -33t-38 -14q-20 0 -34.5 14t-14.5 33v832q-146 0 -249.5 103t-103.5 249z" />
<glyph unicode="&#xb7;" horiz-adv-x="485" d="M117 500q0 52 37 89.5t88 37.5q52 0 89.5 -37.5t37.5 -89.5q0 -51 -37.5 -88t-89.5 -37q-51 0 -88 37t-37 88z" />
<glyph unicode="&#xb8;" horiz-adv-x="428" d="M4 -307q0 19 13 32t32 13q13 0 19 -4q63 -39 139 -39q50 0 84.5 21.5t34.5 58.5q0 67 -70 67q-18 0 -48 -15t-46 -15q-21 0 -35 15t-14 34q0 8 4 16l41 111q6 21 23.5 34t39.5 13q15 0 26 -10t11 -25q0 -10 -2 -16l-39 -95q33 23 76 23q59 0 97 -38.5t38 -100.5 q0 -75 -62.5 -120.5t-154.5 -45.5q-74 0 -140.5 23t-66.5 63z" />
<glyph unicode="&#xb9;" horiz-adv-x="509" d="M39 1434q0 23 18 41l183 182q32 37 73 37q31 0 52.5 -20t21.5 -48v-706q0 -30 -21 -50t-53 -20q-29 0 -49 20.5t-20 49.5v577l-105 -108q-20 -17 -41 -17q-22 0 -40.5 18t-18.5 44z" />
<glyph unicode="&#xba;" horiz-adv-x="829" d="M76 989q0 142 93.5 240t244.5 98q154 0 247 -97.5t93 -240.5t-93 -240.5t-247 -97.5q-151 0 -244.5 98t-93.5 240zM219 989q0 -100 52 -162.5t143 -62.5q92 0 145 63t53 162q0 98 -53 159.5t-145 61.5q-91 0 -143 -61.5t-52 -159.5z" />
<glyph unicode="&#xbb;" horiz-adv-x="948" d="M131 182q0 27 16 43l242 273l-242 268q-16 19 -16 39q0 27 19.5 47t48.5 20q27 0 47 -20l231 -254q37 -43 37 -100q0 -58 -37 -101l-231 -260q-19 -22 -47 -22q-26 0 -47 19.5t-21 47.5zM451 182q0 27 16 43l242 273l-242 268q-16 19 -16 39q0 26 18.5 46.5t46.5 20.5 q26 0 49 -20l232 -256q39 -45 39 -100q0 -54 -39 -99l-232 -260q-19 -22 -47 -22q-26 0 -46.5 19.5t-20.5 47.5z" />
<glyph unicode="&#xbc;" horiz-adv-x="1611" d="M39 1118q0 23 18 41l183 182q32 37 73 37q31 0 52.5 -19.5t21.5 -47.5v-707q0 -29 -21 -49t-53 -20q-29 0 -49 20t-20 49v578l-105 -109q-19 -16 -41 -16q-23 0 -41 18t-18 43zM268 37q0 9 11 24l829 1301q13 22 43 22q22 0 37.5 -16.5t15.5 -36.5q0 -14 -8 -26 l-829 -1299q-16 -22 -43 -22q-22 0 -39 16t-17 37zM872 256q0 22 27 61l295 449q45 65 123 65q45 0 77.5 -30t32.5 -72v-418h74q22 0 37.5 -15.5t15.5 -37.5q0 -26 -15.5 -43.5t-37.5 -17.5h-74v-140q0 -29 -21 -49t-50 -20t-49.5 20t-20.5 49v140h-360q-22 0 -38 16.5 t-16 42.5zM1026 311h260v383z" />
<glyph unicode="&#xbd;" horiz-adv-x="1685" d="M39 1118q0 23 18 41l183 182q32 37 73 37q31 0 52.5 -19.5t21.5 -47.5v-707q0 -29 -21 -49t-53 -20q-29 0 -49 20t-20 49v578l-105 -109q-19 -16 -41 -16q-23 0 -41 18t-18 43zM268 37q0 9 11 24l829 1301q13 22 43 22q22 0 37.5 -16.5t15.5 -36.5q0 -14 -8 -26 l-829 -1299q-16 -22 -43 -22q-22 0 -39 16t-17 37zM973 57q0 39 35 64q237 168 337.5 269.5t100.5 184.5q0 69 -47.5 104.5t-116.5 35.5q-113 0 -197 -70q-21 -14 -38 -14q-23 0 -40.5 16.5t-17.5 42.5q0 43 57 77.5t123 49t117 14.5q129 0 216 -63.5t87 -181.5 q0 -111 -97.5 -218.5t-299.5 -250.5h358q22 0 39 -17t17 -39q0 -26 -17 -43.5t-39 -17.5h-524q-22 0 -37.5 16.5t-15.5 40.5z" />
<glyph unicode="&#xbe;" horiz-adv-x="1822" d="M90 674q0 25 18 44t44 19q19 0 34 -12q88 -76 205 -76q85 0 132.5 34.5t47.5 94.5q0 131 -204 131h-31q-22 0 -39.5 14.5t-17.5 41.5t17 42t40 15h29q192 0 192 121q0 56 -49.5 87.5t-124.5 31.5q-111 0 -190 -70q-12 -10 -35 -10q-22 0 -39 16t-17 39q0 39 50 72.5 t116.5 51t126.5 17.5q138 0 220.5 -60t82.5 -161q0 -79 -54.5 -127.5t-127.5 -60.5q32 -2 65 -15.5t63 -37t49.5 -61.5t19.5 -83q0 -107 -86.5 -173.5t-231.5 -66.5q-65 0 -135.5 19t-120 52.5t-49.5 70.5zM479 37q0 13 8 24l830 1301q16 22 43 22q22 0 37.5 -16.5 t15.5 -36.5q0 -14 -8 -26l-830 -1299q-16 -22 -43 -22q-22 0 -37.5 15.5t-15.5 37.5zM1083 256q0 8 3 17t5.5 14t9.5 16t9 14l297 449q42 65 121 65q47 0 78.5 -30t31.5 -72v-418h74q22 0 38.5 -15.5t16.5 -37.5q0 -26 -16.5 -43.5t-38.5 -17.5h-74v-140q0 -29 -20 -49 t-51 -20q-29 0 -49.5 20t-20.5 49v140h-360q-22 0 -38 16.5t-16 42.5zM1239 311h258v383z" />
<glyph unicode="&#xbf;" horiz-adv-x="808" d="M57 -82q0 62 21 115t55 90t74.5 69t81.5 60t75 55t55 61.5t21 73.5q0 15 -11 42t-11 40q0 31 22 55.5t58 24.5q37 0 65.5 -32.5t40.5 -71.5t12 -72q0 -52 -19.5 -96.5t-50 -76t-68 -60t-75 -55t-68 -53.5t-50 -61.5t-19.5 -74.5q0 -73 57 -121.5t162 -48.5q48 0 98.5 19 t84 42.5t70 42.5t61.5 19q35 0 61.5 -25t26.5 -61q0 -49 -45 -91.5t-112 -69t-137.5 -41.5t-127.5 -15q-187 0 -297.5 89.5t-110.5 227.5zM356 883q0 51 37.5 89t89.5 38t89.5 -38t37.5 -89t-37.5 -89t-89.5 -38t-89.5 38t-37.5 89z" />
<glyph unicode="&#xc0;" horiz-adv-x="1361" d="M57 96q0 18 6 39l453 1135q19 49 63.5 78.5t98.5 29.5q54 2 100 -27.5t66 -80.5l452 -1135q9 -21 9 -39q0 -41 -31 -74.5t-78 -33.5q-33 0 -59.5 17.5t-38.5 47.5l-90 232h-654l-90 -232q-12 -30 -38.5 -47.5t-59.5 -17.5q-46 0 -77.5 32.5t-31.5 75.5zM410 1729 q0 22 18.5 39.5t42.5 17.5t41 -17l223 -219q13 -16 13 -32q0 -19 -14.5 -34.5t-35.5 -15.5q-14 0 -30 13l-240 207q-18 15 -18 41zM412 463h538l-270 696z" />
<glyph unicode="&#xc1;" horiz-adv-x="1361" d="M57 96q0 18 6 39l453 1135q19 49 63.5 78.5t98.5 29.5q54 2 100 -27.5t66 -80.5l452 -1135q9 -21 9 -39q0 -41 -31 -74.5t-78 -33.5q-33 0 -59.5 17.5t-38.5 47.5l-90 232h-654l-90 -232q-12 -30 -38.5 -47.5t-59.5 -17.5q-46 0 -77.5 32.5t-31.5 75.5zM412 463h538 l-270 696zM616 1518q0 19 13 32l221 219q17 17 43 17q23 0 42 -16.5t19 -40.5q0 -23 -18 -41l-242 -207q-13 -13 -28 -13q-19 0 -34.5 14.5t-15.5 35.5z" />
<glyph unicode="&#xc2;" horiz-adv-x="1361" d="M57 96q0 18 6 39l453 1135q19 49 63.5 78.5t98.5 29.5q54 2 100 -27.5t66 -80.5l452 -1135q9 -21 9 -39q0 -41 -31 -74.5t-78 -33.5q-33 0 -59.5 17.5t-38.5 47.5l-90 232h-654l-90 -232q-12 -30 -38.5 -47.5t-59.5 -17.5q-46 0 -77.5 32.5t-31.5 75.5zM412 463h538 l-270 696zM434 1516q0 13 10 26l119 182q41 64 121 64q34 0 65 -17.5t50 -46.5l125 -182q8 -8 8 -26q0 -17 -15 -33.5t-38 -16.5q-21 0 -37 19l-160 203l-156 -201q-16 -19 -39 -19q-21 0 -37 14t-16 34z" />
<glyph unicode="&#xc3;" horiz-adv-x="1361" d="M57 96q0 18 6 39l453 1135q19 49 63.5 78.5t98.5 29.5q54 2 100 -27.5t66 -80.5l452 -1135q9 -21 9 -39q0 -41 -31 -74.5t-78 -33.5q-33 0 -59.5 17.5t-38.5 47.5l-90 232h-654l-90 -232q-12 -30 -38.5 -47.5t-59.5 -17.5q-46 0 -77.5 32.5t-31.5 75.5zM360 1532 q0 93 56.5 162t146.5 69q40 0 71.5 -18t52 -43.5t38.5 -51t39.5 -43.5t46.5 -18q74 0 88 115q3 22 20 36.5t39 14.5q21 0 33.5 -14.5t12.5 -34.5q-7 -97 -58 -163t-143 -66q-41 0 -73 18t-52 44t-37.5 52t-39 44t-46.5 18q-72 0 -90 -117q-1 -22 -18.5 -36.5t-40.5 -14.5 q-20 0 -33 14t-13 33zM412 463h538l-270 696z" />
<glyph unicode="&#xc4;" horiz-adv-x="1361" d="M57 96q0 18 6 39l453 1135q19 49 63.5 78.5t98.5 29.5q54 2 100 -27.5t66 -80.5l452 -1135q9 -21 9 -39q0 -41 -31 -74.5t-78 -33.5q-33 0 -59.5 17.5t-38.5 47.5l-90 232h-654l-90 -232q-12 -30 -38.5 -47.5t-59.5 -17.5q-46 0 -77.5 32.5t-31.5 75.5zM362 1583 q0 43 31.5 75t75.5 32t75 -32t31 -75q0 -44 -31 -76t-75 -32t-75.5 32t-31.5 76zM412 463h538l-270 696zM786 1583q0 43 33 75t76 32t74.5 -32t31.5 -75q0 -44 -31.5 -76t-74.5 -32t-76 32t-33 76z" />
<glyph unicode="&#xc5;" horiz-adv-x="1361" d="M57 96q0 18 6 39l453 1135q19 49 63.5 78.5t98.5 29.5q54 2 100 -27.5t66 -80.5l452 -1135q9 -21 9 -39q0 -41 -31 -74.5t-78 -33.5q-33 0 -59.5 17.5t-38.5 47.5l-90 232h-654l-90 -232q-12 -30 -38.5 -47.5t-59.5 -17.5q-46 0 -77.5 32.5t-31.5 75.5zM412 463h538 l-270 696zM477 1618q0 84 60.5 145.5t144.5 61.5t144.5 -61.5t60.5 -145.5q0 -85 -60 -145t-145 -60t-145 60t-60 145zM569 1618q0 -46 33.5 -80.5t79.5 -34.5q47 0 80 34.5t33 80.5q0 47 -33 80t-80 33q-46 0 -79.5 -33t-33.5 -80z" />
<glyph unicode="&#xc6;" horiz-adv-x="1951" d="M78 92q0 23 14 51l688 1108q32 52 88.5 83.5t116.5 31.5h787q37 0 62.5 -26.5t25.5 -65.5q0 -36 -26 -62t-62 -26h-635v-400h620q37 0 62.5 -26.5t25.5 -65.5q0 -36 -26 -62t-62 -26h-620v-426h635q36 0 62 -26t26 -62q0 -39 -25.5 -65.5t-62.5 -26.5h-705 q-56 0 -95.5 39t-39.5 94v152h-522l-150 -248q-23 -45 -80 -45q-41 0 -71.5 29.5t-30.5 70.5zM508 463h424v696z" />
<glyph unicode="&#xc7;" horiz-adv-x="1390" d="M94 682q0 154 55.5 287t151 224.5t226 143.5t278.5 52q287 0 467 -203q24 -27 24 -66q0 -38 -28 -66t-68 -28q-47 0 -70 33q-60 69 -147.5 109t-177.5 40q-216 0 -358 -148.5t-142 -377.5q0 -228 142 -377t358 -149q91 0 176.5 38.5t148.5 108.5q26 33 72 33 q39 0 66.5 -28.5t27.5 -65.5q0 -40 -24 -64q-170 -192 -443 -203l-32 -79q31 22 75 22q59 0 97.5 -38.5t38.5 -100.5q0 -75 -62.5 -120.5t-154.5 -45.5q-74 0 -141.5 23t-67.5 63q0 19 14 32t33 13q12 0 18 -4q63 -39 139 -39q50 0 84.5 21.5t34.5 58.5q0 67 -69 67 q-18 0 -48 -15t-45 -15q-22 0 -36.5 14.5t-14.5 34.5q0 12 2 16l35 97q-135 12 -252 68.5t-201.5 147t-133 216t-48.5 270.5z" />
<glyph unicode="&#xc8;" d="M154 133v1100q0 55 39 94t94 39h704q37 0 62.5 -26.5t25.5 -65.5q0 -36 -26 -62t-62 -26h-635v-400h621q37 0 62.5 -26.5t25.5 -65.5q0 -36 -26 -62t-62 -26h-621v-426h635q36 0 62 -26t26 -62q0 -39 -25.5 -65.5t-62.5 -26.5h-704q-55 0 -94 39t-39 94zM336 1729 q0 22 18.5 39.5t42.5 17.5t41 -17l224 -219q12 -15 12 -32q0 -20 -14 -35t-35 -15q-15 0 -31 13l-240 207q-18 15 -18 41z" />
<glyph unicode="&#xc9;" d="M154 133v1100q0 55 39 94t94 39h704q37 0 62.5 -26.5t25.5 -65.5q0 -36 -26 -62t-62 -26h-635v-400h621q37 0 62.5 -26.5t25.5 -65.5q0 -36 -26 -62t-62 -26h-621v-426h635q36 0 62 -26t26 -62q0 -39 -25.5 -65.5t-62.5 -26.5h-704q-55 0 -94 39t-39 94zM545 1518 q0 20 12 32l221 219q17 17 43 17q23 0 42.5 -16.5t19.5 -40.5q0 -22 -19 -41l-241 -207q-13 -13 -29 -13q-19 0 -34 14.5t-15 35.5z" />
<glyph unicode="&#xca;" d="M154 133v1100q0 55 39 94t94 39h704q37 0 62.5 -26.5t25.5 -65.5q0 -36 -26 -62t-62 -26h-635v-400h621q37 0 62.5 -26.5t25.5 -65.5q0 -36 -26 -62t-62 -26h-621v-426h635q36 0 62 -26t26 -62q0 -39 -25.5 -65.5t-62.5 -26.5h-704q-55 0 -94 39t-39 94zM358 1516 q0 11 11 26l118 182q41 64 121 64q34 0 65 -17.5t50 -46.5l125 -182q8 -8 8 -26q0 -17 -15 -33.5t-38 -16.5q-21 0 -37 19l-160 203l-155 -201q-16 -19 -39 -19q-21 0 -37.5 14t-16.5 34z" />
<glyph unicode="&#xcb;" d="M154 133v1100q0 55 39 94t94 39h704q37 0 62.5 -26.5t25.5 -65.5q0 -36 -26 -62t-62 -26h-635v-400h621q37 0 62.5 -26.5t25.5 -65.5q0 -36 -26 -62t-62 -26h-621v-426h635q36 0 62 -26t26 -62q0 -39 -25.5 -65.5t-62.5 -26.5h-704q-55 0 -94 39t-39 94zM291 1583 q0 43 31 75t75 32t75.5 -32t31.5 -75q0 -44 -31.5 -76t-75.5 -32t-75 32t-31 76zM715 1583q0 43 32.5 75t75.5 32t75 -32t32 -75q0 -44 -32 -76t-75 -32t-75.5 32t-32.5 76z" />
<glyph unicode="&#xcc;" horiz-adv-x="507" d="M-16 1729q0 22 18.5 39.5t42.5 17.5t41 -17l223 -219q13 -16 13 -32q0 -19 -14.5 -34.5t-35.5 -15.5q-14 0 -30 13l-240 207q-18 15 -18 41zM154 88v1192q0 40 30 69t74 29q40 0 69 -29t29 -69v-1192q0 -41 -29.5 -70.5t-72.5 -29.5q-41 0 -70.5 29.5t-29.5 70.5z" />
<glyph unicode="&#xcd;" horiz-adv-x="507" d="M154 88v1192q0 40 30 69t74 29q40 0 69 -29t29 -69v-1192q0 -41 -29.5 -70.5t-72.5 -29.5q-41 0 -70.5 29.5t-29.5 70.5zM190 1518q0 19 13 32l221 219q17 17 43 17q23 0 42 -16.5t19 -40.5q0 -23 -18 -41l-242 -207q-13 -13 -28 -13q-19 0 -34.5 14.5t-15.5 35.5z" />
<glyph unicode="&#xce;" horiz-adv-x="507" d="M8 1516q0 13 10 26l119 182q41 64 121 64q34 0 65 -17.5t50 -46.5l125 -182q8 -8 8 -26q0 -17 -15 -33.5t-38 -16.5q-21 0 -37 19l-160 203l-156 -201q-16 -19 -39 -19q-21 0 -37 14t-16 34zM154 88v1192q0 40 30 69t74 29q40 0 69 -29t29 -69v-1192q0 -41 -29.5 -70.5 t-72.5 -29.5q-41 0 -70.5 29.5t-29.5 70.5z" />
<glyph unicode="&#xcf;" horiz-adv-x="507" d="M-61 1583q0 43 31 75t75 32t75.5 -32t31.5 -75q0 -44 -31.5 -76t-75.5 -32t-75 32t-31 76zM154 88v1192q0 40 30 69t74 29q40 0 69 -29t29 -69v-1192q0 -41 -29.5 -70.5t-72.5 -29.5q-41 0 -70.5 29.5t-29.5 70.5zM362 1583q0 43 33 75t76 32t75 -32t32 -75 q0 -44 -32 -76t-75 -32t-76 32t-33 76z" />
<glyph unicode="&#xd0;" horiz-adv-x="1499" d="M6 678q0 29 21.5 50.5t52.5 21.5h129v483q0 55 38.5 94t94.5 39h352q209 0 371.5 -89t250 -244.5t87.5 -350.5q0 -147 -51.5 -273t-143 -216.5t-224.5 -141.5t-290 -51h-352q-56 0 -94.5 39t-38.5 94v467h-129q-31 0 -52.5 22.5t-21.5 55.5zM412 180h282 q153 0 268.5 68.5t173.5 181.5t58 252q0 143 -56.5 255.5t-171.5 180.5t-272 68h-282v-436h276q29 0 49.5 -22t20.5 -54q0 -31 -20.5 -52.5t-49.5 -21.5h-276v-420z" />
<glyph unicode="&#xd1;" horiz-adv-x="1462" d="M154 88v1165q0 51 37.5 88t93.5 37q69 0 108 -55l713 -969v926q0 40 30 69t74 29q40 0 69.5 -29t29.5 -69v-1176q0 -46 -35.5 -81t-87.5 -35q-65 0 -101 51l-729 997v-948q0 -41 -29.5 -70.5t-72.5 -29.5q-41 0 -70.5 29.5t-29.5 70.5zM406 1532q0 94 56 162.5t146 68.5 q40 0 71.5 -18t52 -43.5t38.5 -51t39.5 -43.5t46.5 -18q74 0 88 115q3 22 20.5 36.5t39.5 14.5q21 0 33 -14.5t12 -34.5q-7 -97 -58 -163t-143 -66q-41 0 -73 18t-52 44t-37.5 52t-39 44t-46.5 18q-72 0 -90 -117q-1 -22 -18.5 -36.5t-40.5 -14.5q-20 0 -32.5 14t-12.5 33z " />
<glyph unicode="&#xd2;" horiz-adv-x="1566" d="M94 682q0 201 86 362t243.5 253t358.5 92q150 0 278.5 -53.5t218 -147.5t140.5 -224.5t51 -281.5t-51 -281.5t-140.5 -224.5t-218 -147.5t-278.5 -53.5q-201 0 -358.5 92t-243.5 253t-86 362zM305 682q0 -230 130.5 -378t346.5 -148q215 0 347.5 148.5t132.5 377.5 q0 230 -132 378t-348 148q-144 0 -253 -68.5t-166.5 -187.5t-57.5 -270zM512 1729q0 22 18.5 39.5t42.5 17.5t41 -17l224 -219q12 -15 12 -32q0 -20 -14 -35t-35 -15q-15 0 -31 13l-240 207q-18 15 -18 41z" />
<glyph unicode="&#xd3;" horiz-adv-x="1566" d="M94 682q0 201 86 362t243.5 253t358.5 92q150 0 278.5 -53.5t218 -147.5t140.5 -224.5t51 -281.5t-51 -281.5t-140.5 -224.5t-218 -147.5t-278.5 -53.5q-201 0 -358.5 92t-243.5 253t-86 362zM305 682q0 -230 130.5 -378t346.5 -148q215 0 347.5 148.5t132.5 377.5 q0 230 -132 378t-348 148q-144 0 -253 -68.5t-166.5 -187.5t-57.5 -270zM719 1518q0 20 12 32l221 219q17 17 43 17q23 0 42.5 -16.5t19.5 -40.5q0 -22 -19 -41l-241 -207q-13 -13 -29 -13q-19 0 -34 14.5t-15 35.5z" />
<glyph unicode="&#xd4;" horiz-adv-x="1566" d="M94 682q0 201 86 362t243.5 253t358.5 92q150 0 278.5 -53.5t218 -147.5t140.5 -224.5t51 -281.5t-51 -281.5t-140.5 -224.5t-218 -147.5t-278.5 -53.5q-201 0 -358.5 92t-243.5 253t-86 362zM305 682q0 -230 130.5 -378t346.5 -148q215 0 347.5 148.5t132.5 377.5 q0 230 -132 378t-348 148q-144 0 -253 -68.5t-166.5 -187.5t-57.5 -270zM537 1516q0 13 10 26l119 182q41 64 120 64q34 0 65 -17.5t50 -46.5l125 -182q8 -8 8 -26q0 -17 -15 -33.5t-38 -16.5q-21 0 -37 19l-160 203l-155 -201q-16 -19 -39 -19q-21 0 -37 14t-16 34z" />
<glyph unicode="&#xd5;" horiz-adv-x="1566" d="M94 682q0 201 86 362t243.5 253t358.5 92q150 0 278.5 -53.5t218 -147.5t140.5 -224.5t51 -281.5t-51 -281.5t-140.5 -224.5t-218 -147.5t-278.5 -53.5q-201 0 -358.5 92t-243.5 253t-86 362zM305 682q0 -230 130.5 -378t346.5 -148q215 0 347.5 148.5t132.5 377.5 q0 230 -132 378t-348 148q-144 0 -253 -68.5t-166.5 -187.5t-57.5 -270zM461 1532q0 93 56.5 162t146.5 69q40 0 71.5 -18t51.5 -43.5t38 -51t39.5 -43.5t46.5 -18q74 0 88 115q3 22 20.5 36.5t39.5 14.5q21 0 33 -14.5t12 -34.5q-7 -97 -58 -163t-143 -66q-41 0 -73 18 t-52 44t-37.5 52t-39 44t-46.5 18q-72 0 -90 -117q-1 -22 -18.5 -36.5t-40.5 -14.5q-20 0 -32.5 14t-12.5 33z" />
<glyph unicode="&#xd6;" horiz-adv-x="1566" d="M94 682q0 201 86 362t243.5 253t358.5 92q150 0 278.5 -53.5t218 -147.5t140.5 -224.5t51 -281.5t-51 -281.5t-140.5 -224.5t-218 -147.5t-278.5 -53.5q-201 0 -358.5 92t-243.5 253t-86 362zM305 682q0 -230 130.5 -378t346.5 -148q215 0 347.5 148.5t132.5 377.5 q0 230 -132 378t-348 148q-144 0 -253 -68.5t-166.5 -187.5t-57.5 -270zM463 1583q0 43 31 75t75 32t75.5 -32t31.5 -75q0 -44 -31.5 -76t-75.5 -32t-75 32t-31 76zM887 1583q0 43 32.5 75t75.5 32t75 -32t32 -75q0 -44 -32 -76t-75 -32t-75.5 32t-32.5 76z" />
<glyph unicode="&#xd7;" horiz-adv-x="1024" d="M147 381q0 22 19 41l260 262l-260 260q-19 19 -19 41q0 25 17.5 44.5t44.5 19.5q23 0 43 -17l260 -262l262 262q17 17 39 17q24 0 44 -18.5t20 -45.5q0 -21 -17 -41l-260 -260l260 -262q17 -20 17 -41q0 -26 -20 -45t-42 -19q-25 0 -41 19l-262 262l-260 -262 q-19 -19 -41 -19q-25 0 -44.5 19t-19.5 45z" />
<glyph unicode="&#xd8;" horiz-adv-x="1566" d="M94 682q0 201 86 362t243.5 253t358.5 92q190 0 346 -86l37 53q15 24 49 24q26 0 46 -17t20 -44q0 -20 -10 -33l-37 -55q113 -96 175 -238t62 -311q0 -151 -51 -281.5t-140.5 -224.5t-218 -147.5t-278.5 -53.5q-201 0 -360 95l-43 -62q-15 -24 -47 -24q-27 0 -47.5 17.5 t-20.5 43.5q0 20 12 35l43 63q-107 96 -166 235.5t-59 303.5zM305 682q0 -236 129 -377l584 844q-105 59 -236 59q-144 0 -253 -68.5t-166.5 -187.5t-57.5 -270zM530 223q104 -67 252 -67q215 0 347.5 148.5t132.5 377.5q0 118 -37.5 218t-106.5 169z" />
<glyph unicode="&#xd9;" horiz-adv-x="1452" d="M154 535v745q0 40 30 69t74 29q40 0 69 -29t29 -69v-739q0 -180 96 -282.5t275 -102.5q178 0 273.5 102.5t95.5 282.5v739q0 41 29.5 69.5t74.5 28.5q41 0 69.5 -29t28.5 -69v-743q0 -262 -146 -412t-425 -150q-280 0 -426.5 150.5t-146.5 409.5zM455 1729 q0 22 18.5 39.5t42.5 17.5t41 -17l223 -219q13 -16 13 -32q0 -19 -14.5 -34.5t-35.5 -15.5q-14 0 -30 13l-240 207q-18 15 -18 41z" />
<glyph unicode="&#xda;" horiz-adv-x="1452" d="M154 535v745q0 40 30 69t74 29q40 0 69 -29t29 -69v-739q0 -180 96 -282.5t275 -102.5q178 0 273.5 102.5t95.5 282.5v739q0 41 29.5 69.5t74.5 28.5q41 0 69.5 -29t28.5 -69v-743q0 -262 -146 -412t-425 -150q-280 0 -426.5 150.5t-146.5 409.5zM662 1518q0 20 12 32 l221 219q17 17 43 17q23 0 42 -16.5t19 -40.5q0 -23 -18 -41l-242 -207q-13 -13 -28 -13q-19 0 -34 14.5t-15 35.5z" />
<glyph unicode="&#xdb;" horiz-adv-x="1452" d="M154 535v745q0 40 30 69t74 29q40 0 69 -29t29 -69v-739q0 -180 96 -282.5t275 -102.5q178 0 273.5 102.5t95.5 282.5v739q0 41 29.5 69.5t74.5 28.5q41 0 69.5 -29t28.5 -69v-743q0 -262 -146 -412t-425 -150q-280 0 -426.5 150.5t-146.5 409.5zM481 1516q0 11 11 26 l118 182q41 64 121 64q34 0 65 -17.5t50 -46.5l125 -182q8 -8 8 -26q0 -17 -15 -33.5t-38 -16.5q-21 0 -37 19l-160 203l-156 -201q-16 -19 -38 -19q-21 0 -37.5 14t-16.5 34z" />
<glyph unicode="&#xdc;" horiz-adv-x="1452" d="M154 535v745q0 40 30 69t74 29q40 0 69 -29t29 -69v-739q0 -180 96 -282.5t275 -102.5q178 0 273.5 102.5t95.5 282.5v739q0 41 29.5 69.5t74.5 28.5q41 0 69.5 -29t28.5 -69v-743q0 -262 -146 -412t-425 -150q-280 0 -426.5 150.5t-146.5 409.5zM410 1583q0 43 31 75 t75 32t75.5 -32t31.5 -75q0 -44 -31.5 -76t-75.5 -32t-75 32t-31 76zM834 1583q0 43 32.5 75t75.5 32t75 -32t32 -75q0 -44 -32 -76t-75 -32t-75.5 32t-32.5 76z" />
<glyph unicode="&#xdd;" horiz-adv-x="1292" d="M86 1282q0 37 27 66.5t69 29.5q55 0 84 -43l381 -581l379 579q12 20 34 31.5t46 11.5q41 0 69.5 -28.5t28.5 -65.5q0 -29 -14 -51l-442 -658v-485q0 -42 -29.5 -71t-73.5 -29q-41 0 -69.5 29.5t-28.5 70.5v485l-445 660q-16 22 -16 49zM582 1518q0 20 12 32l221 219 q17 17 43 17q23 0 42.5 -16.5t19.5 -40.5q0 -22 -19 -41l-242 -207q-13 -13 -28 -13q-19 0 -34 14.5t-15 35.5z" />
<glyph unicode="&#xde;" horiz-adv-x="1222" d="M154 96v1176q0 40 30 69t74 29q40 0 69 -29t29 -69v-144h371q136 0 236.5 -58.5t150 -153t49.5 -209.5q0 -177 -118 -296.5t-318 -119.5h-371v-195q0 -41 -29.5 -70.5t-72.5 -29.5q-41 0 -70.5 29.5t-29.5 70.5zM356 469h344q113 0 183.5 66t70.5 172q0 107 -70.5 174 t-183.5 67h-344v-479z" />
<glyph unicode="&#xdf;" horiz-adv-x="1247" d="M147 78v932q0 160 112.5 268t299.5 108q154 0 264.5 -74t110.5 -194q0 -53 -22 -97t-55 -71t-71.5 -54t-71.5 -48.5t-55 -53t-22 -67.5q0 -35 24.5 -60t65 -38t92 -27t105 -26t105 -35t92 -53.5t65 -83.5t24.5 -123q0 -131 -103 -218.5t-286 -87.5q-228 0 -348 127 q-22 22 -22 54q0 31 20 53t49 22q23 0 45 -16q108 -94 256 -94q102 0 157.5 45t55.5 110q0 44 -31.5 74t-82 47t-111.5 31.5t-122.5 35t-112 50t-82 82.5t-31.5 127q0 51 21.5 95t53 72t69 55.5t69 48t53 47t21.5 53.5q0 61 -58.5 96t-132.5 35q-97 0 -162 -59t-65 -156 v-932q0 -37 -27 -63.5t-65 -26.5q-37 0 -64 26.5t-27 63.5z" />
<glyph unicode="&#xe0;" horiz-adv-x="1087" d="M90 303q0 80 30.5 144t80.5 102t109.5 58t123.5 20q210 0 326 -131v166q0 92 -67.5 145t-174.5 53q-136 0 -248 -86q-22 -16 -45 -16q-29 0 -52 20t-23 51q0 27 18 48q67 67 169 102t208 35q83 0 152.5 -19t125.5 -58t87.5 -107.5t31.5 -159.5v-592q0 -37 -27 -63.5 t-65 -26.5h-6q-31 0 -57.5 24.5t-26.5 65.5v33q-124 -136 -326 -136q-63 0 -123 21.5t-110 61t-80.5 103.5t-30.5 142zM272 1386q0 22 19 40t43 18t41 -17l223 -219q12 -15 12 -32q0 -20 -14 -35t-35 -15q-15 0 -31 13l-239 207q-19 16 -19 40zM274 299q0 -86 65 -140.5 t165 -54.5q79 0 147.5 29t108.5 84v168q-40 56 -108.5 85.5t-147.5 29.5q-100 0 -165 -56t-65 -145z" />
<glyph unicode="&#xe1;" horiz-adv-x="1087" d="M90 303q0 80 30.5 144t80.5 102t109.5 58t123.5 20q210 0 326 -131v166q0 92 -67.5 145t-174.5 53q-136 0 -248 -86q-22 -16 -45 -16q-29 0 -52 20t-23 51q0 27 18 48q67 67 169 102t208 35q83 0 152.5 -19t125.5 -58t87.5 -107.5t31.5 -159.5v-592q0 -37 -27 -63.5 t-65 -26.5h-6q-31 0 -57.5 24.5t-26.5 65.5v33q-124 -136 -326 -136q-63 0 -123 21.5t-110 61t-80.5 103.5t-30.5 142zM274 299q0 -86 65 -140.5t165 -54.5q79 0 147.5 29t108.5 84v168q-40 56 -108.5 85.5t-147.5 29.5q-100 0 -165 -56t-65 -145zM479 1176q0 19 13 32 l221 219q17 17 43 17q23 0 42 -17t19 -41q0 -22 -18 -40l-242 -207q-13 -13 -29 -13q-19 0 -34 14.5t-15 35.5z" />
<glyph unicode="&#xe2;" horiz-adv-x="1087" d="M90 303q0 80 30.5 144t80.5 102t109.5 58t123.5 20q210 0 326 -131v166q0 92 -67.5 145t-174.5 53q-136 0 -248 -86q-22 -16 -45 -16q-29 0 -52 20t-23 51q0 27 18 48q67 67 169 102t208 35q83 0 152.5 -19t125.5 -58t87.5 -107.5t31.5 -159.5v-592q0 -37 -27 -63.5 t-65 -26.5h-6q-31 0 -57.5 24.5t-26.5 65.5v33q-124 -136 -326 -136q-63 0 -123 21.5t-110 61t-80.5 103.5t-30.5 142zM274 299q0 -86 65 -140.5t165 -54.5q79 0 147.5 29t108.5 84v168q-40 56 -108.5 85.5t-147.5 29.5q-100 0 -165 -56t-65 -145zM297 1174q0 13 10 26 l119 182q41 64 121 64q34 0 65 -17.5t50 -46.5l124 -182q9 -9 9 -26t-15.5 -33.5t-38.5 -16.5q-20 0 -36 19l-160 203l-156 -201q-16 -19 -39 -19q-21 0 -37 14t-16 34z" />
<glyph unicode="&#xe3;" horiz-adv-x="1087" d="M90 303q0 80 30.5 144t80.5 102t109.5 58t123.5 20q210 0 326 -131v166q0 92 -67.5 145t-174.5 53q-136 0 -248 -86q-22 -16 -45 -16q-29 0 -52 20t-23 51q0 27 18 48q67 67 169 102t208 35q83 0 152.5 -19t125.5 -58t87.5 -107.5t31.5 -159.5v-592q0 -37 -27 -63.5 t-65 -26.5h-6q-31 0 -57.5 24.5t-26.5 65.5v33q-124 -136 -326 -136q-63 0 -123 21.5t-110 61t-80.5 103.5t-30.5 142zM223 1190q0 93 56.5 162t146.5 69q40 0 71.5 -18t52 -43.5t38.5 -51t39.5 -43.5t46.5 -18q74 0 88 115q3 22 20 36.5t39 14.5q21 0 33 -14.5t12 -34.5 q-7 -98 -57.5 -163.5t-142.5 -65.5q-41 0 -73 18t-52 44t-37.5 52t-39 44t-46.5 18q-72 0 -90 -117q-1 -22 -19 -36.5t-41 -14.5q-20 0 -32.5 14t-12.5 33zM274 299q0 -86 65 -140.5t165 -54.5q79 0 147.5 29t108.5 84v168q-40 56 -108.5 85.5t-147.5 29.5q-100 0 -165 -56 t-65 -145z" />
<glyph unicode="&#xe4;" horiz-adv-x="1087" d="M90 303q0 80 30.5 144t80.5 102t109.5 58t123.5 20q210 0 326 -131v166q0 92 -67.5 145t-174.5 53q-136 0 -248 -86q-22 -16 -45 -16q-29 0 -52 20t-23 51q0 27 18 48q67 67 169 102t208 35q83 0 152.5 -19t125.5 -58t87.5 -107.5t31.5 -159.5v-592q0 -37 -27 -63.5 t-65 -26.5h-6q-31 0 -57.5 24.5t-26.5 65.5v33q-124 -136 -326 -136q-63 0 -123 21.5t-110 61t-80.5 103.5t-30.5 142zM225 1241q0 43 31.5 75t75.5 32t75 -32t31 -75q0 -44 -31 -76t-75 -32t-75.5 32t-31.5 76zM274 299q0 -86 65 -140.5t165 -54.5q79 0 147.5 29t108.5 84 v168q-40 56 -108.5 85.5t-147.5 29.5q-100 0 -165 -56t-65 -145zM649 1241q0 43 33 75t76 32t74.5 -32t31.5 -75q0 -44 -31.5 -76t-74.5 -32t-76 32t-33 76z" />
<glyph unicode="&#xe5;" horiz-adv-x="1087" d="M90 303q0 80 30.5 144t80.5 102t109.5 58t123.5 20q210 0 326 -131v166q0 92 -67.5 145t-174.5 53q-136 0 -248 -86q-22 -16 -45 -16q-29 0 -52 20t-23 51q0 27 18 48q67 67 169 102t208 35q83 0 152.5 -19t125.5 -58t87.5 -107.5t31.5 -159.5v-592q0 -37 -27 -63.5 t-65 -26.5h-6q-31 0 -57.5 24.5t-26.5 65.5v33q-124 -136 -326 -136q-63 0 -123 21.5t-110 61t-80.5 103.5t-30.5 142zM274 299q0 -86 65 -140.5t165 -54.5q79 0 147.5 29t108.5 84v168q-40 56 -108.5 85.5t-147.5 29.5q-100 0 -165 -56t-65 -145zM342 1311q0 84 60.5 145.5 t144.5 61.5t144.5 -61.5t60.5 -145.5q0 -85 -60 -145t-145 -60t-145 60t-60 145zM434 1311q0 -46 33.5 -80.5t79.5 -34.5q47 0 79.5 34.5t32.5 80.5q0 47 -32.5 79.5t-79.5 32.5q-46 0 -79.5 -32.5t-33.5 -79.5z" />
<glyph unicode="&#xe6;" horiz-adv-x="1810" d="M90 301q0 154 105 240t258 86q228 0 352 -127v164q0 91 -71.5 143.5t-190.5 52.5q-155 0 -273 -88q-17 -14 -43 -14q-28 0 -51.5 20t-23.5 51q0 30 18 48q69 67 176 102t219 35q129 0 223.5 -51.5t124.5 -151.5q126 203 365 203q165 0 277 -98.5t151 -270.5 q16 -70 16 -115q0 -39 -27.5 -66.5t-66.5 -27.5h-641q13 -133 95.5 -220t217.5 -87q125 0 222 72q21 12 47 12q30 0 53 -20.5t23 -51.5q0 -26 -19 -45q-61 -60 -153 -90.5t-183 -30.5q-270 0 -391 222q-55 -100 -164.5 -161t-242.5 -61q-110 0 -199.5 35.5t-146 111 t-56.5 179.5zM274 311q0 -85 69.5 -134.5t180.5 -49.5q118 0 199.5 72t81.5 163v21q-45 55 -120 86t-159 31q-111 0 -181.5 -52t-70.5 -137zM987 565h559q-1 53 -17.5 104t-48 96t-87.5 73t-127 28q-86 0 -150.5 -47.5t-95 -114t-33.5 -139.5z" />
<glyph unicode="&#xe7;" horiz-adv-x="1015" d="M88 496q0 223 140.5 370.5t361.5 147.5q216 0 330 -131q14 -17 14 -43q0 -34 -25 -58t-59 -24q-32 0 -57 22q-81 72 -193 72q-146 0 -235 -99.5t-89 -256.5t89 -258t235 -101q110 0 193 74q24 18 57 18q34 0 60 -21.5t26 -55.5q0 -30 -16 -46q-94 -114 -289 -129l-33 -83 q33 20 76 20q60 0 97.5 -38t37.5 -101q0 -75 -62.5 -120.5t-154.5 -45.5q-73 0 -141 23.5t-68 62.5q0 20 14 33.5t33 13.5q10 0 19 -6q63 -39 139 -39q49 0 84 22t35 60q0 30 -18 47.5t-54 17.5q-17 0 -46 -15t-44 -15q-21 0 -36 15t-15 36q0 10 2 16l36 99 q-199 20 -321.5 162.5t-122.5 353.5z" />
<glyph unicode="&#xe8;" horiz-adv-x="1146" d="M88 496q0 142 63 260.5t176.5 188t254.5 69.5q176 0 296 -100.5t164 -270.5q19 -78 19 -115t-28 -64.5t-66 -27.5h-688q11 -133 101.5 -223t235.5 -90q135 0 246 82q20 10 41 10q27 0 50.5 -21t23.5 -53q0 -39 -41 -72.5t-102 -53t-123.5 -30t-112.5 -10.5 q-223 0 -366.5 144.5t-143.5 376.5zM279 565h606q-2 52 -20.5 103.5t-53.5 96.5t-95.5 73t-135.5 28q-71 0 -128.5 -27.5t-93.5 -72t-56 -96.5t-23 -105zM309 1386q0 22 19 40t43 18t41 -17l223 -219q12 -15 12 -32q0 -20 -14 -35t-35 -15q-15 0 -31 13l-239 207 q-19 16 -19 40z" />
<glyph unicode="&#xe9;" horiz-adv-x="1146" d="M88 496q0 142 63 260.5t176.5 188t254.5 69.5q176 0 296 -100.5t164 -270.5q19 -78 19 -115t-28 -64.5t-66 -27.5h-688q11 -133 101.5 -223t235.5 -90q135 0 246 82q20 10 41 10q27 0 50.5 -21t23.5 -53q0 -39 -41 -72.5t-102 -53t-123.5 -30t-112.5 -10.5 q-223 0 -366.5 144.5t-143.5 376.5zM279 565h606q-2 52 -20.5 103.5t-53.5 96.5t-95.5 73t-135.5 28q-71 0 -128.5 -27.5t-93.5 -72t-56 -96.5t-23 -105zM518 1176q0 20 12 32l222 219q17 17 43 17q23 0 42 -17t19 -41q0 -22 -18 -40l-242 -207q-13 -13 -29 -13 q-19 0 -34 14.5t-15 35.5z" />
<glyph unicode="&#xea;" horiz-adv-x="1146" d="M88 496q0 142 63 260.5t176.5 188t254.5 69.5q176 0 296 -100.5t164 -270.5q19 -78 19 -115t-28 -64.5t-66 -27.5h-688q11 -133 101.5 -223t235.5 -90q135 0 246 82q20 10 41 10q27 0 50.5 -21t23.5 -53q0 -39 -41 -72.5t-102 -53t-123.5 -30t-112.5 -10.5 q-223 0 -366.5 144.5t-143.5 376.5zM279 565h606q-2 52 -20.5 103.5t-53.5 96.5t-95.5 73t-135.5 28q-71 0 -128.5 -27.5t-93.5 -72t-56 -96.5t-23 -105zM334 1174q0 13 10 26l119 182q41 64 121 64q34 0 64.5 -17.5t49.5 -46.5l125 -182q8 -8 8 -26q0 -17 -15 -33.5 t-38 -16.5q-21 0 -37 19l-159 203l-156 -201q-16 -19 -39 -19q-21 0 -37 14t-16 34z" />
<glyph unicode="&#xeb;" horiz-adv-x="1146" d="M88 496q0 142 63 260.5t176.5 188t254.5 69.5q176 0 296 -100.5t164 -270.5q19 -78 19 -115t-28 -64.5t-66 -27.5h-688q11 -133 101.5 -223t235.5 -90q135 0 246 82q20 10 41 10q27 0 50.5 -21t23.5 -53q0 -39 -41 -72.5t-102 -53t-123.5 -30t-112.5 -10.5 q-223 0 -366.5 144.5t-143.5 376.5zM264 1241q0 43 31.5 75t75.5 32t75 -32t31 -75q0 -44 -31 -76t-75 -32t-75.5 32t-31.5 76zM279 565h606q-2 52 -20.5 103.5t-53.5 96.5t-95.5 73t-135.5 28q-71 0 -128.5 -27.5t-93.5 -72t-56 -96.5t-23 -105zM688 1241q0 43 33 75t76 32 t74.5 -32t31.5 -75q0 -44 -31.5 -76t-74.5 -32t-76 32t-33 76z" />
<glyph unicode="&#xec;" horiz-adv-x="477" d="M-33 1386q0 22 19 40t43 18t41 -17l223 -219q12 -15 12 -32q0 -20 -14 -35t-35 -15q-15 0 -31 13l-239 207q-19 16 -19 40zM147 78v835q0 36 28 62t67 26q35 0 61.5 -26.5t26.5 -61.5v-835q0 -37 -27 -63.5t-65 -26.5q-37 0 -64 26.5t-27 63.5z" />
<glyph unicode="&#xed;" horiz-adv-x="477" d="M147 78v835q0 36 28 62t67 26q35 0 61.5 -26.5t26.5 -61.5v-835q0 -37 -27 -63.5t-65 -26.5q-37 0 -64 26.5t-27 63.5zM174 1176q0 20 12 32l222 219q17 17 43 17q23 0 42 -17t19 -41q0 -22 -18 -40l-242 -207q-13 -13 -29 -13q-19 0 -34 14.5t-15 35.5z" />
<glyph unicode="&#xee;" horiz-adv-x="477" d="M-10 1174q0 13 10 26l119 182q41 64 121 64q34 0 64.5 -17.5t49.5 -46.5l125 -182q8 -8 8 -26q0 -17 -15 -33.5t-38 -16.5q-21 0 -37 19l-159 203l-156 -201q-16 -19 -39 -19q-21 0 -37 14t-16 34zM147 78v835q0 36 28 62t67 26q35 0 61.5 -26.5t26.5 -61.5v-835 q0 -37 -27 -63.5t-65 -26.5q-37 0 -64 26.5t-27 63.5z" />
<glyph unicode="&#xef;" horiz-adv-x="477" d="M-78 1241q0 43 31.5 75t75.5 32t75 -32t31 -75q0 -44 -31 -76t-75 -32t-75.5 32t-31.5 76zM147 78v835q0 36 28 62t67 26q35 0 61.5 -26.5t26.5 -61.5v-835q0 -37 -27 -63.5t-65 -26.5q-37 0 -64 26.5t-27 63.5zM346 1241q0 43 33 75t76 32t74.5 -32t31.5 -75 q0 -44 -31.5 -76t-74.5 -32t-76 32t-33 76z" />
<glyph unicode="&#xf0;" d="M88 473q0 216 126 357t321 141q199 0 325 -185q-96 180 -325 347l-252 -111q-12 -6 -21 -6q-20 0 -35.5 15.5t-15.5 39.5q0 30 31 47l192 84q-25 14 -39 23.5t-35 26t-31 34.5t-10 37q0 37 28.5 63.5t64.5 26.5q9 0 19 -2.5t23 -9t23.5 -12t26 -16t25 -17t27 -19.5 t23.5 -18t23.5 -19t20.5 -16l178 78q8 4 18 4q19 0 34 -13.5t15 -35.5q0 -35 -28 -47l-127 -58q372 -319 372 -704q0 -236 -135.5 -384.5t-363.5 -148.5q-222 0 -360 141t-138 357zM276 473q0 -140 84 -238t226 -98q143 0 226 97.5t83 238.5t-83 238.5t-226 97.5 q-142 0 -226 -98t-84 -238z" />
<glyph unicode="&#xf1;" horiz-adv-x="1144" d="M147 78v835q0 36 28 62t67 26q35 0 61.5 -26.5t26.5 -61.5v-63q57 68 150.5 116t199.5 48q157 0 237 -80.5t80 -237.5v-618q0 -37 -27 -63.5t-65 -26.5q-37 0 -63.5 26.5t-26.5 63.5v557q0 117 -54.5 167t-156.5 50q-83 0 -157 -42t-117 -103v-629q0 -37 -27 -63.5 t-65 -26.5q-37 0 -64 26.5t-27 63.5zM252 1190q0 93 56.5 162t146.5 69q40 0 71.5 -18t51.5 -43.5t38 -51t39.5 -43.5t46.5 -18q75 0 89 115q3 22 20 36.5t39 14.5q21 0 33 -14.5t12 -34.5q-7 -97 -58 -163t-143 -66q-41 0 -73 18t-52 44t-37.5 52t-39 44t-46.5 18 q-72 0 -90 -117q-1 -22 -18.5 -36.5t-40.5 -14.5q-20 0 -32.5 14t-12.5 33z" />
<glyph unicode="&#xf2;" d="M88 496q0 143 59.5 260t174.5 187.5t264 70.5q150 0 265 -70.5t174.5 -187.5t59.5 -260t-59.5 -261t-174.5 -189t-265 -71q-149 0 -264 71t-174.5 189t-59.5 261zM276 496q0 -149 84 -254t226 -105q143 0 226 104.5t83 254.5q0 149 -83 252.5t-226 103.5 q-142 0 -226 -104t-84 -252zM313 1386q0 22 19 40t43 18t41 -17l223 -219q12 -15 12 -32q0 -20 -14 -35t-35 -15q-15 0 -31 13l-239 207q-19 16 -19 40z" />
<glyph unicode="&#xf3;" d="M88 496q0 143 59.5 260t174.5 187.5t264 70.5q150 0 265 -70.5t174.5 -187.5t59.5 -260t-59.5 -261t-174.5 -189t-265 -71q-149 0 -264 71t-174.5 189t-59.5 261zM276 496q0 -149 84 -254t226 -105q143 0 226 104.5t83 254.5q0 149 -83 252.5t-226 103.5 q-142 0 -226 -104t-84 -252zM522 1176q0 19 13 32l221 219q17 17 43 17q23 0 42 -17t19 -41q0 -22 -18 -40l-242 -207q-13 -13 -29 -13q-19 0 -34 14.5t-15 35.5z" />
<glyph unicode="&#xf4;" d="M88 496q0 143 59.5 260t174.5 187.5t264 70.5q150 0 265 -70.5t174.5 -187.5t59.5 -260t-59.5 -261t-174.5 -189t-265 -71q-149 0 -264 71t-174.5 189t-59.5 261zM276 496q0 -149 84 -254t226 -105q143 0 226 104.5t83 254.5q0 149 -83 252.5t-226 103.5 q-142 0 -226 -104t-84 -252zM336 1174q0 13 10 26l119 182q41 64 121 64q34 0 64.5 -17.5t49.5 -46.5l125 -182q9 -9 9 -26t-15.5 -33.5t-38.5 -16.5q-21 0 -37 19l-159 203l-156 -201q-16 -19 -39 -19q-21 0 -37 14t-16 34z" />
<glyph unicode="&#xf5;" d="M88 496q0 143 59.5 260t174.5 187.5t264 70.5q150 0 265 -70.5t174.5 -187.5t59.5 -260t-59.5 -261t-174.5 -189t-265 -71q-149 0 -264 71t-174.5 189t-59.5 261zM264 1190q0 93 56.5 162t146.5 69q40 0 71.5 -18t52 -43.5t38.5 -51t39.5 -43.5t46.5 -18q74 0 88 115 q3 22 20 36.5t39 14.5q21 0 33 -14.5t12 -34.5q-7 -98 -57.5 -163.5t-142.5 -65.5q-41 0 -73 18t-52 44t-37.5 52t-39 44t-46.5 18q-72 0 -90 -117q-1 -22 -19 -36.5t-41 -14.5q-20 0 -32.5 14t-12.5 33zM276 496q0 -149 84 -254t226 -105q143 0 226 104.5t83 254.5 q0 149 -83 252.5t-226 103.5q-142 0 -226 -104t-84 -252z" />
<glyph unicode="&#xf6;" d="M88 496q0 143 59.5 260t174.5 187.5t264 70.5q150 0 265 -70.5t174.5 -187.5t59.5 -260t-59.5 -261t-174.5 -189t-265 -71q-149 0 -264 71t-174.5 189t-59.5 261zM266 1241q0 43 31.5 75t75.5 32t75 -32t31 -75q0 -44 -31 -76t-75 -32t-75.5 32t-31.5 76zM276 496 q0 -149 84 -254t226 -105q143 0 226 104.5t83 254.5q0 149 -83 252.5t-226 103.5q-142 0 -226 -104t-84 -252zM690 1241q0 43 33 75t76 32t74.5 -32t31.5 -75q0 -44 -31.5 -76t-74.5 -32t-76 32t-33 76z" />
<glyph unicode="&#xf7;" horiz-adv-x="1046" d="M55 692q0 25 17.5 42.5t42.5 17.5h817q25 0 42 -17.5t17 -42.5q0 -27 -17 -44t-42 -17h-817q-25 0 -42.5 17t-17.5 44zM422 301q0 43 29.5 74t70.5 31q43 0 74 -31t31 -74q0 -41 -31 -71.5t-74 -30.5q-41 0 -70.5 30.5t-29.5 71.5zM422 1071q0 43 29.5 73t70.5 30 q43 0 74 -30t31 -73q0 -41 -31 -71.5t-74 -30.5q-41 0 -70.5 30.5t-29.5 71.5z" />
<glyph unicode="&#xf8;" d="M88 496q0 143 59.5 260t174.5 187.5t264 70.5q160 0 282 -82l52 61q8 17 32 17q20 0 36 -13.5t16 -33.5q0 -13 -11 -31l-51 -64q143 -146 143 -372q0 -143 -59.5 -261t-174.5 -189t-265 -71q-170 0 -293 91l-57 -72q-14 -17 -33 -17t-34 15t-15 35q0 18 10 28l57 74 q-133 145 -133 367zM276 496q0 -127 62 -224l420 525q-71 55 -172 55q-142 0 -226 -104t-84 -252zM403 199q75 -62 183 -62q143 0 226 104.5t83 254.5q0 133 -70 231z" />
<glyph unicode="&#xf9;" horiz-adv-x="1144" d="M147 289v624q0 36 28 62t67 26q35 0 61.5 -26.5t26.5 -61.5v-561q0 -117 54.5 -166t156.5 -49q82 0 156 40.5t118 101.5v634q0 36 27.5 62t66.5 26q35 0 61.5 -26.5t26.5 -61.5v-835q0 -37 -27 -63.5t-65 -26.5q-37 0 -63.5 26.5t-26.5 63.5v57q-61 -69 -153 -114.5 t-199 -45.5q-316 0 -316 314zM299 1386q0 22 18.5 40t42.5 18t41 -17l224 -219q12 -15 12 -32q0 -20 -14 -35t-35 -15q-15 0 -31 13l-240 207q-18 15 -18 40z" />
<glyph unicode="&#xfa;" horiz-adv-x="1144" d="M147 289v624q0 36 28 62t67 26q35 0 61.5 -26.5t26.5 -61.5v-561q0 -117 54.5 -166t156.5 -49q82 0 156 40.5t118 101.5v634q0 36 27.5 62t66.5 26q35 0 61.5 -26.5t26.5 -61.5v-835q0 -37 -27 -63.5t-65 -26.5q-37 0 -63.5 26.5t-26.5 63.5v57q-61 -69 -153 -114.5 t-199 -45.5q-316 0 -316 314zM506 1176q0 20 12 32l221 219q17 17 43 17q23 0 42.5 -17t19.5 -41q0 -21 -19 -40l-241 -207q-13 -13 -29 -13q-19 0 -34 14.5t-15 35.5z" />
<glyph unicode="&#xfb;" horiz-adv-x="1144" d="M147 289v624q0 36 28 62t67 26q35 0 61.5 -26.5t26.5 -61.5v-561q0 -117 54.5 -166t156.5 -49q82 0 156 40.5t118 101.5v634q0 36 27.5 62t66.5 26q35 0 61.5 -26.5t26.5 -61.5v-835q0 -37 -27 -63.5t-65 -26.5q-37 0 -63.5 26.5t-26.5 63.5v57q-61 -69 -153 -114.5 t-199 -45.5q-316 0 -316 314zM322 1174q0 13 10 26l119 182q41 64 120 64q34 0 65 -17.5t50 -46.5l125 -182q8 -8 8 -26q0 -17 -15 -33.5t-38 -16.5q-21 0 -37 19l-160 203l-155 -201q-16 -19 -39 -19q-21 0 -37 14t-16 34z" />
<glyph unicode="&#xfc;" horiz-adv-x="1144" d="M147 289v624q0 36 28 62t67 26q35 0 61.5 -26.5t26.5 -61.5v-561q0 -117 54.5 -166t156.5 -49q82 0 156 40.5t118 101.5v634q0 36 27.5 62t66.5 26q35 0 61.5 -26.5t26.5 -61.5v-835q0 -37 -27 -63.5t-65 -26.5q-37 0 -63.5 26.5t-26.5 63.5v57q-61 -69 -153 -114.5 t-199 -45.5q-316 0 -316 314zM254 1241q0 43 31 75t75 32t75.5 -32t31.5 -75q0 -44 -31.5 -76t-75.5 -32t-75 32t-31 76zM678 1241q0 43 32.5 75t75.5 32t75 -32t32 -75q0 -44 -32 -76t-75 -32t-75.5 32t-32.5 76z" />
<glyph unicode="&#xfd;" horiz-adv-x="1015" d="M39 911q0 35 26 62.5t66 27.5q27 0 50.5 -15t33.5 -42l293 -733l291 733q10 26 34 41.5t52 15.5q39 0 65.5 -27t26.5 -63q0 -18 -6 -30l-443 -1071q-89 -211 -305 -211q-131 0 -131 82q0 35 24 58t58 23h47q89 0 133 95l58 131l-367 893q-6 15 -6 30zM442 1176 q0 19 13 32l221 219q17 17 43 17q23 0 42 -17t19 -41q0 -22 -18 -40l-242 -207q-13 -13 -28 -13q-19 0 -34.5 14.5t-15.5 35.5z" />
<glyph unicode="&#xfe;" horiz-adv-x="1177" d="M147 -293v1575q0 36 28 62t67 26q35 0 61.5 -26.5t26.5 -61.5v-434q56 76 141 121t184 45q197 0 319 -139.5t122 -378.5q0 -238 -122.5 -379.5t-318.5 -141.5q-202 0 -325 168v-436q0 -36 -27 -62t-65 -26q-37 0 -64 26.5t-27 61.5zM330 285q38 -62 115.5 -105t158.5 -43 q137 0 218 100.5t81 258.5t-81 257t-218 99q-82 0 -159 -42t-115 -103v-422z" />
<glyph unicode="&#xff;" horiz-adv-x="1015" d="M39 911q0 35 26 62.5t66 27.5q27 0 50.5 -15t33.5 -42l293 -733l291 733q10 26 34 41.5t52 15.5q39 0 65.5 -27t26.5 -63q0 -18 -6 -30l-443 -1071q-89 -211 -305 -211q-131 0 -131 82q0 35 24 58t58 23h47q89 0 133 95l58 131l-367 893q-6 15 -6 30zM188 1241 q0 43 31.5 75t75.5 32t75 -32t31 -75q0 -44 -31 -76t-75 -32t-75.5 32t-31.5 76zM612 1241q0 43 33 75t76 32t74.5 -32t31.5 -75q0 -44 -31.5 -76t-74.5 -32t-76 32t-33 76z" />
<glyph unicode="&#x152;" horiz-adv-x="2250" d="M94 682q0 201 84 361.5t237.5 251.5t348.5 91q141 0 268.5 -63t198.5 -180q-4 64 5.5 111.5t41.5 79.5t86 32h709q36 0 61 -26.5t25 -65.5q0 -35 -25.5 -61.5t-60.5 -26.5h-639v-400h624q36 0 61 -26.5t25 -65.5q0 -35 -25.5 -61.5t-60.5 -26.5h-624v-426h639 q35 0 60.5 -26.5t25.5 -61.5q0 -39 -25 -65.5t-61 -26.5h-709q-78 0 -109 61.5t-24 161.5q-71 -119 -198.5 -183.5t-268.5 -64.5q-195 0 -348.5 92t-237.5 253t-84 362zM305 682q0 -230 131.5 -378t351.5 -148q152 0 269.5 78.5t173.5 226.5v442q-56 149 -173 226t-270 77 q-221 0 -352 -146.5t-131 -377.5z" />
<glyph unicode="&#x153;" horiz-adv-x="1953" d="M88 496q0 143 59.5 260t174.5 187.5t264 70.5q68 0 128 -18.5t101.5 -45.5t77.5 -65t57 -70t39 -67q21 45 52.5 86.5t79.5 84.5t118 69t150 26q175 0 295 -99t163 -272q17 -70 17 -113q0 -38 -28 -66t-67 -28h-682q11 -134 100.5 -223.5t235.5 -89.5q135 0 246 82 q20 10 41 10q27 0 50.5 -21t23.5 -53q0 -30 -21 -51q-65 -56 -160 -85.5t-196 -29.5q-87 0 -160 25t-123 68t-81.5 84.5t-55.5 89.5q-136 -267 -401 -267q-149 0 -264 71t-174.5 189t-59.5 261zM276 496q0 -153 85.5 -257t224.5 -104q141 0 225 103.5t84 257.5 q0 152 -84 254t-225 102q-139 0 -224.5 -102t-85.5 -254zM1085 565h607q-2 52 -20.5 103.5t-54 96.5t-96 73t-135.5 28q-71 0 -128.5 -27.5t-93.5 -72t-56 -96.5t-23 -105z" />
<glyph unicode="&#x178;" horiz-adv-x="1292" d="M86 1282q0 37 27 66.5t69 29.5q55 0 84 -43l381 -581l379 579q12 20 34 31.5t46 11.5q41 0 69.5 -28.5t28.5 -65.5q0 -29 -14 -51l-442 -658v-485q0 -42 -29.5 -71t-73.5 -29q-41 0 -69.5 29.5t-28.5 70.5v485l-445 660q-16 22 -16 49zM330 1583q0 43 31 75t75 32 t75.5 -32t31.5 -75q0 -44 -31.5 -76t-75.5 -32t-75 32t-31 76zM754 1583q0 43 32.5 75t75.5 32t75 -32t32 -75q0 -44 -32 -76t-75 -32t-75.5 32t-32.5 76z" />
<glyph unicode="&#x2c6;" horiz-adv-x="561" d="M31 1174q0 13 10 26l119 182q41 64 121 64q34 0 64.5 -17.5t49.5 -46.5l125 -182q8 -8 8 -26q0 -17 -15 -33.5t-38 -16.5q-21 0 -37 19l-159 203l-156 -201q-16 -19 -39 -19q-21 0 -37 14t-16 34z" />
<glyph unicode="&#x2dc;" horiz-adv-x="649" d="M2 1190q0 93 56.5 162t146.5 69q40 0 71.5 -18t52 -43.5t38.5 -51t39.5 -43.5t46.5 -18q74 0 88 115q3 22 20 36.5t39 14.5q21 0 33 -14.5t12 -34.5q-7 -97 -58 -163t-143 -66q-34 0 -62.5 13t-46.5 32.5t-35 42.5t-30.5 42.5t-32.5 32.5t-40 13q-73 0 -91 -117 q-1 -22 -18.5 -36.5t-40.5 -14.5q-20 0 -32.5 14t-12.5 33z" />
<glyph unicode="&#x2000;" horiz-adv-x="912" />
<glyph unicode="&#x2001;" horiz-adv-x="1825" />
<glyph unicode="&#x2002;" horiz-adv-x="912" />
<glyph unicode="&#x2003;" horiz-adv-x="1825" />
<glyph unicode="&#x2004;" horiz-adv-x="608" />
<glyph unicode="&#x2005;" horiz-adv-x="456" />
<glyph unicode="&#x2006;" horiz-adv-x="304" />
<glyph unicode="&#x2007;" horiz-adv-x="304" />
<glyph unicode="&#x2008;" horiz-adv-x="228" />
<glyph unicode="&#x2009;" horiz-adv-x="365" />
<glyph unicode="&#x200a;" horiz-adv-x="101" />
<glyph unicode="&#x2010;" horiz-adv-x="614" d="M49 498q0 32 23 54.5t55 22.5h360q32 0 55 -22.5t23 -54.5q0 -35 -22.5 -58.5t-55.5 -23.5h-360q-33 0 -55.5 23.5t-22.5 58.5z" />
<glyph unicode="&#x2011;" horiz-adv-x="614" d="M49 498q0 32 23 54.5t55 22.5h360q32 0 55 -22.5t23 -54.5q0 -35 -22.5 -58.5t-55.5 -23.5h-360q-33 0 -55.5 23.5t-22.5 58.5z" />
<glyph unicode="&#x2012;" horiz-adv-x="614" d="M49 498q0 32 23 54.5t55 22.5h360q32 0 55 -22.5t23 -54.5q0 -35 -22.5 -58.5t-55.5 -23.5h-360q-33 0 -55.5 23.5t-22.5 58.5z" />
<glyph unicode="&#x2013;" horiz-adv-x="1214" d="M49 498q0 32 23 54.5t55 22.5h960q32 0 55 -22.5t23 -54.5q0 -35 -22.5 -58.5t-55.5 -23.5h-960q-33 0 -55.5 23.5t-22.5 58.5z" />
<glyph unicode="&#x2014;" horiz-adv-x="1705" d="M49 498q0 32 23 54.5t55 22.5h1452q32 0 55 -22.5t23 -54.5q0 -35 -22.5 -58.5t-55.5 -23.5h-1452q-33 0 -55.5 23.5t-22.5 58.5z" />
<glyph unicode="&#x2018;" horiz-adv-x="485" d="M92 1061q0 85 41.5 167t110.5 140q12 12 32 12q23 0 40.5 -15.5t17.5 -37.5t-17 -39q-39 -35 -66.5 -78.5t-33.5 -83.5q8 4 31 4q48 0 79 -31.5t31 -82.5t-35.5 -88t-86.5 -37q-60 0 -102 46t-42 124z" />
<glyph unicode="&#x2019;" horiz-adv-x="485" d="M117 1262q0 51 35 87.5t86 36.5q60 0 102.5 -45.5t42.5 -123.5q0 -84 -42 -166.5t-110 -141.5q-15 -12 -34 -12q-22 0 -40 15t-18 36q0 24 17 41q39 35 66.5 78.5t33.5 83.5q-12 -6 -31 -6q-47 0 -77.5 33t-30.5 84z" />
<glyph unicode="&#x201a;" horiz-adv-x="485" d="M117 109q0 51 35 87.5t86 36.5q60 0 102.5 -46.5t42.5 -123.5q0 -84 -42 -166t-110 -141q-17 -14 -34 -14q-22 0 -40 16t-18 37t17 41q39 33 66.5 77t33.5 83q-8 -4 -31 -4q-48 0 -78 32.5t-30 84.5z" />
<glyph unicode="&#x201c;" horiz-adv-x="837" d="M100 1061q0 85 41.5 167t110.5 140q15 12 35 12q22 0 39.5 -16t17.5 -37q0 -24 -18 -39q-89 -82 -101 -162q12 4 33 4q48 0 78.5 -31.5t30.5 -82.5q0 -52 -35.5 -88.5t-87.5 -36.5q-59 0 -101.5 46t-42.5 124zM453 1061q0 85 41 167t108 140q15 12 35 12q22 0 39.5 -16.5 t17.5 -36.5q0 -23 -16 -39q-39 -35 -66.5 -78.5t-33.5 -83.5q8 4 30 4q48 0 79.5 -32t31.5 -82q0 -51 -36 -88t-87 -37q-60 0 -101.5 45.5t-41.5 124.5z" />
<glyph unicode="&#x201d;" horiz-adv-x="837" d="M117 1262q0 51 35 87.5t86 36.5q60 0 102.5 -45.5t42.5 -123.5q0 -84 -42 -166.5t-110 -141.5q-15 -12 -34 -12q-22 0 -40 15t-18 36q0 25 19 41q89 82 98 162q-12 -6 -31 -6q-47 0 -77.5 33t-30.5 84zM467 1262q0 51 36 87.5t87 36.5q60 0 101.5 -45.5t41.5 -123.5 q0 -85 -41 -167.5t-108 -140.5q-15 -12 -35 -12q-23 0 -40 14.5t-17 36.5q0 25 16 41q39 35 66.5 78.5t33.5 83.5q-12 -6 -30 -6q-48 0 -79.5 33t-31.5 84z" />
<glyph unicode="&#x201e;" horiz-adv-x="837" d="M117 109q0 51 35 87.5t86 36.5q60 0 102.5 -46.5t42.5 -123.5q0 -84 -42 -166t-110 -141q-17 -14 -34 -14q-22 0 -40 16t-18 37t17 41q39 33 66.5 77t33.5 83q-8 -4 -31 -4q-48 0 -78 32.5t-30 84.5zM467 109q0 51 36 87.5t87 36.5q59 0 101 -46.5t42 -123.5 q0 -85 -41 -167t-108 -140q-18 -14 -35 -14q-23 0 -40 15.5t-17 37.5t16 41q39 33 66.5 77t33.5 83q-8 -4 -30 -4q-48 0 -79.5 32.5t-31.5 84.5z" />
<glyph unicode="&#x2022;" horiz-adv-x="733" d="M141 496q0 94 67 160.5t161 66.5t160.5 -66.5t66.5 -160.5q0 -92 -67 -159t-160 -67q-94 0 -161 67t-67 159z" />
<glyph unicode="&#x2026;" horiz-adv-x="1456" d="M117 106q0 52 36.5 89.5t88.5 37.5q51 0 88 -38t37 -89t-37 -88.5t-88 -37.5q-52 0 -88.5 37.5t-36.5 88.5zM600 106q0 51 37 89t88 38q52 0 90.5 -38t38.5 -89t-38.5 -88.5t-90.5 -37.5q-51 0 -88 37.5t-37 88.5zM1085 106q0 51 37.5 89t89.5 38t89.5 -38t37.5 -89 t-37.5 -88.5t-89.5 -37.5t-89.5 37.5t-37.5 88.5z" />
<glyph unicode="&#x202f;" horiz-adv-x="365" />
<glyph unicode="&#x2039;" horiz-adv-x="626" d="M113 496q0 58 39 100l231 256q17 20 45 20q26 0 47 -18.5t21 -46.5q0 -23 -15 -41l-243 -268l243 -273q15 -23 15 -41q0 -26 -19.5 -47.5t-46.5 -21.5q-31 0 -47 22l-233 260q-37 40 -37 99z" />
<glyph unicode="&#x203a;" horiz-adv-x="626" d="M131 182q0 27 16 43l242 273l-242 268q-16 16 -16 39q0 26 19 46.5t47 20.5q26 0 49 -20l231 -256q37 -43 37 -100q0 -56 -37 -99l-231 -260q-19 -22 -47 -22q-26 0 -47 19.5t-21 47.5z" />
<glyph unicode="&#x205f;" horiz-adv-x="456" />
<glyph unicode="&#x20ac;" horiz-adv-x="1431" d="M45 541q0 25 17 41t42 16h39q-4 54 -4 84t4 88h-39q-25 0 -42 17t-17 44q0 23 17.5 40.5t41.5 17.5h62q63 227 249.5 363.5t432.5 136.5q289 0 469 -203q22 -28 22 -66q0 -39 -27.5 -66.5t-66.5 -27.5q-45 0 -71 33q-60 69 -147.5 109t-178.5 40q-160 0 -283.5 -86 t-179.5 -233h543q25 0 41 -18t16 -44q0 -25 -16 -41t-41 -16h-574q-6 -44 -6 -88t6 -84h574q25 0 41 -17t16 -44q0 -24 -16.5 -41t-40.5 -17h-543q53 -148 177.5 -235.5t285.5 -87.5q93 0 178 38.5t148 108.5q30 33 71 33q39 0 66.5 -28.5t27.5 -65.5q0 -40 -24 -64 q-184 -203 -467 -203q-248 0 -434.5 137t-247.5 367h-62q-25 0 -42 18t-17 44z" />
<glyph unicode="&#x2122;" horiz-adv-x="929" d="M23 1341q0 9 7.5 17t16.5 8h287q9 0 16.5 -8t7.5 -17q0 -12 -7.5 -20t-16.5 -8h-115v-383q0 -11 -9 -19t-22 -8q-10 0 -18 8t-8 19v383h-115q-9 0 -16.5 8t-7.5 20zM420 930v397q0 18 14.5 33.5t36.5 15.5q33 0 45 -28l123 -310l123 308q10 30 45 30q22 0 36.5 -13.5 t14.5 -35.5v-397q0 -11 -9 -19t-22 -8q-10 0 -18 8t-8 19v358l-144 -344q-7 -14 -18 -14q-12 0 -18 16l-144 342v-358q0 -11 -9 -19t-22 -8q-10 0 -18 8t-8 19z" />
<glyph unicode="&#xe000;" horiz-adv-x="1003" d="M0 0v1004h1004v-1004h-1004z" />
</font>
</defs>
</svg>
