<svg xmlns="http://www.w3.org/2000/svg" width="120" height="120" viewBox="0 0 120 120"><path d="M12 0h96c6.627 0 12 5.373 12 12v96c0 6.628-5.373 11.999-12 11.999h-96c-6.627 0-12-5.371-12-11.999v-96c0-6.627 5.373-12 12-12z" fill-rule="evenodd" clip-rule="evenodd" fill="#F2CF5B"/><path d="M60 19.906c22.143 0 40.094 17.951 40.094 40.094 0 22.144-17.951 40.095-40.094 40.095s-40.094-17.951-40.094-40.095c0-22.143 17.951-40.094 40.094-40.094z" fill-rule="evenodd" clip-rule="evenodd" fill="#FEFBF0"/><path d="M81.803 50.84c.371-.352.371-.959 0-1.316l-6.627-6.377c-.369-.356-1.004-.356-1.371 0l-20.159 19.445-8.789-8.506c-.368-.355-.999-.355-1.365 0l-6.633 6.379c-.367.354-.367.965 0 1.314l16.105 15.502c.206.152.423.256.682.256.264 0 .475-.104.682-.256l27.475-26.441z" fill="#DB9D0C"/><path d="M70.805 120h37.57c6.627 0 11.625-4.873 11.625-11.5v-36.949l-49.195 48.449z" fill-rule="evenodd" clip-rule="evenodd" fill="#32AF5C"/><path d="M114.426 103.218c-.515.949-1.827 2.361-3.475 3.759.449 1.829.749 3.458.832 4.606.017.299-.116.564-.365.731-.135.084-.284.133-.434.133-.133 0-.25-.034-.365-.083-.283-.166-.598-.315-.915-.466-.864-.432-1.911-.915-3.159-1.696-1.247.781-2.295 1.265-3.158 1.696-.317.15-.633.3-.916.466-.25.133-.564.117-.799-.05-.249-.167-.381-.433-.365-.731.083-1.148.383-2.777.831-4.606-1.646-1.397-2.958-2.81-3.475-3.759-.115-.199-.133-.448-.05-.664.067-.2.217-.383.434-.466.796-.348 2.893-.702 4.704-.768.566-1.647 1.48-3.855 2.228-4.603.168-.15.367-.233.566-.233s.399.083.549.233c.764.747 1.68 2.955 2.245 4.603 1.813.065 3.907.42 4.704.768.199.083.366.266.433.466.084.216.066.465-.05.664z" fill="#D7FCE4"/></svg>