<svg xmlns="http://www.w3.org/2000/svg" width="120" height="120" viewBox="0 0 120 120"><path d="M12 0h96c6.627 0 12 5.373 12 12v96c0 6.628-5.373 11.999-12 11.999h-96c-6.627 0-12-5.371-12-11.999v-96c0-6.627 5.373-12 12-12z" fill-rule="evenodd" clip-rule="evenodd" fill="#F2CF5B"/><path d="M60 19.906c22.143 0 40.094 17.951 40.094 40.094 0 22.144-17.951 40.095-40.094 40.095s-40.094-17.951-40.094-40.095c0-22.143 17.951-40.094 40.094-40.094z" fill-rule="evenodd" clip-rule="evenodd" fill="#FEFBF0"/><path d="M81.803 50.84c.371-.352.371-.959 0-1.316l-6.627-6.377c-.369-.356-1.004-.356-1.371 0l-20.159 19.445-8.789-8.506c-.368-.355-.999-.355-1.365 0l-6.633 6.379c-.367.354-.367.965 0 1.314l16.105 15.502c.206.152.423.256.682.256.264 0 .475-.104.682-.256l27.475-26.441z" fill="#DB9D0C"/></svg>