<svg xmlns="http://www.w3.org/2000/svg" width="120" height="120" viewBox="0 0 120 120"><path d="M12 0h96c6.629 0 12 5.372 12 11.999v96.001c0 6.627-5.371 12-12 12h-96c-6.627 0-12-5.373-12-12v-96.001c0-6.627 5.374-11.999 12-11.999z" fill-rule="evenodd" clip-rule="evenodd" fill="#F2CF5B"/><path d="M99.856 32.729v54.526c0 1.497-1.247 2.744-2.744 2.744h-27.612c-1.747 3.078-5.323 5.387-9.564 5.387s-7.818-2.308-9.565-5.386h-27.737c-1.497 0-2.745-1.247-2.745-2.744v-54.527c0-1.498 1.248-2.745 2.745-2.745h5.239v46.334c0 1.498 1.164 2.662 2.662 2.662h8.109c6.237 0 14.721 1.081 19.295 6.071 1.081 1.164 2.911 1.081 3.993 0 4.573-4.99 13.057-6.071 19.295-6.071h8.067c1.414 0 2.577-1.164 2.577-2.662v-46.334h5.24c1.498 0 2.745 1.247 2.745 2.745z" fill="#DB9D0C"/><path d="M95.877 29.984h-4.021v46.334c0 1.498-1.162 2.662-2.576 2.662h-8.068c-6.238 0-14.721 1.081-19.295 6.071-1.082 1.081-2.912 1.164-3.993 0-4.574-4.99-13.058-6.071-19.295-6.071h-8.109c-1.498 0-2.662-1.164-2.662-2.662v-46.334h-3.989v50.333999999999996c0 1.498 1.164 2.662 2.661 2.662h12.099c6.237 0 14.721 1.081 19.295 6.071 1.081 1.164 2.911 1.081 3.993 0 4.574-4.99 13.057-6.071 19.295-6.071h12.088c1.414 0 2.578-1.164 2.578-2.662v-50.334z" fill="#F7EBB8"/><path d="M33.01 25.14h6.072c9.149 0 14.887 1.123 18.88 8.109v45.172c-5.739-3.328-13.558-4.16-19.213-4.16h-5.74v-49.121zm48.073 0h5.906v49.122h-5.573c-5.656 0-13.642.832-19.38 4.16v-45.172c3.992-6.987 9.899-8.11 19.047-8.11z" fill="#FEFBF0"/></svg>