<svg xmlns="http://www.w3.org/2000/svg" width="120" height="120" viewBox="0 0 120 120"><path d="M12 0h96c6.628 0 12 5.372 12 12v96c0 6.628-5.372 12.001-12 12.001h-96c-6.627 0-12-5.373-12-12.001v-96c0-6.628 5.373-12 12-12z" fill-rule="evenodd" clip-rule="evenodd" fill="#47CFD2"/><path d="M19.927 67.974v28.026c0 2.209 1.742 4 3.89 4h72.285c2.148 0 3.891-1.791 3.891-4v-68c0-2.209.203-5-1.945-5l-35.249 32.607-14.91-13.357-13.447 14.953s-14.515 8.561-14.515 10.771z" fill-rule="evenodd" clip-rule="evenodd" fill="#00A4AA"/><path d="M92.027 21.979c4.605-4.412 10.1 2.9 7 6-2.6 2.6-33.283 33.103-33.283 33.103-1.758 1.757-4.432 1.562-6.365 0-2.18-1.764-10.935-9.103-11.352-9.103l-20.412 20.044c-2.92 1.92-4.833.709-6.587-1.045-1.753-1.754-.92-5.246 1-7l22.752-22.26c1.754-1.754 4.597-1.754 6.35 0 1.753 1.753 10.898 9.26 10.898 9.26s9.716-9.566 29.999-28.999z" fill-rule="evenodd" clip-rule="evenodd" fill="#EAFEFF"/></svg>