<svg xmlns="http://www.w3.org/2000/svg" width="120" height="120" viewBox="0 0 120 120"><path d="M12 0h96c6.628 0 12 5.373 12 12v96c0 6.628-5.372 12-12 12h-96c-6.627 0-12-5.372-12-12v-95.999c0-6.628 5.373-12.001 12-12.001z" fill-rule="evenodd" clip-rule="evenodd" fill="#F49756"/><path d="M60 19.999c22.093 0 40.002 17.909 40.002 40.001s-17.909 40.002-40.002 40.002-40.002-17.91-40.002-40.002c0-22.092 17.909-40.001 40.002-40.001z" fill-rule="evenodd" clip-rule="evenodd" fill="#FDF4ED"/><path d="M60 29.599c16.79 0 30.401 13.611 30.401 30.401s-13.611 30.401-30.401 30.401-30.401-13.611-30.401-30.401c0-16.791 13.611-30.401 30.401-30.401z" fill-rule="evenodd" clip-rule="evenodd" fill="#E37739"/><path d="M59.999 39.466c11.341 0 20.535 9.193 20.535 20.534s-9.194 20.534-20.535 20.534c-11.34 0-20.533-9.193-20.533-20.534s9.193-20.534 20.533-20.534z" fill-rule="evenodd" clip-rule="evenodd" fill="#FDF4ED"/><path d="M60 48.8c6.185 0 11.201 5.015 11.201 11.2 0 6.186-5.015 11.2-11.201 11.2-6.187 0-11.201-5.015-11.201-11.201 0-6.185 5.015-11.199 11.201-11.199z" fill-rule="evenodd" clip-rule="evenodd" fill="#E37739"/></svg>