<?xml version="1.0" encoding="utf-8"?>
<!-- Generator: Adobe Illustrator 17.1.0, SVG Export Plug-In . SVG Version: 6.00 Build 0)  -->
<!DOCTYPE svg PUBLIC "-//W3C//DTD SVG 1.1//EN" "http://www.w3.org/Graphics/SVG/1.1/DTD/svg11.dtd">
<svg version="1.1" id="Layer_1" xmlns="http://www.w3.org/2000/svg" xmlns:xlink="http://www.w3.org/1999/xlink" x="0px" y="0px"
	 viewBox="0 0 120 120" enable-background="new 0 0 120 120" xml:space="preserve">
<path fill="#F49756" d="M12,0h96c6.6,0,12,5.4,12,12v96c0,6.6-5.4,12-12,12H12c-6.6,0-12-5.4-12-12V12C0,5.4,5.4,0,12,0z"/>
<path fill="#FDF4ED" d="M60,20c22.1,0,40,17.9,40,40s-17.9,40-40,40S20,82.1,20,60S37.9,20,60,20z"/>
<path fill="#E37739" d="M60,29.6c16.8,0,30.4,13.6,30.4,30.4S76.8,90.4,60,90.4S29.6,76.8,29.6,60C29.6,43.2,43.2,29.6,60,29.6z"/>
<path fill="#FDF4ED" d="M60,39.5c11.3,0,20.5,9.2,20.5,20.5S71.3,80.5,60,80.5c-11.3,0-20.5-9.2-20.5-20.5S48.7,39.5,60,39.5z"/>
<path fill="#E37739" d="M60,48.8c6.2,0,11.2,5,11.2,11.2c0,6.2-5,11.2-11.2,11.2c-6.2,0-11.2-5-11.2-11.2
	C48.8,53.8,53.8,48.8,60,48.8z"/>
<path fill="#D8743A" d="M70.8,120h37.6c6.6,0,11.6-4.9,11.6-11.5V71.6L70.8,120z"/>
<path fill="#FAF0E7" d="M113.8,111.7c0.3-0.1,0.4-0.4,0.4-0.7c-0.3-1.6-1.2-2.5-2.5-3.2c-0.3-0.2-0.8-0.4-1.2-0.6
	c-0.8-0.3-1.8-0.7-2-1.3c-0.1-0.4,0.1-1,0.5-1.7c1.4-2.3,1.7-4.3,0.8-5.9c-0.7-1.2-1.9-2-3.3-2c-1.3,0-2.6,0.7-3.3,2
	c-0.9,1.6-0.7,3.6,0.8,5.9c0.5,0.7,0.6,1.3,0.5,1.7c-0.2,0.6-1.2,1-2,1.3c-0.5,0.2-0.9,0.4-1.2,0.6c-1.2,0.8-2.1,1.6-2.5,3.2
	c-0.1,0.3,0.1,0.6,0.4,0.7c0.1,0,2,0.6,7.3,0.6c2.7,0,4.5-0.1,5.6-0.3C113.3,111.8,113.8,111.7,113.8,111.7z"/>
</svg>
