<svg xmlns="http://www.w3.org/2000/svg" width="120" height="120" viewBox="0 0 120 120"><path d="M120 108c0 6.627-5.373 12-12 12h-96c-6.627 0-12-5.373-12-12v-96c0-6.628 5.373-12 12-12h96c6.627 0 12 5.372 12 12v96z" fill-rule="evenodd" clip-rule="evenodd" fill="#8199AF"/><path d="M88.795 79.128c-.301 4.125-.754 8.551-1.51 12.677-.227 1.274-1.51 2.551-2.795 2.7-8.23.976-16.387 1.5-24.619 1.5-8.158 0-16.314-.524-24.47-1.5-1.283-.149-2.568-1.426-2.794-2.7-1.133-6.677-1.737-13.503-1.737-20.254 0-6.824.604-13.652 1.737-20.327.226-1.276 1.511-2.475 2.794-2.701 4.984-.6 9.893-.976 14.803-1.201 0 0 4.002-.225 3.699-3.899-.302-3.302-6.042-5.552-6.042-11.251 0-4.501 4.607-8.177 12.009-8.177 7.4 0 11.931 3.675 11.931 8.177 0 5.7-5.664 7.95-5.965 11.251-.303 3.675 3.623 3.899 3.623 3.899 4.986.225 10.045.601 15.029 1.201 1.285.226 2.568 1.425 2.795 2.701.83 4.65 1.283 8.852 1.586 13.426.076 1.351-1.057 2.4-2.492 2.4l-1.359-.074c-1.434 0-3.475-.825-4.455-1.875 0 0-3.248-3.226-6.646-3.3-5.59-.151-9.895 4.875-9.895 10.2 0 5.251 4.23 10.352 9.82 10.201 3.396-.148 6.645-3.449 6.645-3.449 1.057-.976 3.021-1.876 4.455-1.876.453-.075.908-.075 1.361-.075 1.435 0 2.568 1.051 2.492 2.326z" fill="#E8EEF4"/></svg>