<svg xmlns="http://www.w3.org/2000/svg" width="120" height="120" viewBox="0 0 120 120"><path d="M12 0h96c6.628 0 12 5.373 12 12v96.001c0 6.627-5.372 11.999-12 11.999h-96c-6.628 0-12-5.372-12-11.999v-96.001c0-6.627 5.373-12 12-12z" fill-rule="evenodd" clip-rule="evenodd" fill="#F2CF5B"/><path d="M83.5 43.513c0-12.979-10.521-23.501-23.5-23.501s-23.5 10.522-23.5 23.501c0 12.979 8.227 8.436 8.227 0 0-8.437 6.84-15.275 15.275-15.275s15.275 6.839 15.275 15.275 8.223 12.979 8.223 0z" fill-rule="evenodd" clip-rule="evenodd" fill="#DB9D0C"/><g fill-rule="evenodd" clip-rule="evenodd" fill="#FEFBF0"><path d="M34.005 37.154h51.985v63.018h-51.985v-63.018zM25.868 100.179c-4.328 0-5.836-1.379-5.836-5.71l-.042-51.725c0-4.332 1.508-5.577 5.836-5.577h5.206v62.839l-5.164.173zM94.131 100.179c4.328 0 5.836-1.379 5.836-5.71l.043-51.725c0-4.332-1.509-5.577-5.836-5.577h-5.206v62.839l5.163.173z"/></g></svg>