<svg xmlns="http://www.w3.org/2000/svg" width="120" height="120" viewBox="0 0 120 120"><path d="M12 0h96c6.627 0 12 5.373 12 12v96c0 6.628-5.373 11.999-12 11.999h-96c-6.627 0-12-5.371-12-11.999v-96c0-6.627 5.373-12 12-12z" fill-rule="evenodd" clip-rule="evenodd" fill="#F2CF5B"/><path d="M60 19.906c22.143 0 40.094 17.951 40.094 40.094 0 22.144-17.951 40.095-40.094 40.095s-40.094-17.951-40.094-40.095c0-22.143 17.951-40.094 40.094-40.094z" fill-rule="evenodd" clip-rule="evenodd" fill="#FEFBF0"/><path d="M36.051 77.693zm49.635-36.958c-.138-.101.385.181-.707-.328-.887-.413-2.202.176-3.671 1.791-2.6 2.859-12.924 12.616-13.693 13.557-.46.562-1.518.64-3.354-.603-1.836-1.243-7.279-4.649-8.557-5.43-1.278-.779-2.873-.84-4.331.785-1.457 1.627-14.979 21.969-16.046 23.82-.6 1.039-.204 2.689.312 3.062l.413.303c-.081-.073-.134-.146.124-.041.65.266 2.096.744 3.457-1.11s15.054-14.138 15.293-14.394c.367-.392 1.325-1.301 2.827-.251s7.644 5.233 8.202 5.696 2.98 1.452 4.385-.428c1.518-2.032 15.202-22.202 15.812-23.393.61-1.189.846-2.073-.466-3.036z" fill="#DB9D0C"/></svg>