<svg xmlns="http://www.w3.org/2000/svg" width="120" height="120" viewBox="0 0 120 120"><path d="M120 108c0 6.627-5.372 12-12 12h-96c-6.627 0-12-5.373-12-12v-96c0-6.627 5.373-12 12-12h96c6.628 0 12 5.373 12 12v96z" fill-rule="evenodd" clip-rule="evenodd" fill="#5BB6EE"/><g fill-rule="evenodd" clip-rule="evenodd" fill="#EEF8FF"><path d="M22.191 45.938l6.734-23.934h62.28l6.603 23.934h-75.617zM22.191 47.964l3.528 50.033h68.679l3.41-50.033h-75.617zm52.633 34.463c-.734 0-1.449-.07-2.145-.203-1.436 2.506-4.136 4.193-7.231 4.193-1.285 0-2.501-.292-3.588-.809-1.449 3.366-4.795 5.724-8.695 5.724-4.038 0-7.482-2.529-8.842-6.089-.533.1-1.083.154-1.644.154-4.917 0-8.902-3.984-8.902-8.901v-.019c.001-.389.028-.771.078-1.146l.037-.201c.05-.328.11-.652.195-.967l.142-.417c.072-.223.138-.448.228-.662l.22-.45c.091-.189.175-.382.279-.562l.283-.431c.111-.17.215-.344.336-.504l.338-.398c.129-.151.252-.308.39-.449l.387-.354c.146-.134.287-.272.442-.396l.429-.306.431-.306.113-.069c-.523-1.228-.813-2.581-.813-4.001 0-5.649 4.579-10.229 10.228-10.229 3.299 0 6.231 1.562 8.101 3.984 1.669-1.745 4.017-2.833 6.621-2.833 3.475 0 6.498 1.936 8.051 4.786 1.391-.602 2.923-.937 4.532-.937 6.295 0 11.399 5.103 11.399 11.399 0 6.293-5.105 11.399-11.4 11.399z"/></g></svg>