<svg xmlns="http://www.w3.org/2000/svg" width="120" height="120" viewBox="0 0 120 120"><path d="M120 108c0 6.629-5.373 12-12 12h-96c-6.627 0-12-5.371-12-12v-96c0-6.627 5.373-12 12-12h96c6.627 0 12 5.373 12 12v96z" fill-rule="evenodd" clip-rule="evenodd" fill="#4CC3C7"/><g fill-rule="evenodd" clip-rule="evenodd" fill="#FDFFFF"><path d="M87.338 59.08c5.857 0 10.606 4.75 10.606 10.61 0 5.861-4.749 10.611-10.606 10.611-5.858 0-10.606-4.75-10.606-10.611-.001-5.86 4.747-10.61 10.606-10.61zM74.841 42.197c-4.411-3.958-10.174-5.811-16.289-5.811-12.266 0-22.131 11.17-22.131 23.606 0 12.285 10.346 23.622 22.131 23.622 3.291 0 6.493-.613 9.433-1.793 2.733 5.57 4.202 7.727 8.164 11.109-5.3 2.965-11.329 4.622-17.597 4.622-20.268 0-36.751-16.848-36.751-37.56 0-20.703 16.484-37.544 36.751-37.544 7.582 0 14.773 2.328 20.778 6.536l-4.489 13.213z"/></g></svg>