<svg xmlns="http://www.w3.org/2000/svg" width="120" height="120" viewBox="0 0 120 120"><path d="M12 0h96c6.628 0 12 5.372 12 12v96c0 6.628-5.372 12-12 12h-96c-6.627 0-12-5.372-12-12v-96c0-6.628 5.373-12 12-12z" fill-rule="evenodd" clip-rule="evenodd" fill="#EF6E64"/><path d="M59.874 33.209c16.825 0 30.462 13.77 30.462 30.758 0 16.986-13.638 30.756-30.462 30.756-16.825 0-30.464-13.77-30.464-30.756 0-16.988 13.638-30.758 30.464-30.758z" fill-rule="evenodd" clip-rule="evenodd" fill="#C95149"/><g fill-rule="evenodd" clip-rule="evenodd" fill="#FEF5F4"><path d="M82.24 84.66c4.37-4.525 7.141-10.236 7.926-16.793.142-1.176-.09-.955-.633-.955h-9.075s-1.015-.406-1.015-.744v-2.979c0-.557.355-.877.92-.877h9.08c.375 0 .894.037.809-.895-.656-7.179-3.781-13.641-8.518-18.52-.689-.709-1.039.094-1.373.425-.334.331-5.254 5.544-5.704 6.011-.451.466-1.218.202-1.564-.154-.347-.355-2.042-1.82-2.478-2.461-.436-.641.033-1.033.328-1.405.294-.372 4.44-4.657 4.882-5.012.442-.357 1.356-1.307.063-2.109-4.644-2.876-10.114-4.535-15.971-4.535-5.979 0-11.556 1.73-16.262 4.719-.892.565-.226.755.314 1.39.54.636 4.659 5.053 5.171 5.652s.478.999.221 1.298c-.258.299-2.162 1.891-2.825 2.434-.663.542-1.067.079-1.438-.332l-5.373-5.646c-.264-.297-.672-1.252-1.596-.302-4.711 4.841-7.835 11.247-8.528 18.365-.096.99.231 1.072.756 1.072h9.461c.638 0 1.006.605 1.006.994v2.68c0 .891-.607.959-.948.959h-9.498c-.39 0-.84-.092-.679 1.174.807 6.355 3.582 12.061 7.75 16.531.764.822 1.444-.158 1.444-.158s5.196-4.965 6.14-6.004c.945-1.039 1.871-.092 1.871-.092s1.117.977 1.693 1.711c.577.736.233 1.436-.423 2.314-.657.879-11.076 12.496-11.87 12.98-.793.482-2.017 1.062-3.095.027-7.956-7.645-13.208-19.256-13.208-31.184 0-22.226 17.778-40.245 39.914-40.245 22.137 0 40.082 18.019 40.082 40.245 0 12.182-5.17 23.949-13.904 31.064-1.422 1.156-2.066.439-2.803-.17-.736-.611-11.518-12.707-12.247-13.309s-.735-.902-.294-1.512 1.809-1.918 2.214-2.227c.405-.305.745-.57 1.555.26s5.652 5.324 6.309 6.004c.528.553.86.883 1.413.311zM44.197 53.777c2.087 1.939 17.438 14.627 18.985 16.18s1.842 4.008.295 5.457c-.801.75-2.475.725-4.64-1.139-2.717-2.34-15.362-19.049-15.877-19.774-.516-.724-1.547-3.312 1.237-.724z"/></g></svg>