<svg xmlns="http://www.w3.org/2000/svg" width="120" height="120" viewBox="0 0 120 120"><path d="M120 108c0 6.629-5.372 12-12 12h-96c-6.627 0-12-5.371-12-12v-96c0-6.627 5.373-12 12-12h96c6.628 0 12 5.373 12 12v96z" fill-rule="evenodd" clip-rule="evenodd" fill="#52AEF9"/><g fill-rule="evenodd" clip-rule="evenodd" fill="#EEF7FF"><path d="M36.137 51.784l23.751-14.768-16.457-13.854-23.547 15.505 16.253 13.117zM59.829 66.611l-16.428 13.825-23.488-15.477 16.224-13.146 23.692 14.798zM83.609 51.843l-23.692 14.737 16.427 13.824 23.518-15.445-16.253-13.116zM76.344 23.191l-16.398 13.795 23.663 14.797 16.252-13.117-23.517-15.475zM83.521 78.783v5.158l-23.604 15.23-23.576-15.198v-5.189l7.061 4.658 16.516-13.824 16.515 13.795 7.088-4.63z"/></g></svg>