<svg xmlns="http://www.w3.org/2000/svg" width="120" height="120" viewBox="0 0 120 120"><path d="M12 0h96c6.628 0 12 5.373 12 12v96c0 6.627-5.372 12-12 12h-96c-6.627 0-12-5.373-12-12v-96c0-6.627 5.373-12 12-12z" fill-rule="evenodd" clip-rule="evenodd" fill="#95AEC5"/><path d="M99.979 31.571c0-4.332-1.508-5.577-5.836-5.577h-68.287c-4.328 0-5.836 1.378-5.836 5.71v56.592c0 4.331 1.508 5.709 5.836 5.709h68.286c4.328 0 5.836-1.244 5.836-5.576v-56.858z" fill-rule="evenodd" clip-rule="evenodd" fill="#8DA6BD"/><g><path d="M66.971 70.053c-1.907 1.554-4.385 2.521-7.036 2.521-2.606 0-5.066-.954-6.958-2.46-4.342-3.596-33.083-27.574-33.083-27.574l.125 45.753c0 4.332 1.508 5.709 5.836 5.709h68.286c4.328 0 5.836-1.244 5.836-5.576l-.021-45.886s-28.4 23.84-32.985 27.513zM65.285 67.334c-1.403 1.264-3.313 2.073-5.35 2.073-1.927 0-3.729-.723-5.102-1.868-4.669-3.824-34.868-29.204-34.868-29.204l-.009-6.333c0-4.421 1.58-6.005 5.996-6.005h68.028c4.416 0 5.996 1.584 5.996 6.005l-.002 6.333c.235-.013-29.447 24.649-34.689 28.999z" fill-rule="evenodd" clip-rule="evenodd" fill="#F5F9FD"/></g><g fill-rule="evenodd" clip-rule="evenodd" fill="#C9D5E0"><path d="M80.998 58.405l1.492-1.309 17.398 21.997v2.834l-18.89-23.522zM38.873 58.405l-1.491-1.309-17.4 21.998v2.834l18.891-23.523z"/></g></svg>