<svg xmlns="http://www.w3.org/2000/svg" width="120" height="120" viewBox="0 0 120 120"><path d="M120 108c0 6.627-5.373 12-12 12h-96c-6.627 0-12-5.373-12-12v-96c0-6.628 5.373-12 12-12h96c6.627 0 12 5.372 12 12v96z" fill-rule="evenodd" clip-rule="evenodd" fill="#8B9AE3"/><path d="M92.084 59.195l-.333 4.604c-1.601 20.745-1.934 25.682-22.011 25.682-8.94 0-12.144-2.135-14.945-3.867-2.268-1.471-4.069-2.537-9.339-2.537h-2.4v-31.351c12.808-3.002 13.877-10.139 14.942-15.409.667-3.07 1.334-6.604 5.069-6.604 1.402.068 2.469.667 3.336 1.733 2.803 3.203 2.534 10.339 1.668 19.612h16.677c1.467 0 4.003.134 5.671 1.935 1.332 1.466 1.866 3.669 1.665 6.202z" fill="#F6F8FF"/><path d="M43.056 89.015h-14.673v-38.424h14.673v38.424z" fill="#6074D4"/></svg>