<svg xmlns="http://www.w3.org/2000/svg" width="120" height="120" viewBox="0 0 120 120"><path d="M120 108c0 6.627-5.373 12-12 12h-96c-6.628 0-12-5.373-12-12v-96c0-6.627 5.373-12 12-12h96c6.627 0 12 5.373 12 12v96z" fill-rule="evenodd" clip-rule="evenodd" fill="#62B7ED"/><path d="M38.953 73.84c-1.217-.266-5.129.039-8.17.039-2.308 0-4.514-1.869-4.514-4.138s2.062-3.628 4.371-3.628c6.829 0 9.992.384 12.374 1.73l6.947-38.535c.333-2.023 2.628-3.61 5.163-2.979 2.025.494 3.35 1.101 3.594 3.137l4.686 47.534 7.385-25.116c.512-1.821 1.246-2.737 3.154-2.668 2.142.076 2.891.885 3.676 3.458.59 2.434 3.791 14.944 3.791 14.944l8.203.033c2.309 0 4.088 1.382 4.088 3.649s-2.09 4.092-4.398 4.092h-11.492c-1.963 0-3.279-1.216-3.699-3.103l-.227-8.618-8.299 27.122c-.502 1.794-2.16 3.017-4.027 3.017l-.318-.012c-1.993-.148-3.601-1.665-3.834-3.614l-3.499-45.224-4.655 31.944c-.297 1.814-1.988 3.881-3.845 4.094-1.85.219-2.812-1.395-3.527-3.092 0 0-1.511-3.697-2.928-4.066z" fill="#F5FAFD"/></svg>