<svg xmlns="http://www.w3.org/2000/svg" width="120" height="120" viewBox="0 0 120 120"><path d="M120 108c0 6.629-5.373 12-12 12h-95.999c-6.628 0-12-5.371-12-12v-95.999c0-6.628 5.373-12 12-12h95.999c6.627 0 12 5.373 12 12v95.999z" fill-rule="evenodd" clip-rule="evenodd" fill="#6DA1EA"/><path d="M42.065 42.636c12.718-.405 19.578.323 28.982 9.551l-7.478 7.771c-.771.81-1.002 2.023-.694 3.076.387 1.053 1.234 1.781 2.312 1.941 3.314.568 7.092.811 11.178.811 9.095 0 16.726-1.295 17.111-1.295 1.156-.244 2.081-1.215 2.312-2.51.076-.646 2.467-16.107.539-29.705-.154-1.053-.925-2.023-1.927-2.348-.309-.08-.616-.162-.925-.162-.694 0-1.465.324-1.928.891l-7.553 7.932c-8.248-8.013-16.265-10.926-23.355-10.926-8.864 0-16.264 4.451-20.734 9.146-3.082 3.236-1.54 5.988 2.16 5.827z" fill="#F0F6FF"/><path d="M78.201 76.803c-12.641.404-19.501-.324-28.905-9.551l7.477-7.771c.771-.81 1.003-2.024.694-3.075-.386-1.053-1.233-1.781-2.312-1.943-3.314-.566-7.092-.809-11.177-.809-9.095 0-16.726 1.295-17.111 1.375-1.156.162-2.081 1.134-2.312 2.428-.077.648-2.467 16.107-.54 29.706.154 1.052.926 2.023 1.928 2.347.309.082.616.162.848.162.771 0 1.465-.323 2.004-.891l7.554-7.851c8.247 8.013 16.264 10.846 23.433 10.846 8.863 0 16.187-4.532 20.656-9.146 3.005-3.237 1.541-5.989-2.237-5.827z" fill="#C3DBFF"/></svg>