<svg xmlns="http://www.w3.org/2000/svg" width="120" height="120" viewBox="0 0 120 120"><path d="M12 0h96c6.627 0 12 5.372 12 12v95.999c0 6.628-5.373 12.001-12 12.001h-96c-6.628 0-12-5.373-12-12.001v-95.999c0-6.628 5.373-12 12-12z" fill-rule="evenodd" clip-rule="evenodd" fill="#7FC574"/><path d="M96.283 41.339l-6.427 28.042s-9.682 7.336-14.958 4.762l-10.135-4.389s-7.259-1.375-15.688-1.186l-7.595-7.718 4.519-23.38 11.124-5.638s12.111-1.845 15.894 1.374c2.864 2.436 3.876 2.798 13.71 2.577 9.835-.222 9.556 5.556 9.556 5.556z" fill-rule="evenodd" clip-rule="evenodd" fill="#4CA230"/><g><path d="M36.471 27.883c2.167.431 3.574 2.536 3.145 4.703l-11.885 59.831c-.43 2.166-2.536 3.574-4.702 3.144-2.167-.431-3.575-2.536-3.145-4.702l11.884-59.832c.431-2.167 2.537-3.575 4.703-3.144z" fill-rule="evenodd" clip-rule="evenodd" fill="#F9FDF7"/><g fill-rule="evenodd" clip-rule="evenodd" fill="#F9FDF7"><path d="M97.613 32.241c-.656.087-6.691 2.016-13.935 2.251-7.812.274-10.765-4.365-18.534-5.352-1.795-.218-3.961-.202-6.106.078-7.098.705-15.299 3.389-15.299 3.389l-8.25 40.906s13.121-4.391 21.469-3.805c8.484.588 12.195 6.436 23.101 7.229 1.728.136 7.48.423 11.07-3.308 1.151-.852 1.994-1.58 2.246-2.664l7.127-37.159c.027-1.098-.741-1.848-2.889-1.565zm-21.135 4.721c.031-.232 1.716.664 3.946.751 3.166.125 5.569-.338 5.569-.338l-2.442 12.145s-2.122.131-5.096-.968c-.666-.246-3.993-2.136-3.993-2.136l2.016-9.454zm-14.438 29.291s-3.41-1.045-7.034-.932c-1.982.062-4.822.896-4.822.896l2.015-11.081c.046-.26 2.316-.822 4.966-1.145 2.892-.352 6.56.202 6.56.202l-1.685 12.06zm1.653-12.348l1.535-10.322c-.707-.253-2.978-.957-6.2-.877-2.997.074-4.767.811-4.851.846l-1.892 11.486s-1.716.105-5.348 1.081c-3.188.856-4.675 1.863-4.675 1.863l2.323-12.295s3.325-1.347 5.388-1.754c2.894-.571 4.171-.555 4.221-.554l1.988-10.225c.042-.236 2.179-.813 4.693-1.019 2.744-.225 6.18.969 6.18.969l-1.546 10.261c.605.177 2.356.694 4.144 1.283 2.135.703 4.82 1.812 4.82 1.812l-2.356 11.451s-1.571-1.035-4.177-2.332l-4.247-1.674zm28.254 6.045s-1.469.576-4.713.771c-2.864.172-5.278.162-5.278.162l.002-.01-2.563 12.15s-2.497-.073-5.018-1.182c-.662-.29-4.209-2.15-4.209-2.15l1.963-11.716c.035-.253 2.2 1.24 4.293 1.944 3.066 1.031 5.492.863 5.549.858l1.746-11.202s3.546.146 5.561-.108c2.605-.328 4.619-1.064 4.619-1.064l-1.952 11.547zM65.511 43.366l-.239-.069-.043.286.236.09.046-.307zM81.973 60.779l-.015.095.02-.095zM54.196 43.38l-.034.179.016-.007.028-.172z"/></g></g></svg>