<svg xmlns="http://www.w3.org/2000/svg" width="120" height="120" viewBox="0 0 120 120"><path d="M12 0h96c6.628 0 12 5.373 12 12v96c0 6.628-5.372 12-12 12h-96c-6.627 0-12-5.372-12-12v-95.999c0-6.628 5.373-12.001 12-12.001z" fill-rule="evenodd" clip-rule="evenodd" fill="#F88962"/><g fill="#FDF7F4"><path d="M60.562 19.969c6.065 0 10.983 4.917 10.983 10.983s-4.918 10.983-10.983 10.983-10.983-4.917-10.983-10.983 4.917-10.983 10.983-10.983z" fill-rule="evenodd" clip-rule="evenodd"/><path d="M95.124 50.036c.632.001 1.233.039 1.893.175.643.148 1.436.551 2.184 1.239.486.449.821 1.144.806 1.766-.025 1-.57 1.608-1.014 2.033-.471.428-.968.731-1.523 1.019l-18.723 9.638c-.286.095-.782.766-.74 1.238 0 .13.024.236.059.31l7.663 27.906c.229.539.393 1.049.399 1.683-.009.486-.089 1.143-.75 1.859-.619.708-1.882 1.131-2.783 1.131l-.127-.004c-1.753-.072-2.489-.593-3.383-1.097l-18.075-21.89c-.141-.095-.478-.204-.867-.202-.401-.002-.76.117-.899.218l-17.149 21.796c-.888.521-1.635 1.069-3.428 1.146-.945.046-2.332-.421-2.956-1.166-.646-.724-.72-1.369-.73-1.864.006-.592.148-1.075.34-1.574l6.817-27.797c.03-.075.051-.178.051-.303.049-.501-.502-1.257-.815-1.36l-18.842-9.671c-.554-.288-1.05-.589-1.521-1.017-.445-.423-.99-1.033-1.017-2.033-.016-.623.318-1.321.812-1.769.487-.462 1.03-.886 1.499-1.049.948-.311 1.73-.353 2.57-.362h70.249z"/></g></svg>