<svg xmlns="http://www.w3.org/2000/svg" width="120" height="120" viewBox="0 0 120 120"><path d="M12 0h96c6.628 0 12 5.373 12 12v96c0 6.627-5.372 12-12 12h-96c-6.627 0-12-5.373-12-12v-96c0-6.627 5.373-12 12-12z" fill-rule="evenodd" clip-rule="evenodd" fill="#7A9AE6"/><path d="M88.783 57.307c7.282-7.244 6.371-19.48 0-26.062-6.023-6.36-18.918-7.244-26.2 0l-10.607 10.551c-7.203 7.166-7.203 18.818 0 26.062 1.662 1.654 4.354 1.654 6.016 0 1.742-1.652 1.742-4.329 0-5.983-3.878-3.936-3.878-10.157 0-14.093l10.687-10.551c3.878-3.858 10.211-3.858 14.09 0 3.878 3.858 3.878 10.157 0 14.016l-5.066 5.117c1.267 3.386 1.741 6.929 1.425 10.552l9.655-9.609zm-20.66 20.55c7.203-7.164 7.203-18.817 0-26.062-1.662-1.653-4.433-1.653-6.095 0-1.662 1.654-1.662 4.409 0 6.062 3.958 3.858 3.958 10.157 0 14.017l-10.606 10.55c-3.879 3.859-10.211 3.859-14.09 0-3.879-3.857-3.879-10.156 0-14.016l5.066-5.038c-1.267-3.385-1.742-7.008-1.425-10.629l-9.736 9.685c-7.203 7.164-7.203 18.818 0 26.062 7.282 7.164 18.997 7.164 26.2 0l10.686-10.631z" fill="#F0F4FF"/></svg>