<svg xmlns="http://www.w3.org/2000/svg" width="120" height="120" viewBox="0 0 120 120"><path d="M120 107.999c0 6.628-5.373 12.001-12 12.001h-96c-6.627 0-12-5.373-12-12.001v-95.999c0-6.628 5.373-12 12-12h96c6.627 0 12 5.372 12 12v95.999z" fill-rule="evenodd" clip-rule="evenodd" fill="#E6D478"/><path d="M26.873 98c-3.996 0-7-3.066-7-7v-62c0-3.963 3.004-7 7-7h66c3.933 0 7 3.004 7 7v45l-24 24h-49z" fill-rule="evenodd" clip-rule="evenodd" fill="#FCFBF3"/><path d="M82.873 74c-3.979 0-7 3.047-7 7v17l24-24h-17z" fill-rule="evenodd" clip-rule="evenodd" fill="#E8E4D1"/><g fill-rule="evenodd" clip-rule="evenodd" fill="#BFBCAC"><path d="M34 74.002h34v6h-34v-6zM34 60.002h52v6h-52v-6zM34 46.001h52v6.001h-52v-6.001z"/></g><g fill-rule="evenodd" clip-rule="evenodd" fill="#A3A093"><path d="M82 16.001h2c1.104 0 2 .896 2 2.001v16c0 1.104-.896 2-2 2h-2c-1.104 0-2-.896-2-2v-16c0-1.106.896-2.001 2-2.001zM59 16.001h2c1.104 0 2 .896 2 2.001v16c0 1.104-.896 2-2 2h-2c-1.104 0-2-.896-2-2v-16c0-1.106.896-2.001 2-2.001zM36 16.001h2c1.104 0 2 .896 2 2.001v16c0 1.104-.896 2-2 2h-2c-1.104 0-2-.896-2-2v-16c0-1.106.896-2.001 2-2.001z"/></g></svg>