<svg xmlns="http://www.w3.org/2000/svg" width="120" height="120" viewBox="0 0 120 120"><path d="M120 108c0 6.627-5.372 12-12 12h-96c-6.627 0-12-5.373-12-12v-96c0-6.627 5.373-12 12-12h96c6.628 0 12 5.373 12 12v96z" fill-rule="evenodd" clip-rule="evenodd" fill="#769ED9"/><g fill="#F9FBFF"><path d="M56.938 36v8h-1c-13.006 0-23 12.044-23 22.999v1l-.643 3.258c-.434.432-.521 2.121-.347 2.727.26.604.868 1.949 1.475 1.949h53.061c.607 0 1.215-1.346 1.475-1.949.174-.605.088-2.295-.347-2.727l-.674-3.257v-1c0-10.992-9.99-22.999-23-22.999h-1v-8h2c1.902 0 3-.987 3-3 0-1.957-1.043-3-3-3h-10c-2.029 0-3 1.063-3 3 0 1.968 1.033 3 3 3l2-.001z"/><path d="M29.938 76h60.125c3.867 0 8 3.635 8 7.5 0 3.867-3.134 6.5-7 6.5h-62.125c-3.867 0-7-2.633-7-6.5 0-3.865 4.134-7.5 8-7.5z" fill-rule="evenodd" clip-rule="evenodd"/></g><path d="M34.001 67.979h51.999c2.762 0 5 2.239 5 5.001s-2.238 5-5 5h-51.999c-2.762 0-5-2.238-5-5s2.238-5.001 5-5.001z" fill-rule="evenodd" clip-rule="evenodd" fill="#ACC6EF"/></svg>