<svg xmlns="http://www.w3.org/2000/svg" width="120" height="120" viewBox="0 0 120 120"><path d="M12 0h96c6.627 0 12 5.372 12 12v95.999c0 6.628-5.373 12.001-12 12.001h-96c-6.627 0-12-5.373-12-12.001v-95.999c0-6.628 5.373-12 12-12z" fill-rule="evenodd" clip-rule="evenodd" fill="#F8B156"/><path d="M26 20h68c2.209 0 4 1.791 4 4v72c0 2.21-1.791 4.001-4 4.001h-68c-2.209 0-4-1.791-4-4.001v-72c0-2.209 1.791-4 4-4z" fill-rule="evenodd" clip-rule="evenodd" fill="#FEF8F1"/><path d="M22 95.995v-72c0-2.366 1.531-3.991 3.994-3.991h10.016l-.01 79.991h-10c-2.391 0-4-1.583-4-4z" fill-rule="evenodd" clip-rule="evenodd" fill="#D37B13"/><g fill-rule="evenodd" clip-rule="evenodd" fill="#FEF8F1"><path d="M16.958 40.042v-2c0-1.104.896-2 2-2h10c1.104 0 2 .896 2 2v2c0 1.104-.896 2-2 2h-10c-1.104 0-2-.896-2-2zM16.958 61.042v-2c0-1.105.896-2 2-2h10c1.104 0 2 .896 2 2v2c0 1.105-.896 2-2 2h-10c-1.104 0-2-.895-2-2zM16.958 83.042v-2c0-1.104.896-2 2-2h10c1.104 0 2 .896 2 2v2c0 1.104-.896 2-2 2h-10c-1.104 0-2-.896-2-2z"/></g><path d="M83.548 54.568c-.338-.4-.696-.534-.986-.62-.299-.08-.57-.101-.855-.102l-9.836-.005c-.093.004-.304-.056-.478-.193-.179-.132-.294-.317-.313-.407l-2.851-9.707c-.093-.322-.197-.612-.411-.929-.194-.285-.627-.76-1.408-.778-.777.017-1.213.492-1.407.779-.214.318-.319.611-.41.933l-2.849 9.701c-.02.091-.136.276-.314.408-.174.137-.385.197-.477.193l-9.838.005c-.379.006-.732.03-1.161.211-.212.095-.458.24-.678.509-.223.261-.374.667-.367 1.03.013.582.259 1.449.46 1.695.213.25.438.425.688.592l7.928 5.213c.142.061.391.5.368.793l-.022.176-3.082 10.078c-.087.291-.151.572-.153.916.005.289.038.664.33 1.086.282.434.909.705 1.336.678.811-.043 1.148-.363 1.55-.666l7.751-6.588c.063-.059.226-.127.407-.127.176 0 .328.062.392.117l8.171 6.641c.403.295.736.598 1.529.641h.058c.407 0 .978-.244 1.257-.656.3-.418.336-.801.34-1.084-.003-.367-.077-.664-.181-.979l-3.464-10.143-.026-.18c-.02-.275.205-.666.334-.721l7.889-5.195c.251-.167.476-.343.688-.593.201-.247.447-1.113.458-1.695.005-.361-.146-.766-.367-1.027z" fill-rule="evenodd" clip-rule="evenodd" fill="#EF951E"/></svg>