<svg xmlns="http://www.w3.org/2000/svg" width="120" height="120" viewBox="0 0 120 120"><path d="M12 0h96c6.628 0 12 5.373 12 12v96c0 6.627-5.372 11.999-12 11.999h-96c-6.627 0-12-5.372-12-11.999v-96c0-6.626 5.373-12 12-12z" fill-rule="evenodd" clip-rule="evenodd" fill="#AEC770"/><path d="M28 20.001h64c4.418 0 8 3.582 8 8v64c0 4.419-3.582 8-8 8h-64c-4.418 0-8-3.581-8-8v-64.001c0-4.417 3.582-7.999 8-7.999z" fill-rule="evenodd" clip-rule="evenodd" fill="#FCFFF5"/><path d="M60 35c7.732 0 14 6.365 14 14.216 0 5.841-3.469 10.858-8.429 13.046.05-.021.028.459.028.459l3.735 22.279h-18.667l3.892-22.615-.116-.117c-4.968-2.185-8.443-7.206-8.443-13.052 0-7.851 6.268-14.216 14-14.216z" fill-rule="evenodd" clip-rule="evenodd" fill="#7C8995"/></svg>