<svg xmlns="http://www.w3.org/2000/svg" width="120" height="120" viewBox="0 0 120 120"><path d="M120 108.001c0 6.627-5.373 11.999-12 11.999h-96c-6.628 0-12-5.372-12-11.999v-96c0-6.628 5.372-12 12-12h96c6.627 0 12 5.372 12 12v96z" fill-rule="evenodd" clip-rule="evenodd" fill="#B781D3"/><path d="M28 22h64c4.419 0 8 3.582 8 8v60.001c0 4.419-3.581 7.999-8 7.999h-64c-4.418 0-7.999-3.58-7.999-7.998v-60.002c0-4.417 3.581-8 7.999-8z" fill-rule="evenodd" clip-rule="evenodd" fill="#FDF9FF"/><path d="M82.313 35.999v47.993h5.996v-47.993h-5.996zm-26.996 0h-3.978v47.964h3.949l.029-47.964zm-7.996 0h-4.009v47.968h4.002l.007-47.968zm22.979 0h-10.974v47.964h10.974v-47.964zm8.006 0h-3.998v47.97h4l-.002-47.97zm-45.976 48.003h6.995v-48.003h-6.995v48.003z" fill="#6B6171"/></svg>