<svg xmlns="http://www.w3.org/2000/svg" width="120" height="120" viewBox="0 0 120 120"><path d="M12 0h96c6.627 0 12 5.373 12 12v96c0 6.628-5.373 11.999-12 11.999h-96c-6.627 0-12-5.371-12-11.999v-96c0-6.627 5.373-12 12-12z" fill-rule="evenodd" clip-rule="evenodd" fill="#6CA1E9"/><path d="M33.998 20.002h62c2.209 0 4 1.792 4 4v62c0 2.209-1.791 4-4 4h-62c-2.209 0-4-1.791-4-4v-62c0-2.209 1.791-4 4-4z" fill-rule="evenodd" clip-rule="evenodd" fill="#ABCFFF"/><path d="M24.002 30h62c2.209 0 4 1.792 4 4v62c0 2.209-1.791 4-4 4h-62c-2.209 0-4-1.791-4-4v-62c0-2.208 1.791-4 4-4z" fill-rule="evenodd" clip-rule="evenodd" fill="#ECF4FF"/><path d="M78.912 30.773c0-1.532-1.252-2.758-2.814-2.758h-16.38c-1.563 0-2.813 1.226-2.813 2.758v40.333c0 .357.209.715.573.869.364.102.781.051 1.042-.205l9.776-9.854 9.002 9.854c.207.154.416.256.676.256.105 0 .262 0 .365-.051.365-.154.574-.512.574-.869v-40.333z" fill="#6694D0"/></svg>