<svg xmlns="http://www.w3.org/2000/svg" width="120" height="120" viewBox="0 0 120 120"><path d="M120 108c0 6.628-5.373 12-12 12h-96c-6.627 0-12-5.372-12-12v-96c0-6.628 5.373-12 12-12h96c6.627 0 12 5.372 12 12v96z" fill-rule="evenodd" clip-rule="evenodd" fill="#7DC37D"/><path d="M24 22h72c2.209 0 4 1.791 4 3.999v68c0 2.209-1.791 4-4 4h-72c-2.209 0-4-1.791-4-4v-67.999c0-2.209 1.791-4 4-4z" fill-rule="evenodd" clip-rule="evenodd" fill="#F6FEF6"/><g fill-rule="evenodd" clip-rule="evenodd" fill="#73B973"><path d="M32.873 38.045h12v10h-12v-10zM52.873 38.045h34v10h-34v-10zM32.873 55.045h54v10h-54v-10zM32.873 72.044h54v10.002h-54v-10.002z"/></g></svg>