<svg xmlns="http://www.w3.org/2000/svg" width="120" height="120" viewBox="0 0 120 120"><path d="M120 108c0 6.628-5.373 12-12 12h-96c-6.627 0-12-5.372-12-12v-95.999c0-6.628 5.373-12.001 12-12.001h96c6.627 0 12 5.373 12 12.001v95.999z" fill-rule="evenodd" clip-rule="evenodd" fill="#F77373"/><path d="M28 20h64c4.418 0 8 3.582 8 8.001v64c0 4.418-3.582 8-8 8h-64c-4.418 0-8-3.582-8-8v-64.001c0-4.418 3.582-8 8-8z" fill-rule="evenodd" clip-rule="evenodd" fill="#FDECEA"/><g fill-rule="evenodd" clip-rule="evenodd" fill="#F59494"><path d="M53.989 51.891h36.954v16.974h-36.954v-16.974zM28.989 51.861h19.995v16.973h-19.995v-16.973zM91.016 86.832c0 2.209-1.791 4-4 4h-33.021l.021-16.973h36.995l.005 12.973zM28.984 86.832c0 2.209 1.791 4 4 4h16.021l-.021-16.973h-19.995l-.005 12.973z"/></g><path d="M29 46.969v-14.01c0-2.21 1.791-4 4-4h54c2.209 0 4 1.79 4 4v14.01h-62z" fill-rule="evenodd" clip-rule="evenodd" fill="#C55757"/></svg>