<svg xmlns="http://www.w3.org/2000/svg" width="120" height="120" viewBox="0 0 120 120"><path d="M120 108c0 6.627-5.373 12-12 12h-96c-6.627 0-12-5.373-12-12v-96c0-6.627 5.373-12 12-12h96c6.627 0 12 5.373 12 12v96z" fill-rule="evenodd" clip-rule="evenodd" fill="#F39E58"/><g fill-rule="evenodd" clip-rule="evenodd" fill="#FFE8D4"><path d="M16 94v-16h5v11h11v5h-16zM104 94h-16v-5h11v-11h5v16zM16 26h16v5h-11v11h-5v-16zM104 26v16h-5v-11h-11v-5h16z"/></g><path d="M31 37.001h58c2.209 0 4 1.791 4 4v37.999c0 2.211-1.791 4-4 4h-58c-2.209 0-4-1.789-4-4v-37.999c0-2.209 1.791-4 4-4z" fill-rule="evenodd" clip-rule="evenodd" fill="#FEFAF6"/><path d="M63.188 72.078c0-1.58-.559-3.34-2.111-4.641s-5.073-2.787-6.378-3.594c-.986-.609-3.19-1.79-2.011-2.844 1.18-1.053 3.874-3.66 3.626-6.943-.249-3.283-2.495-7.137-7.391-7.063-4.854.072-6.831 5.143-6.831 7.249 0 2.107 1.859 5.199 3.598 6.758 1.242 1.115-1.549 2.658-2.355 3.03-.808.371-4.688 1.88-6.613 3.739-1.925 1.857-1.49 4.491-1.49 4.491s0 .744.869.744l26.156.003c.372.001.931-.247.931-.929z" fill-rule="evenodd" clip-rule="evenodd" fill="#D97218"/><g fill-rule="evenodd" clip-rule="evenodd" fill="#FBAF6D"><path d="M67.186 64.999h18v4.001h-18v-4.001zM67.186 58h18v3.999h-18v-3.999zM67.186 51h18v4h-18v-4z"/></g></svg>