<svg xmlns="http://www.w3.org/2000/svg" width="120" height="120" viewBox="0 0 120 120"><path d="M120 108c0 6.627-5.373 12-12 12h-96c-6.627 0-12-5.373-12-12v-96c0-6.628 5.373-12 12-12h96c6.627 0 12 5.372 12 12v96z" fill-rule="evenodd" clip-rule="evenodd" fill="#8B9AE3"/><path d="M93.795 60.518l-7.33-11.684s.066-2.836-.42-7.402c-.473-4.48-5.053-10.416-9.697-14.242-5.422-4.477-11.697-6.839-18.719-7.21-1.503-.078-3.002-.044-4.508.095-1.907.176-3.795.504-5.644 1.023-5.802 1.625-10.78 4.617-14.843 9.07-4.894 5.363-7.554 11.687-7.939 18.945-.1 1.927.012 3.851.29 5.762.376 2.516 1.048 4.948 2.053 7.289 2.24 5.227 5.357 9.494 9.955 12.842.23.172.308.35.308.639-.003 2.986-.008 10.572-.008 10.572l4.642 2.602s17.457 8.479 18.879 9.279v-.004c.458.262.859.396 1.275.57l-.062.029c3.024 1.529 4.856 1.818 6.229.652 1.428-1.217 1.008-4.182 1.008-4.182v-8.123000000000001h.42c3.554 0 7.731-.004 11.277 0l.464-.051-.016.025s3.746.393 5.158-1.391c.865-1.088.731-1.811.731-4.477v-12.096l.121-.082c.538-.232 6.04-1.135 7.145-2.793.846-1.277 1.484-2.206-.769-5.657z" fill="#F6F8FF"/><path d="M66.054 48.34c-7-.911-12.466.603-14.464 7.358-.323 1.098-1.154 4.351-3.369 5.521-6.717 3.572-12.858-.146-14.274-7.99-1.969-10.893 6.25-21.709 18.129-23.921 7.006-1.301 13.269-.019 17.96 4.802 5.193 5.324 3.487 15.201-3.982 14.23z" fill="#7285E0"/></svg>