<svg xmlns="http://www.w3.org/2000/svg" width="120" height="120" viewBox="0 0 120 120"><path d="M12 0h96c6.628 0 12 5.373 12 12v96.001c0 6.625-5.372 11.998-12 11.998h-96c-6.627 0-12-5.373-12-11.998v-96.001c0-6.627 5.373-12 12-12z" fill-rule="evenodd" clip-rule="evenodd" fill="#EA74A2"/><path d="M68.852 82.885l-22.478-12.977-.083-.057c-2.34 1.918-5.332 3.069-8.594 3.069-7.492 0-13.565-6.075-13.565-13.565 0-7.493 6.073-13.567 13.565-13.567 3.429 0 6.561 1.272 8.949 3.37l.417-.208 21.667-12.51.062-.035c-.203-.932-.31-1.898-.31-2.892 0-7.491 6.074-13.565 13.566-13.565s13.565 6.074 13.565 13.565c0 7.493-6.073 13.566-13.565 13.566-3.463 0-6.622-1.297-9.02-3.433l-.096.064-21.67 12.511-.326.16c.214.957.326 1.951.326 2.973 0 1.182-.151 2.33-.437 3.424l.11.065 22.532 13.01.096.044c2.323-1.863 5.273-2.978 8.483-2.978 7.492 0 13.565 6.073 13.565 13.565s-6.073 13.565-13.565 13.565-13.566-6.073-13.566-13.565c0-1.229.164-2.421.471-3.553l-.099-.046z" fill="#fff"/><g fill="#D24A80"><path d="M44.837 59.355c0 3.943-3.197 7.139-7.141 7.139s-7.14-3.196-7.14-7.139 3.196-7.141 7.14-7.141 7.141 3.198 7.141 7.141zM89.188 33.514c0 3.944-3.196 7.14-7.14 7.14s-7.14-3.196-7.14-7.14c0-3.943 3.196-7.14 7.14-7.14s7.14 3.197 7.14 7.14zM89.188 86.486c0 3.943-3.196 7.139-7.14 7.139s-7.14-3.195-7.14-7.139 3.196-7.141 7.14-7.141 7.14 3.198 7.14 7.141z"/></g></svg>