<svg xmlns="http://www.w3.org/2000/svg" width="120" height="120" viewBox="0 0 120 120"><path d="M120 108.001c0 6.627-5.373 11.999-12 11.999h-96c-6.628 0-12-5.372-12-11.999v-96.001c0-6.627 5.372-12 12-12h96c6.627 0 12 5.373 12 12v96.001z" fill-rule="evenodd" clip-rule="evenodd" fill="#8FC972"/><path d="M47.849 71.256h24.218c.682-4.1 1.818-7.141 5.98-12.227 4.086-5.161 5.963-9.563 5.963-15.484 0-12.828-10.656-23.227-24.053-23.227-13.396 0-23.969 10.399-23.969 23.227 0 5.92 1.718 10.323 5.881 15.484 4.163 5.086 5.298 8.127 5.98 12.227z" fill="#F8FAF6"/><g fill-rule="evenodd" clip-rule="evenodd" fill="#C9F2A0"><path d="M47.897 83.927h24.207c1.453 0 2.631.928 2.631 2.381s-1.178 2.631-2.631 2.631h-24.207c-1.453 0-2.632-1.178-2.632-2.631s1.179-2.381 2.632-2.381zM47.897 74.923h24.207c1.453 0 2.631 1.095 2.631 2.548s-1.178 2.413-2.631 2.413h-24.207c-1.453 0-2.632-.96-2.632-2.413s1.179-2.548 2.632-2.548z"/></g><path d="M60.001 99.964c6.348 0 8.424-3.68 11.577-11.025h-23.155c3.219 7.411 5.296 11.025 11.578 11.025z" fill="#5D8838"/></svg>