<svg xmlns="http://www.w3.org/2000/svg" width="120" height="120" viewBox="0 0 120 120"><path d="M12 0h96c6.627 0 12 5.373 12 12v96c0 6.628-5.373 12-12 12h-96c-6.627 0-12-5.372-12-12v-96c0-6.627 5.373-12 12-12z" fill-rule="evenodd" clip-rule="evenodd" fill="#4BC076"/><path d="M25.087 65.117c-1.11-1.129-1.107-2.98.004-4.109l7.147-7.261c1.112-1.13 2.933-1.13 4.046-.001l11.606 11.762c1.113 1.129 2.933 1.127 4.043-.004l31.81-32.382c1.11-1.13 2.932-1.137 4.048-.01l7.111 7.171c1.116 1.127 1.121 2.972.01 4.103l-38.572 39.27c-1.111 1.131-3.306 4.074-4.879 4.074h-3.332c-1.573 0-3.767-2.945-4.877-4.076l-18.165-18.537z" fill="#F1FBF4"/></svg>