<svg xmlns="http://www.w3.org/2000/svg" width="120" height="120" viewBox="0 0 120 120"><path d="M120 108.002c0 6.625-5.373 11.998-12 11.998h-96c-6.627 0-12-5.373-12-11.998v-96.001c0-6.628 5.373-12.001 12-12.001h96c6.627 0 12 5.373 12 12v96.002z" fill-rule="evenodd" clip-rule="evenodd" fill="#E9696E"/><g fill-rule="evenodd" clip-rule="evenodd" fill="#B34447"><path d="M40.718 37.144c5.301 2.815 22.991 1.999 22.991 1.999s-9.229-14.831-14.531-17.647c-5.302-2.816-11.494-1.533-13.83 2.866s.068 9.965 5.37 12.782zM79.282 37.144c-5.302 2.815-22.991 1.999-22.991 1.999s9.229-14.799 14.531-17.616 11.494-1.533 13.83 2.865-.068 9.935-5.37 12.752z"/></g><path d="M98 45v51.001c0 2.209-1.791 3.999-4 3.999h-68c-2.209 0-4-1.79-4-3.999v-51.001h76z" fill-rule="evenodd" clip-rule="evenodd" fill="#FCD9DD"/><path d="M24 37.001h72c2.209 0 4 1.791 4 4v22h-80v-22c0-2.209 1.791-4 4-4z" fill-rule="evenodd" clip-rule="evenodd" fill="#FDE3E4"/><path d="M53 63.001h14v36.999h-14v-36.999z" fill-rule="evenodd" clip-rule="evenodd" fill="#B5464B"/><path d="M53 37.001h14v26h-14v-26z" fill-rule="evenodd" clip-rule="evenodd" fill="#CC5458"/></svg>