<svg xmlns="http://www.w3.org/2000/svg" width="120" height="120" viewBox="0 0 120 120"><path d="M12 0h96c6.628 0 12 5.373 12 12v96c0 6.628-5.372 12-12 12h-96c-6.627 0-12-5.372-12-12v-96c0-6.626 5.373-12 12-12z" fill-rule="evenodd" clip-rule="evenodd" fill="#56AADF"/><path d="M84.761 35.239l-24.762 15.49-24.76-15.488 15.488 24.762-15.488 24.759 24.76-15.49 24.762 15.49-15.491-24.76 15.491-24.763m-24.708 32.245c-4.042 0-7.32-3.277-7.32-7.322 0-4.042 3.278-7.32 7.32-7.32 4.044 0 7.321 3.278 7.321 7.32 0 4.045-3.277 7.322-7.321 7.322m24.708-32.245" fill="#2C78A4"/><path d="M66.553 53.445l-6.553-33.553-6.555 33.554-33.553 6.554 33.554 6.556 6.554 33.552 6.553-33.553 33.555-6.555-33.555-6.555zm-6.502 13.123c-3.536 0-6.404-2.867-6.404-6.406 0-3.536 2.868-6.405 6.404-6.405 3.538 0 6.406 2.869 6.406 6.405 0 3.539-2.868 6.406-6.406 6.406z" fill="#E5F8FF"/></svg>